<svg width="24" height="26" viewBox="0 0 24 26" fill="none" xmlns="http://www.w3.org/2000/svg">
<path d="M22.5324 15.0961L22.3682 15.1537C21.9699 15.2927 21.5408 15.2684 21.1603 15.0851C20.7799 14.9014 20.4943 14.5813 20.3547 14.1827C20.1448 13.5819 20.3136 12.9175 20.7854 12.4896C20.9424 12.3476 21.1241 12.2394 21.3261 12.1694L21.4896 12.1119L20.8042 10.149L22.8948 8.25286L20.668 5.79712L20.5395 5.91379C19.894 6.49897 18.8925 6.45035 18.3068 5.80492C17.7213 5.15927 17.7707 4.15797 18.4158 3.57242L18.5448 3.45575L16.3174 1L1.09805 14.8026L1.7318 15.5016L1 15.7568L2.09301 18.8868L2.25703 18.8296C3.07962 18.5421 3.98292 18.9775 4.26982 19.8001C4.47977 20.4008 4.31096 21.0658 3.83946 21.4926C3.68288 21.6352 3.50113 21.7428 3.29935 21.8128L3.13533 21.8705L4.22834 25L23.6254 18.2258L22.5324 15.0961ZM1.58832 14.8271L13.4667 4.05409L13.6608 4.26848L14.0889 3.87997L13.8949 3.66594L16.2934 1.49037L18.0598 3.43788C17.391 4.16315 17.375 5.29442 18.0497 6.03848C18.7244 6.78236 19.8518 6.87669 20.6388 6.28176L22.4046 8.22896L20.6803 9.79329L20.0061 10.4042L19.8116 10.1903L19.3835 10.5788L19.578 10.7929L7.69969 21.5654L5.93375 19.6177C6.6021 18.8932 6.61803 17.7617 5.94369 17.018C5.26844 16.2736 4.14085 16.1798 3.35462 16.7742L2.08748 15.3772L1.58832 14.8271ZM20.0312 18.8075L19.4854 18.9981L19.5804 19.2711L4.44139 24.5582L3.57445 22.0766C3.75674 21.9943 3.92342 21.8849 4.07238 21.75C4.64708 21.2287 4.85312 20.4185 4.59723 19.6856C4.26582 18.7376 3.2645 18.211 2.30799 18.4516L1.4416 15.97L1.98438 15.7804L3.32474 17.2582L3.45312 17.1421C4.09876 16.5566 5.10007 16.6055 5.68561 17.2509C6.27116 17.8964 6.22218 18.8983 5.57656 19.4831L5.44889 19.6003L7.67571 22.0555L20.5251 10.4023L21.0504 11.9062C20.8676 11.9888 20.7011 12.098 20.5525 12.2331C19.9778 12.7545 19.7716 13.5647 20.0277 14.2974C20.197 14.7829 20.5465 15.1737 21.0102 15.3976C21.4216 15.5957 21.8793 15.6425 22.3164 15.5312L23.184 18.0128L20.1266 19.0808L20.0312 18.8075Z" fill="#343A40" stroke="black" stroke-width="0.15"/>
<path d="M18.5397 8.78719L19.1759 9.48848L18.7481 9.87664L18.1118 9.17534L18.5397 8.78719Z" fill="#343A40" stroke="black" stroke-width="0.15"/>
<path d="M15.9954 5.98317L16.6311 6.68447L16.2031 7.07245L15.5674 6.37115L15.9954 5.98317Z" fill="#343A40" stroke="black" stroke-width="0.15"/>
<path d="M14.7241 4.58098L15.3598 5.28228L14.9316 5.67043L14.2959 4.96914L14.7241 4.58098Z" fill="#343A40" stroke="black" stroke-width="0.15"/>
<path d="M17.2678 7.38539L17.9035 8.08669L17.4751 8.47503L16.8394 7.77373L17.2678 7.38539Z" fill="#343A40" stroke="black" stroke-width="0.15"/>
<path d="M8.63787 17.9523C9.01769 18.3713 9.66792 18.4031 10.0864 18.0232L16.8193 11.9172C17.2378 11.5374 17.2692 10.8873 16.8892 10.4682L13.5268 6.76034C13.147 6.34132 12.4968 6.30958 12.0783 6.68941L5.34537 12.7954C4.92636 13.1754 4.89498 13.8253 5.27462 14.2441L8.63787 17.9523ZM5.5787 13.0529L12.3111 6.94688C12.5883 6.6958 13.0181 6.7169 13.2697 6.99388L16.6325 10.7017C16.8841 10.979 16.8633 11.4092 16.586 11.6603L9.85356 17.7663C9.57623 18.0179 9.14604 17.9966 8.89497 17.7195L5.53206 14.0113C5.28097 13.7343 5.30154 13.3041 5.57887 13.0531L5.5787 13.0529Z" fill="#343A40" stroke="black" stroke-width="0.15"/>
<path d="M19.1724 18.1053L18.8604 17.2121L19.4063 17.0213L19.7184 17.9145L19.1724 18.1053Z" fill="#343A40" stroke="black" stroke-width="0.15"/>
<path d="M18.2363 15.4243L18.7823 15.2337L19.0944 16.1272L18.5484 16.3178L18.2363 15.4243Z" fill="#343A40" stroke="black" stroke-width="0.15"/>
<path d="M17.6123 13.6367L18.1581 13.4455L18.4709 14.3385L17.9251 14.5297L17.6123 13.6367Z" fill="#343A40" stroke="black" stroke-width="0.15"/>
</svg>
