<svg width="21" height="20" viewBox="0 0 21 20" fill="none" xmlns="http://www.w3.org/2000/svg">
<path d="M10.5 15C10.7833 15 11.021 14.904 11.213 14.712C11.405 14.52 11.5007 14.2827 11.5 14V11H14.525C14.8083 11 15.0417 10.904 15.225 10.712C15.4083 10.52 15.5 10.2827 15.5 10C15.5 9.71667 15.404 9.479 15.212 9.287C15.02 9.095 14.7827 8.99933 14.5 9H11.5V5.975C11.5 5.69167 11.404 5.45833 11.212 5.275C11.02 5.09167 10.7827 5 10.5 5C10.2167 5 9.979 5.096 9.787 5.288C9.595 5.48 9.49933 5.71733 9.5 6V9H6.475C6.19167 9 5.95833 9.096 5.775 9.288C5.59167 9.48 5.5 9.71733 5.5 10C5.5 10.2833 5.596 10.521 5.788 10.713C5.98 10.905 6.21733 11.0007 6.5 11H9.5V14.025C9.5 14.3083 9.596 14.5417 9.788 14.725C9.98 14.9083 10.2173 15 10.5 15ZM10.5 20C9.11667 20 7.81667 19.7373 6.6 19.212C5.38333 18.6867 4.325 17.9743 3.425 17.075C2.525 16.175 1.81267 15.1167 1.288 13.9C0.763333 12.6833 0.500667 11.3833 0.5 10C0.5 8.61667 0.762667 7.31667 1.288 6.1C1.81333 4.88333 2.52567 3.825 3.425 2.925C4.325 2.025 5.38333 1.31267 6.6 0.788C7.81667 0.263333 9.11667 0.000666667 10.5 0C11.8833 0 13.1833 0.262667 14.4 0.788C15.6167 1.31333 16.675 2.02567 17.575 2.925C18.475 3.825 19.1877 4.88333 19.713 6.1C20.2383 7.31667 20.5007 8.61667 20.5 10C20.5 11.3833 20.2373 12.6833 19.712 13.9C19.1867 15.1167 18.4743 16.175 17.575 17.075C16.675 17.975 15.6167 18.6877 14.4 19.213C13.1833 19.7383 11.8833 20.0007 10.5 20ZM10.5 18C12.7167 18 14.6043 17.221 16.163 15.663C17.7217 14.105 18.5007 12.2173 18.5 10C18.5 7.78333 17.721 5.89567 16.163 4.337C14.605 2.77833 12.7173 1.99933 10.5 2C8.28333 2 6.39567 2.779 4.837 4.337C3.27833 5.895 2.49933 7.78267 2.5 10C2.5 12.2167 3.279 14.1043 4.837 15.663C6.395 17.2217 8.28267 18.0007 10.5 18Z" fill="#F29546"/>
</svg>
