<svg width="18" height="19" viewBox="0 0 18 19" fill="none" xmlns="http://www.w3.org/2000/svg">
<path d="M9.975 13.4559C9.825 13.3059 9.753 13.1246 9.759 12.9121C9.7655 12.6996 9.84375 12.5184 9.99375 12.3684L12.1125 10.2496H3.75C3.5375 10.2496 3.35925 10.1776 3.21525 10.0336C3.07175 9.89011 3 9.71211 3 9.49961C3 9.28711 3.07175 9.10886 3.21525 8.96486C3.35925 8.82136 3.5375 8.74961 3.75 8.74961H12.1125L9.975 6.61211C9.825 6.46211 9.75 6.28386 9.75 6.07736C9.75 5.87136 9.825 5.69336 9.975 5.54336C10.125 5.39336 10.3032 5.31836 10.5097 5.31836C10.7157 5.31836 10.8938 5.39336 11.0438 5.54336L14.475 8.97461C14.55 9.04961 14.6033 9.13086 14.6348 9.21836C14.6658 9.30586 14.6813 9.39961 14.6813 9.49961C14.6813 9.59961 14.6658 9.69336 14.6348 9.78086C14.6033 9.86836 14.55 9.94961 14.475 10.0246L11.025 13.4746C10.8875 13.6121 10.7157 13.6809 10.5097 13.6809C10.3032 13.6809 10.125 13.6059 9.975 13.4559Z" fill="#4879F5"/>
</svg>
