<svg width="25" height="24" viewBox="0 0 25 24" fill="none" xmlns="http://www.w3.org/2000/svg">
<path fill-rule="evenodd" clip-rule="evenodd" d="M13.4944 5.89997C13.4537 5.44394 13.4604 4.97988 13.518 4.51394C13.5296 4.42059 13.585 4.33809 13.6676 4.29068L17.5992 2.04068C17.6944 1.98644 17.8125 1.98644 17.9077 2.04068L21.8397 4.29068C21.9224 4.33809 21.9777 4.42059 21.9893 4.51394C22.3001 7.03274 21.1301 9.49428 18.978 10.9333V14.0487C20.5685 14.3058 21.8308 15.6015 22.0145 17.178C22.2675 19.3551 20.5361 21.1997 18.3655 21.1997C17.0604 21.1997 15.9162 20.5316 15.2651 19.5254C15.098 19.2665 14.8124 19.104 14.5004 19.0997H3.97967C3.13423 19.0997 2.44922 18.428 2.44922 17.5997V7.39966C2.44922 6.57132 3.13423 5.89966 3.97967 5.89966H13.494L13.4944 5.89997ZM18.7938 14.6284C17.5294 14.4608 16.3905 15.0511 15.7791 16.0015C15.4994 16.4359 15.0127 16.6999 14.4881 16.6999H12.3166L11.293 17.2015C11.1209 17.2854 10.919 17.2854 10.7469 17.2015L9.79561 16.7353L8.84428 17.2015C8.67224 17.2854 8.47029 17.2854 8.29825 17.2015L7.43847 16.7803L6.81097 17.5999L7.49969 18.4999H14.488C15.0148 18.4999 15.5006 18.7682 15.7827 19.2044C16.3251 20.0429 17.2784 20.5999 18.3658 20.5999C20.1752 20.5999 21.6175 19.0609 21.4065 17.2459C21.2504 15.9058 20.158 14.809 18.7937 14.6284H18.7938ZM20.815 17.5999C20.815 16.9375 20.2662 16.3999 19.5906 16.3999C18.9148 16.3999 18.3663 16.9375 18.3663 17.5999C18.3663 18.2623 18.9148 18.7999 19.5906 18.7999C20.2662 18.7999 20.815 18.2623 20.815 17.5999ZM14.527 8.8999H3.06172V17.5999C3.06172 18.097 3.47276 18.4999 3.97999 18.4999H6.73453L6.32133 17.9596C6.15844 17.747 6.15844 17.4538 6.32105 17.2402L6.9488 16.4203C7.12631 16.1878 7.44799 16.1137 7.71224 16.2436C7.71224 16.2436 8.57108 16.6645 8.57052 16.6642C8.57107 16.6644 8.57175 16.6644 8.57148 16.6644L9.52186 16.1985C9.69445 16.1138 9.89711 16.1138 10.0694 16.1985H10.0697C10.0697 16.1985 11.0201 16.6644 11.0191 16.664C11.0197 16.6643 11.0203 16.6643 11.0201 16.6643C11.0201 16.6643 12.0427 16.163 12.0418 16.1636C12.1272 16.1212 12.2212 16.0997 12.3163 16.0997H14.4881C14.8023 16.0997 15.0938 15.9412 15.2612 15.6809C15.9111 14.671 17.0577 13.9991 18.3663 13.9997V11.3018L17.9059 11.5601C17.8116 11.6129 17.6959 11.6129 17.6016 11.5601L17.0129 11.2299C15.9749 10.6473 15.1307 9.84089 14.5269 8.89978L14.527 8.8999ZM20.2028 17.5999C20.2028 17.9311 19.9283 18.1999 19.5906 18.1999C19.2527 18.1999 18.9784 17.9311 18.9784 17.5999C18.9784 17.2687 19.2527 16.9999 19.5906 16.9999C19.9283 16.9999 20.2028 17.2687 20.2028 17.5999ZM6.73481 14.8999H14.6932C15.8765 14.8999 16.8358 13.9597 16.8358 12.7999C16.8358 11.6401 15.8765 10.6999 14.6932 10.6999H6.73481C5.55117 10.6999 4.59218 11.6401 4.59218 12.7999C4.59218 13.9597 5.55117 14.8999 6.73481 14.8999ZM6.73481 14.2999C5.88937 14.2999 5.20436 13.6285 5.20436 12.7999C5.20436 11.9713 5.88937 11.2999 6.73481 11.2999H14.6932C15.5383 11.2999 16.2236 11.9713 16.2236 12.7999C16.2236 13.6285 15.5383 14.2999 14.6932 14.2999H6.73481ZM6.48106 12.7999L6.26461 12.5878C6.14518 12.4707 6.14518 12.2805 6.26461 12.1636C6.38404 12.0463 6.57808 12.0463 6.69737 12.1636L6.91382 12.3758L7.13027 12.1636C7.24997 12.0463 7.44373 12.0463 7.56345 12.1636C7.68288 12.2807 7.68288 12.4708 7.56345 12.5878L7.347 12.7999L7.56304 13.012C7.68274 13.1291 7.68274 13.3193 7.56304 13.4362C7.44361 13.5533 7.24957 13.5533 7.13028 13.4362L6.91383 13.2241L6.69779 13.4362C6.57808 13.5533 6.38432 13.5533 6.26461 13.4362C6.14518 13.3191 6.14518 13.129 6.26461 13.012L6.48106 12.7999ZM14.0809 12.7999L13.8641 12.5878C13.7447 12.4707 13.7447 12.2805 13.8641 12.1636C13.9838 12.0463 14.1776 12.0463 14.2973 12.1636L14.5138 12.3758L14.7302 12.1636C14.8496 12.0463 15.0437 12.0463 15.163 12.1636C15.2824 12.2807 15.2824 12.4708 15.163 12.5878L14.9465 12.7999L15.163 13.012C15.2824 13.1291 15.2824 13.3193 15.163 13.4362C15.0433 13.5533 14.8495 13.5533 14.7298 13.4362L14.5137 13.2241L14.2973 13.4362C14.1779 13.5533 13.9838 13.5533 13.8645 13.4362C13.7451 13.3191 13.7451 13.129 13.8645 13.012L14.081 12.7999H14.0809ZM9.03473 12.7999L8.81828 12.5878C8.69885 12.4707 8.69885 12.2805 8.81828 12.1636C8.93771 12.0463 9.13175 12.0463 9.25104 12.1636L9.46749 12.3758L9.68421 12.1636C9.80364 12.0463 9.99768 12.0463 10.117 12.1636C10.2364 12.2807 10.2364 12.4708 10.117 12.5878L9.90052 12.7999L10.1166 13.012C10.2363 13.1291 10.2363 13.3193 10.1166 13.4362C9.99713 13.5533 9.80309 13.5533 9.6838 13.4362L9.46735 13.2241L9.25131 13.4362C9.13188 13.5533 8.93784 13.5533 8.81855 13.4362C8.69885 13.3191 8.69885 13.129 8.81855 13.012L9.03459 12.7999H9.03473ZM11.6323 12.7999L11.4155 12.5878C11.2961 12.4707 11.2961 12.2805 11.4155 12.1636C11.5352 12.0463 11.729 12.0463 11.8487 12.1636L12.0652 12.3758L12.2816 12.1636C12.4011 12.0463 12.5951 12.0463 12.7144 12.1636C12.8338 12.2807 12.8338 12.4708 12.7144 12.5878L12.4979 12.7999L12.7144 13.012C12.8338 13.1291 12.8338 13.3193 12.7144 13.4362C12.5947 13.5533 12.4009 13.5533 12.2812 13.4362L12.0652 13.2241L11.8487 13.4362C11.7293 13.5533 11.5352 13.5533 11.416 13.4362C11.2965 13.3191 11.2965 13.129 11.416 13.012L11.6324 12.7999H11.6323ZM21.3981 4.73248L17.7537 2.64722L14.1097 4.73248C13.8722 7.14478 15.1198 9.47625 17.3172 10.7092L17.7537 10.9543L18.1904 10.7092C20.3878 9.47649 21.6354 7.14482 21.3979 4.73248H21.3981ZM16.5385 5.67091C16.5326 5.64814 16.5299 5.62444 16.5299 5.59979V4.99979C16.5299 4.33712 17.0778 3.79979 17.7542 3.79979C18.4303 3.79979 18.9786 4.33712 18.9786 4.99979V5.59979C18.9786 5.62444 18.9756 5.64814 18.9697 5.67091C19.5295 6.0498 19.8969 6.68313 19.8969 7.3998C19.8969 8.55869 18.9366 9.4998 17.7542 9.4998C16.5715 9.4998 15.6116 8.55869 15.6116 7.3998C15.6116 6.68316 15.9786 6.0498 16.5385 5.67091ZM16.2238 7.3998C16.2238 6.57187 16.9095 5.8998 17.7542 5.8998C18.5987 5.8998 19.2847 6.57187 19.2847 7.3998C19.2847 8.22773 18.5987 8.8998 17.7542 8.8998C16.9095 8.8998 16.2238 8.22773 16.2238 7.3998ZM13.5763 6.4998H3.98013C3.4729 6.4998 3.06186 6.90266 3.06186 7.3998V8.2998H14.184C13.8969 7.73196 13.6915 7.12644 13.5764 6.4998H13.5763ZM17.4481 7.61971C17.265 7.51592 17.142 7.32212 17.142 7.0998C17.142 6.76833 17.416 6.4998 17.7542 6.4998C18.0924 6.4998 18.3664 6.76833 18.3664 7.0998C18.3664 7.32212 18.243 7.51593 18.0603 7.61971V7.9998C18.0603 8.16534 17.9231 8.2998 17.7542 8.2998C17.5853 8.2998 17.4481 8.16534 17.4481 7.9998V7.61971ZM4.59232 7.3998C4.59232 7.56533 4.45512 7.6998 4.28623 7.6998C4.11733 7.6998 3.98013 7.56533 3.98013 7.3998C3.98013 7.23426 4.11733 7.0998 4.28623 7.0998C4.45512 7.0998 4.59232 7.23426 4.59232 7.3998ZM5.81668 7.3998C5.81668 7.56533 5.67948 7.6998 5.51059 7.6998C5.34169 7.6998 5.2045 7.56533 5.2045 7.3998C5.2045 7.23426 5.34169 7.0998 5.51059 7.0998C5.67948 7.0998 5.81668 7.23426 5.81668 7.3998ZM7.04104 7.3998C7.04104 7.56533 6.90385 7.6998 6.73495 7.6998C6.56606 7.6998 6.42886 7.56533 6.42886 7.3998C6.42886 7.23426 6.56606 7.0998 6.73495 7.0998C6.90385 7.0998 7.04104 7.23426 7.04104 7.3998ZM18.3664 5.38685V4.9998C18.3664 4.66832 18.0921 4.3998 17.7542 4.3998C17.416 4.3998 17.142 4.66832 17.142 4.9998V5.38685C17.3358 5.33047 17.5415 5.29979 17.7542 5.29979C17.967 5.29979 18.1724 5.33033 18.3664 5.38685Z" fill="#343A40"/>
</svg>
