<svg width="13" height="16" viewBox="0 0 13 16" fill="none" xmlns="http://www.w3.org/2000/svg">
<path d="M6.57217 15.6859C6.54265 15.6859 6.51341 15.6812 6.48512 15.6717C-1.42846 12.9855 0.865299 3.58054 0.889436 3.48591C0.917722 3.37515 1.01625 3.2952 1.13253 3.2889C4.41753 3.10863 6.35181 0.949964 6.37105 0.928158C6.42148 0.870836 6.49486 0.838024 6.5722 0.837891H6.57261C6.64968 0.837891 6.72292 0.870837 6.77348 0.927891C6.79275 0.949721 8.73712 3.10918 12.0124 3.28891C12.1286 3.29534 12.2272 3.37516 12.2553 3.48592C12.2794 3.5806 14.5733 12.9855 6.65963 15.6717C6.63134 15.6813 6.6021 15.6859 6.57258 15.6859L6.57217 15.6859ZM1.36408 3.79565C1.23946 4.38828 0.894554 6.33427 1.20926 8.47565C1.70282 11.834 3.507 14.0786 6.57231 15.1494C9.63759 14.0787 11.4418 11.834 11.9354 8.47565C12.2501 6.33413 11.9052 4.38811 11.7804 3.79565C8.97204 3.57534 7.15582 2.04427 6.57233 1.47639C5.98883 2.04437 4.17265 3.57547 1.36424 3.79565H1.36408Z" fill="#343A40"/>
<path d="M6.1643 10.5427C6.06783 10.5427 5.97628 10.5016 5.91314 10.4302L4.10843 8.38698C3.98832 8.25105 4.00335 8.04547 4.14219 7.92773C4.28088 7.80974 4.49091 7.82487 4.61077 7.96081L6.16431 9.71943L8.98115 6.53058C9.10112 6.39451 9.31101 6.37964 9.44983 6.4975C9.58853 6.61522 9.6037 6.8208 9.48345 6.95676L6.41544 10.4302C6.35231 10.5016 6.26062 10.5427 6.16428 10.5427L6.1643 10.5427Z" fill="#343A40"/>
</svg>
