<svg width="17" height="20" viewBox="0 0 17 20" fill="none" xmlns="http://www.w3.org/2000/svg">
<path fill-rule="evenodd" clip-rule="evenodd" d="M5.5555 13.3531C5.64555 13.4433 5.64555 13.5873 5.5555 13.6776L4.94633 14.2727C4.90123 14.3188 4.84247 14.34 4.78181 14.34C4.72114 14.34 4.66237 14.3169 4.61523 14.2727L4.3116 13.9752C4.22155 13.8849 4.22155 13.7409 4.3116 13.6507C4.4037 13.5604 4.55251 13.5604 4.6427 13.6507L4.78181 13.787L5.22265 13.3531C5.31475 13.2628 5.4634 13.2628 5.5555 13.3531ZM5.5555 12.1397C5.64555 12.2299 5.64555 12.3739 5.5555 12.4642L4.94633 13.0593C4.90123 13.1035 4.84247 13.1266 4.78181 13.1266C4.72114 13.1266 4.66237 13.1035 4.61523 13.0593L4.3116 12.7618C4.22155 12.6715 4.22155 12.5275 4.3116 12.4372C4.4037 12.347 4.55251 12.347 4.6427 12.4372L4.78181 12.5736L5.22265 12.1397C5.31475 12.0494 5.4634 12.0494 5.5555 12.1397ZM5.5555 10.9263C5.64555 11.0165 5.64555 11.1605 5.5555 11.2508L4.94633 11.8459C4.90123 11.8901 4.84247 11.9132 4.78181 11.9132C4.72114 11.9132 4.66237 11.8901 4.61523 11.8459L4.3116 11.5483C4.22155 11.4581 4.22155 11.3141 4.3116 11.2238C4.4037 11.1336 4.55251 11.1336 4.6427 11.2238L4.78181 11.3602L5.22265 10.9263C5.31475 10.836 5.4634 10.836 5.5555 10.9263ZM12.2335 13.7563C12.2335 13.883 12.1297 13.9867 11.9985 13.9867H6.34298C6.21371 13.9867 6.10986 13.8849 6.10986 13.7563C6.10986 13.6276 6.21371 13.5278 6.34298 13.5278H11.9985C12.1298 13.5278 12.2335 13.6296 12.2335 13.7563ZM6.047 12.5717C6.047 12.445 6.15085 12.3432 6.28012 12.3432H11.9377C12.067 12.3432 12.1708 12.445 12.1708 12.5717C12.1708 12.6984 12.067 12.8021 11.9377 12.8021H6.28012C6.15085 12.8021 6.047 12.6984 6.047 12.5717ZM5.98427 11.3871C5.98427 11.2604 6.08813 11.1567 6.2174 11.1567H11.875C12.0043 11.1567 12.1081 11.2604 12.1081 11.3871C12.1081 11.5138 12.0043 11.6156 11.875 11.6156H6.2174C6.08813 11.6156 5.98427 11.5138 5.98427 11.3871ZM5.55519 9.71474C5.64524 9.80501 5.64524 9.94898 5.55519 10.0392L4.94601 10.6344C4.90092 10.6786 4.84216 10.7016 4.78149 10.7016C4.72082 10.7016 4.66206 10.6786 4.61492 10.6344L4.31129 10.3368C4.22124 10.2466 4.22124 10.1026 4.31129 10.0123C4.40339 9.92205 4.5522 9.92205 4.64238 10.0123L4.78149 10.1487L5.22233 9.71474C5.31443 9.62447 5.46309 9.62448 5.55519 9.71474ZM5.92155 10.2024C5.92155 10.0757 6.0254 9.97203 6.15467 9.97203H11.8123C11.9415 9.97203 12.0454 10.0757 12.0454 10.2024C12.0454 10.3291 11.9415 10.4327 11.8123 10.4327H6.15467C6.0254 10.4327 5.92155 10.3291 5.92155 10.2024ZM12.1021 9.01778C12.1021 9.14448 11.9983 9.24814 11.869 9.24814H7.93146C7.80014 9.24814 7.69642 9.14448 7.69642 9.01778C7.69642 8.89109 7.80028 8.7893 7.93146 8.7893H11.869C11.9983 8.7893 12.1021 8.89109 12.1021 9.01778ZM12.108 7.83318C12.108 7.95987 12.0042 8.06166 11.8749 8.06166H7.93524C7.80597 8.06166 7.70212 7.958 7.70212 7.83318C7.70212 7.70836 7.80597 7.60282 7.93524 7.60282H11.8749C12.0042 7.60282 12.108 7.70648 12.108 7.83318ZM12.108 6.64857C12.108 6.77527 12.0042 6.87893 11.8749 6.87893H7.93524C7.80597 6.87893 7.70212 6.77714 7.70212 6.64857C7.70212 6.51987 7.80597 6.41821 7.93524 6.41821H11.8749C12.0042 6.41821 12.108 6.52187 12.108 6.64857ZM8.10959 3.76281H11.6005V5.59641H8.10959V3.76281ZM7.87456 6.05526H11.8355C11.9648 6.05526 12.0687 5.95347 12.0687 5.8249V3.53245C12.0687 3.40576 11.9648 3.30209 11.8355 3.30209H7.87456C7.74529 3.30209 7.64143 3.40575 7.64143 3.53245V5.8249C7.64143 5.95159 7.74529 6.05526 7.87456 6.05526ZM2.95157 5.36018C2.95157 5.13933 3.12402 4.95115 3.36491 4.87631V5.81903C3.06907 5.7384 2.95157 5.63474 2.95157 5.36018ZM4.24834 6.85778C4.24834 7.07863 4.07589 7.26681 3.83307 7.34166V6.39894C4.13083 6.47956 4.24834 6.58322 4.24834 6.85778ZM3.83307 8.17295V7.81387C4.3365 7.71986 4.71664 7.32623 4.71664 6.85775C4.71664 6.20111 4.25233 6.0207 3.83307 5.92466V4.87641C4.07398 4.95128 4.24834 5.13945 4.24834 5.36029C4.24834 5.37569 4.24834 5.39096 4.24438 5.40636C4.23072 5.53305 4.32268 5.64636 4.45208 5.65975C4.58135 5.67314 4.69696 5.58301 4.71062 5.45618C4.71458 5.4235 4.7165 5.39096 4.7165 5.35828C4.7165 4.8898 4.33649 4.49616 3.83293 4.40215V4.04308C3.83293 3.91638 3.72907 3.81272 3.5998 3.81272C3.47054 3.81272 3.36477 3.9145 3.36477 4.04308V4.40215C2.86135 4.49617 2.48326 4.8898 2.48326 5.35828C2.48326 6.01492 2.94758 6.19533 3.36477 6.29136V7.33961C3.12181 7.26475 2.95142 7.07658 2.95142 6.85574C2.95142 6.84034 2.95142 6.82507 2.95539 6.80779C2.96905 6.6811 2.87709 6.56779 2.74768 6.5544C2.61841 6.54101 2.50281 6.63114 2.48915 6.75797C2.48518 6.79065 2.48327 6.8232 2.48327 6.85588C2.48327 7.32436 2.86328 7.71799 3.36478 7.812V8.17108C3.36478 8.29777 3.47054 8.40144 3.59981 8.40144C3.72908 8.40144 3.83293 8.29778 3.83293 8.17108L3.83307 8.17295ZM15.871 3.91226H13.0893V2.14963C13.0893 1.3241 13.6476 0.652034 14.3293 0.652034H14.629C15.3126 0.652034 15.8691 1.3241 15.8691 2.14963V3.91027L15.871 3.91226ZM12.6211 17.0547V2.14963C12.6211 1.54871 12.8601 1.01111 13.2324 0.652034H4.73424C4.25625 0.652034 3.85067 1.33747 3.85067 2.14963V2.89079C5.54715 3.01748 6.88901 4.40954 6.88901 6.1048C6.88901 7.80019 5.54715 9.19213 3.85067 9.31881V14.8292H9.60832C9.73759 14.8292 9.84144 14.931 9.84144 15.0596V17.0505C9.84144 17.8627 10.247 18.5481 10.7269 18.5481C10.7406 18.5481 10.7563 18.5481 10.772 18.552H11.7397C12.2177 18.552 12.6233 17.8666 12.6233 17.0544L12.6211 17.0547ZM2.22874 18.5465C1.71741 18.5465 0.598798 18.1701 0.598798 17.0489V15.2883L9.37293 15.2881V17.0488C9.37293 17.6555 9.55508 18.1893 9.84697 18.5464H2.23038L2.22874 18.5465ZM0.779059 6.1049C0.779059 7.62942 2.04456 8.86974 3.60191 8.86974C5.1593 8.86974 6.42477 7.62942 6.42477 6.1049C6.42477 4.58039 5.15927 3.34007 3.60191 3.34007C2.04453 3.34007 0.779059 4.58039 0.779059 6.1049ZM14.6311 0.193359H4.73445C3.97632 0.193359 3.38272 1.05359 3.38272 2.14977V2.88894C1.67053 2.99836 0.309114 4.39991 0.309114 6.10497C0.309114 7.8099 1.66861 9.21157 3.38272 9.32101V14.8276H0.367848C0.23653 14.8276 0.132812 14.9294 0.132812 15.058V17.049C0.132812 18.3834 1.38464 19.0054 2.23092 19.0054L10.6409 19.0055C10.6546 19.0074 10.6703 19.0094 10.686 19.0094H11.7399C12.4981 19.0094 13.0917 18.1492 13.0917 17.053V4.36932H16.1065C16.2379 4.36932 16.3416 4.26567 16.3416 4.13897V2.14985C16.3416 1.07077 15.5757 0.193434 14.6334 0.193434L14.6311 0.193359Z" fill="#343A40"/>
</svg>
