<svg width="22" height="22" viewBox="0 0 22 22" fill="none" xmlns="http://www.w3.org/2000/svg">
<path d="M4.99844 5.00039V9.20039M16.9984 5.00039V9.20039M16.3984 13.4004H18.7984C19.7925 13.4004 20.5984 12.5945 20.5984 11.6004V3.20039C20.5984 2.20628 19.7925 1.40039 18.7984 1.40039H3.19844C2.20432 1.40039 1.39844 2.20628 1.39844 3.20039V11.6004C1.39844 12.5945 2.20432 13.4004 3.19844 13.4004H5.59844M7.60337 17.2061L10.9975 20.6002M10.9975 20.6002L14.1629 17.4347M10.9975 20.6002L10.9976 13.6578M13.3984 7.40039C13.3984 8.72588 12.3239 9.80039 10.9984 9.80039C9.67295 9.80039 8.59844 8.72588 8.59844 7.40039C8.59844 6.07491 9.67295 5.00039 10.9984 5.00039C12.3239 5.00039 13.3984 6.07491 13.3984 7.40039Z" stroke="#84828A" stroke-width="2" stroke-linecap="round" stroke-linejoin="round"/>
</svg>
