<svg width="16" height="16" viewBox="0 0 16 16" fill="none" xmlns="http://www.w3.org/2000/svg">
<path d="M0.258108 15.9999H10.1677C10.3101 15.9999 10.4259 15.8844 10.4259 15.7417L10.4258 12.9031H15.7418C15.8842 12.9031 16 12.7875 16 12.6449L15.9999 0.258185C15.9998 0.115575 15.8842 0 15.7416 0H5.83229C5.68993 0 5.57411 0.115575 5.57411 0.258185L5.57424 3.09686H0.258178C0.115572 3.09686 0 3.21231 0 3.3548V15.7418C0 15.8844 0.115572 16 0.258178 16L0.258108 15.9999ZM6.09003 0.516078H15.4831V12.3869H10.4255V9.80852H12.9749C13.1173 9.80852 13.2331 9.69294 13.2331 9.55033C13.2331 9.40772 13.1175 9.29215 12.9749 9.29215L10.4255 9.29227V6.70782H12.9749C13.1173 6.70782 13.2331 6.59224 13.2331 6.44963C13.2331 6.30702 13.1175 6.19145 12.9749 6.19145H10.4255V3.61519H12.9773C13.1196 3.61519 13.2354 3.49961 13.2354 3.357C13.2354 3.21439 13.1199 3.09882 12.9773 3.09882L10.1906 3.09894C10.1828 3.0982 10.1754 3.09659 10.1673 3.09659H6.08995L6.09003 0.516078ZM0.51588 3.61294H5.80845C5.81626 3.61369 5.8237 3.6153 5.83176 3.6153C5.83982 3.6153 5.84726 3.61369 5.85507 3.61294H8.41876C8.42657 3.61369 8.43401 3.6153 8.44207 3.6153H9.90905V15.4839L0.515947 15.4838L0.51588 3.61294Z" fill="#284E93"/>
<path d="M7.40904 6.00693H3.02674C2.88411 6.00693 2.76807 6.11845 2.76807 6.25606C2.76807 6.39367 2.88386 6.5052 3.02674 6.5052H7.40904C7.55168 6.5052 7.66772 6.39367 7.66772 6.25606C7.66772 6.11845 7.5518 6.00693 7.40892 6.00693H7.40904Z" fill="#284E93"/>
<path d="M7.40904 9.30104H3.02674C2.88411 9.30104 2.76807 9.41256 2.76807 9.55018C2.76807 9.68779 2.88386 9.79931 3.02674 9.79931H7.40904C7.55168 9.79931 7.66772 9.68779 7.66772 9.55018C7.66772 9.41256 7.5518 9.30104 7.40892 9.30104H7.40904Z" fill="#284E93"/>
<path d="M7.40904 12.5951H3.02674C2.88411 12.5951 2.76807 12.7067 2.76807 12.8443C2.76807 12.9819 2.88386 13.0934 3.02674 13.0934H7.40904C7.55168 13.0934 7.66772 12.9819 7.66772 12.8443C7.66772 12.7067 7.5518 12.5951 7.40892 12.5951H7.40904Z" fill="#284E93"/>
</svg>
