<svg width="19" height="19" viewBox="0 0 19 19" fill="none" xmlns="http://www.w3.org/2000/svg">
<path d="M17.4812 0.785156H1.00133C0.750715 0.788237 0.511443 0.88788 0.33503 1.06239C0.158617 1.23689 0.0594123 1.47248 0.0585938 1.7181V18.1132C0.0585938 18.1927 0.0908428 18.2691 0.148235 18.3253C0.205626 18.3816 0.283516 18.4132 0.364684 18.4132H18.1179C18.1991 18.4132 18.277 18.3816 18.3344 18.3253C18.3918 18.2691 18.424 18.1927 18.424 18.1132V1.7181C18.4232 1.47248 18.324 1.2369 18.1476 1.06239C17.9712 0.88788 17.7319 0.788235 17.4813 0.785156H17.4812ZM1.00133 1.38516H17.4812C17.6653 1.38998 17.8118 1.5377 17.8118 1.7181V3.59912H0.670723V1.7181C0.670723 1.5377 0.817209 1.38998 1.00127 1.38516H1.00133ZM1.00133 17.8132C0.817265 17.8083 0.670779 17.6606 0.670779 17.4802V4.1993H17.8119V17.4802C17.8119 17.6641 17.6598 17.8132 17.4722 17.8132H1.00133Z" fill="white"/>
<path d="M2.05788 2.48135C2.05788 2.66189 1.90852 2.80827 1.72418 2.80827C1.53998 2.80827 1.39062 2.66189 1.39062 2.48135C1.39062 2.30068 1.53998 2.1543 1.72418 2.1543C1.90852 2.1543 2.05788 2.30068 2.05788 2.48135Z" fill="white"/>
<path d="M3.36647 2.48135C3.36647 2.66189 3.21712 2.80827 3.03291 2.80827C2.84858 2.80827 2.69922 2.66189 2.69922 2.48135C2.69922 2.30068 2.84857 2.1543 3.03291 2.1543C3.21711 2.1543 3.36647 2.30068 3.36647 2.48135Z" fill="white"/>
<path d="M4.34209 2.80488C4.51318 2.7888 4.64381 2.64791 4.64381 2.47943C4.64381 2.31095 4.51318 2.17006 4.34209 2.15385C4.24849 2.14501 4.15543 2.17541 4.08588 2.23729C4.01619 2.2993 3.97656 2.38715 3.97656 2.47943C3.97656 2.57157 4.01619 2.65943 4.08588 2.72144C4.15543 2.78345 4.24849 2.81371 4.34209 2.80488Z" fill="white"/>
<path d="M5.80218 2.77969H16.6959C16.8649 2.77969 17.002 2.64536 17.002 2.47969C17.002 2.31402 16.8649 2.17969 16.6959 2.17969H5.80218C5.63315 2.17969 5.49609 2.31402 5.49609 2.47969C5.49609 2.64536 5.63315 2.77969 5.80218 2.77969Z" fill="white"/>
<path d="M5.42097 6.76482C5.46729 6.85375 5.5609 6.90946 5.6627 6.90879C5.70752 6.90919 5.75152 6.89888 5.79129 6.87879C5.92561 6.80848 5.9774 6.64549 5.90757 6.51276L5.50966 5.77174V5.77187C5.47591 5.70866 5.41769 5.66138 5.34814 5.64062C5.27858 5.61973 5.20343 5.62696 5.13934 5.66085C5.00543 5.72995 4.9535 5.89201 5.02305 6.02379L5.42097 6.76482Z" fill="white"/>
<path d="M4.23536 7.41166L5.07097 7.58564H5.12918L5.12904 7.58577C5.27006 7.5859 5.3884 7.48171 5.40343 7.34443C5.41833 7.20702 5.32513 7.08072 5.18726 7.05166L4.34553 6.89872C4.19672 6.86724 4.05009 6.95992 4.01798 7.10577C3.98587 7.25148 4.08043 7.39519 4.22924 7.42666L4.23536 7.41166Z" fill="white"/>
<path d="M12.6903 6.87601C12.7301 6.8961 12.7741 6.90641 12.8189 6.90601C12.9207 6.90668 13.0143 6.85096 13.0606 6.76204L13.4586 6.02102C13.5281 5.88923 13.4762 5.72718 13.3423 5.65807C13.2785 5.62338 13.2029 5.61561 13.1331 5.63651C13.0632 5.65754 13.005 5.70535 12.972 5.7691L12.574 6.51012V6.50998C12.5042 6.64271 12.556 6.80569 12.6903 6.87601Z" fill="white"/>
<path d="M13.0888 7.37913C13.115 7.50462 13.2275 7.59489 13.3582 7.59516H13.4165L14.2521 7.42118H14.2519C14.3994 7.38971 14.4935 7.24788 14.4632 7.10311C14.4283 6.96235 14.2872 6.87275 14.1418 6.89913L13.3062 7.07619C13.1633 7.10485 13.068 7.2377 13.0888 7.37913Z" fill="white"/>
<path d="M5.79129 12.4228C5.65683 12.3547 5.49148 12.4055 5.42097 12.5369L5.02305 13.2779V13.2778C4.9535 13.4096 5.00543 13.5718 5.13934 13.6409C5.17774 13.6619 5.22092 13.6732 5.26478 13.6738C5.36727 13.6737 5.46128 13.6184 5.50965 13.5299L5.90757 12.7889C5.9774 12.6563 5.92561 12.4931 5.79129 12.4228Z" fill="white"/>
<path d="M4.29146 12.4222H4.34967L5.18528 12.2452V12.2453C5.33915 12.2139 5.43781 12.0661 5.4057 11.9153C5.37359 11.7645 5.22286 11.6678 5.069 11.6993L4.23339 11.8764C4.09551 11.9053 4.00218 12.0316 4.01721 12.169C4.03211 12.3064 4.15044 12.4105 4.29146 12.4103V12.4222Z" fill="white"/>
<path d="M12.972 13.5299C13.0203 13.6184 13.1143 13.6737 13.2168 13.6738C13.2607 13.6732 13.3039 13.6619 13.3423 13.6409C13.4762 13.5718 13.5281 13.4096 13.4586 13.2778L13.0606 12.5368V12.5369C12.9901 12.4056 12.8248 12.3547 12.6903 12.4228C12.556 12.4931 12.5042 12.6563 12.574 12.7889L12.972 13.5299Z" fill="white"/>
<path d="M14.2514 11.8885L13.4158 11.6995C13.2672 11.668 13.1204 11.7607 13.0883 11.9066C13.0562 12.0523 13.1507 12.196 13.2996 12.2274L14.1352 12.4045H14.1934C14.3344 12.4048 14.4527 12.3006 14.4676 12.1632C14.4827 12.0257 14.3893 11.8995 14.2514 11.8705V11.8885Z" fill="white"/>
<path d="M9.66039 12.5237C9.79348 12.5238 9.92644 12.5148 10.0583 12.4966C10.2085 12.478 10.3151 12.344 10.297 12.1966L10.2297 11.6327C10.8565 11.488 11.3928 11.0925 11.7083 10.5425C12.024 9.9923 12.09 9.33765 11.8905 8.73765C11.6908 8.13751 11.244 7.64695 10.6582 7.3847L10.7011 7.25264C10.7283 7.18354 10.7254 7.10653 10.693 7.03957C10.6605 6.9726 10.6015 6.92171 10.5296 6.89867C10.2562 6.80961 9.96989 6.76407 9.68185 6.76367C8.77876 6.76796 7.9392 7.21943 7.4504 7.96367L7.20853 7.84367C7.07393 7.77724 6.90982 7.82773 6.83822 7.95764C6.32647 8.92433 6.36596 10.0826 6.94248 11.0136C7.51912 11.9446 8.54919 12.5135 9.66039 12.5147L9.66039 12.5237ZM11.451 9.44575C11.4473 9.82115 11.3194 10.1853 11.0865 10.4834C10.8535 10.7814 10.5281 10.9973 10.1593 11.0987L10.0216 9.95575L9.96334 9.43972L10.4837 7.90677V7.90664C10.7724 8.05288 11.0151 8.27332 11.1855 8.54452C11.3559 8.81559 11.4477 9.12724 11.451 9.44572L11.451 9.44575ZM9.68187 7.31575C9.81742 7.31642 9.9527 7.32955 10.0858 7.35473L9.52253 9.01971L8.51858 8.51266L7.94002 8.21266H7.94016C8.33521 7.6515 8.98618 7.31627 9.68187 7.31575ZM7.21485 8.46179L7.42296 8.56973L8.30146 9.0137L9.42168 9.57766L9.4706 9.97665L9.64195 11.4437C9.64154 11.4527 9.64154 11.4616 9.64195 11.4708L9.70317 11.9808C8.82369 11.9998 7.99288 11.5859 7.49001 10.8785C6.98715 10.171 6.8792 9.26361 7.20251 8.46167L7.21485 8.46179Z" fill="white"/>
<path d="M16.561 15.1836H1.92392C1.77169 15.1836 1.64844 15.3045 1.64844 15.4536C1.64844 15.6028 1.77169 15.7236 1.92392 15.7236H16.561C16.7132 15.7236 16.8365 15.6028 16.8365 15.4536C16.8365 15.3045 16.7132 15.1836 16.561 15.1836Z" fill="white"/>
<path d="M11.769 16.457H1.92516C1.78332 16.4718 1.67578 16.5888 1.67578 16.7286C1.67578 16.8683 1.78332 16.9855 1.92516 17.0001H11.769C11.9107 16.9855 12.0184 16.8683 12.0184 16.7286C12.0184 16.5888 11.9107 16.4718 11.769 16.457Z" fill="white"/>
</svg>
