<svg width="100" height="100" viewBox="0 0 100 100" fill="none" xmlns="http://www.w3.org/2000/svg">
<g clip-path="url(#clip0_305_3789)">
<path d="M50.0002 8.33301C73.0127 8.33301 91.6669 26.9872 91.6669 49.9997C91.6669 73.0122 73.0127 91.6664 50.0002 91.6664C26.9877 91.6664 8.33353 73.0122 8.33353 49.9997C8.33353 26.9872 26.9877 8.33301 50.0002 8.33301ZM50.0002 16.6663C41.1596 16.6663 32.6812 20.1782 26.43 26.4295C20.1788 32.6807 16.6669 41.1591 16.6669 49.9997C16.6669 58.8402 20.1788 67.3187 26.43 73.5699C32.6812 79.8211 41.1596 83.333 50.0002 83.333C58.8407 83.333 67.3192 79.8211 73.5704 73.5699C79.8216 67.3187 83.3335 58.8402 83.3335 49.9997C83.3335 41.1591 79.8216 32.6807 73.5704 26.4295C67.3192 20.1782 58.8407 16.6663 50.0002 16.6663ZM41.1627 35.2663L50.0002 44.108L58.8377 35.2663C59.2248 34.8792 59.6844 34.5721 60.1902 34.3626C60.696 34.1531 61.2381 34.0453 61.7856 34.0453C62.3331 34.0453 62.8752 34.1531 63.381 34.3626C63.8868 34.5721 64.3464 34.8792 64.7335 35.2663C65.1207 35.6535 65.4277 36.1131 65.6373 36.6189C65.8468 37.1247 65.9546 37.6668 65.9546 38.2143C65.9546 38.7617 65.8468 39.3039 65.6373 39.8097C65.4277 40.3155 65.1207 40.7751 64.7335 41.1622L55.8919 49.9955L64.7335 58.8372C65.5154 59.619 65.9546 60.6794 65.9546 61.7851C65.9546 62.8908 65.5154 63.9512 64.7335 64.733C63.9517 65.5149 62.8913 65.9541 61.7856 65.9541C60.6799 65.9541 59.6195 65.5149 58.8377 64.733L50.0002 55.8913L41.1627 64.733C40.3809 65.5149 39.3205 65.9541 38.2148 65.9541C37.1091 65.9541 36.0487 65.5149 35.2669 64.733C34.485 63.9512 34.0458 62.8908 34.0458 61.7851C34.0458 60.6794 34.485 59.619 35.2669 58.8372L44.1085 49.9997L35.271 41.1622C34.4892 40.3809 34.0497 39.321 34.0494 38.2157C34.049 37.1104 34.4877 36.0503 35.2689 35.2684C36.0502 34.4866 37.1101 34.0471 38.2154 34.0467C39.3207 34.0464 40.3809 34.4851 41.1627 35.2663Z" fill="#F45252"/>
</g>
<defs>
<clipPath id="clip0_305_3789">
<rect width="100" height="100" fill="white"/>
</clipPath>
</defs>
</svg>
