<svg width="16" height="20" viewBox="0 0 16 20" fill="none" xmlns="http://www.w3.org/2000/svg">
<path d="M15.4796 18.1618L14.3007 14.3389C14.2831 13.3404 13.4944 12.4908 12.4119 12.3121L10.543 12.0035C9.92872 11.9023 9.48319 11.4253 9.48319 10.8647L9.47422 10.4844C9.50513 10.4559 9.53844 10.4314 9.56886 10.4019C9.64412 10.3289 9.71458 10.2506 9.78472 10.1726C10.5889 10.0323 11.2167 9.38925 11.3159 8.58708H11.7134C12.0881 8.58708 12.3927 8.28825 12.3927 7.92132V6.05177C12.3927 5.68482 12.0881 5.386 11.7134 5.386H11.0961L11.1001 5.32982C11.174 5.29953 11.2266 5.2333 11.2376 5.15561C11.4898 3.39056 11.2259 2.05418 10.4529 1.18278C9.7567 0.39805 8.66231 0 7.20078 0C5.73683 0 4.4756 0.498778 3.74044 1.36845C3.0064 2.23651 2.77884 3.42652 3.0642 4.90542C3.07621 4.96819 3.11624 5.01873 3.16909 5.05059L3.19455 5.38631H2.58796C2.21356 5.38631 1.90868 5.68513 1.90868 6.05207V7.92162C1.90868 8.28857 2.21357 8.58738 2.58796 8.58738H3.58449C3.83318 9.31389 4.2625 9.96571 4.82777 10.4858L4.81832 10.8699C4.81832 11.4253 4.37267 11.9021 3.75853 12.0037L1.8891 12.3121C0.794595 12.4929 0 13.3594 0 14.3726V18.3106C0 18.7432 0.380801 19.095 0.849199 19.095H3.92411V19.1515C3.92411 19.6195 4.31259 20 4.78979 20H10.6212C11.061 20 11.4215 19.6757 11.4761 19.2591C11.608 19.2456 11.7251 19.1861 11.8099 19.0951H14.7724C15.0086 19.0951 15.2246 18.9885 15.3657 18.8025C15.5065 18.6168 15.5481 18.3831 15.4798 18.1619L15.4796 18.1618ZM10.2963 9.48645C10.3856 9.34002 10.4692 9.19013 10.5411 9.03524C10.609 8.88897 10.6662 8.73892 10.7176 8.58733H10.8575C10.7972 8.95506 10.5901 9.27447 10.2963 9.48649L10.2963 9.48645ZM11.7134 5.83051C11.8379 5.83051 11.9392 5.9297 11.9392 6.05181V7.92136C11.9392 8.04331 11.8377 8.14266 11.7134 8.14266H10.8428C10.8905 7.93564 10.9275 7.72564 10.9459 7.51141L11.0651 5.83033L11.7134 5.83018L11.7134 5.83051ZM10.2285 1.88878C10.2565 1.8373 10.2844 1.78504 10.3115 1.73246C10.7861 2.43105 10.9624 3.42089 10.8377 4.68322C10.8305 4.68542 10.8242 4.68872 10.8173 4.6917C10.0865 4.10629 9.54345 3.43144 10.2285 1.88878ZM4.0896 1.65195C4.73829 0.884614 5.87236 0.444376 7.2007 0.444376C8.43984 0.444376 9.37644 0.747601 9.98865 1.34635C9.92572 1.46782 9.86871 1.58538 9.81747 1.69916C8.6413 3.82566 6.41526 4.8689 3.47932 4.65668C3.26778 3.39169 3.47244 2.3814 4.08944 1.65191L4.0896 1.65195ZM2.58785 8.14281C2.46342 8.14281 2.36206 8.04362 2.36206 7.92152V6.05196C2.36206 5.93001 2.46327 5.83067 2.58785 5.83067H3.22806L3.35585 7.51488C3.37394 7.72817 3.40821 7.93768 3.45561 8.14315L2.58784 8.14331L2.58785 8.14281ZM3.80825 7.47954L3.6281 5.109C6.12524 5.24869 8.13093 4.51653 9.45382 3.00448C9.39328 3.9664 9.93214 4.56048 10.6596 5.13395L10.4939 7.47717C10.4529 7.95413 10.3301 8.41635 10.1286 8.85064C10.022 9.08041 9.89338 9.3014 9.74654 9.50792C9.68665 9.59221 9.62099 9.67319 9.5547 9.75323C9.52203 9.75543 9.48968 9.75794 9.45654 9.75794H8.06658C7.94135 9.75794 7.83983 9.85745 7.83983 9.98018C7.83983 10.1029 7.94136 10.2024 8.06658 10.2024H9.11624C8.70548 10.5689 8.23519 10.8531 7.70898 11.0397C7.349 11.1672 6.95301 11.1672 6.59299 11.0397C5.03873 10.4895 3.94567 9.09107 3.80825 7.47954ZM5.27155 10.8751L5.27203 10.8491C5.6248 11.1016 6.01599 11.3083 6.43844 11.4579C6.66808 11.5393 6.90922 11.5798 7.15056 11.5798C7.39189 11.5798 7.6329 11.5393 7.86251 11.4579C8.28446 11.3083 8.67231 11.0995 9.02876 10.8443L9.02924 10.8693C9.02924 11.4119 9.3274 11.8982 9.79292 12.1883C8.0204 13.77 6.28663 13.7703 4.50833 12.188C4.97354 11.8985 5.27169 11.4136 5.27136 10.8751L5.27155 10.8751ZM0.453885 18.3102V16.4119H1.92968C2.18574 16.4119 2.43121 16.5084 2.60257 16.6772C2.75277 16.8244 2.83524 17.0146 2.83492 17.2123C2.83396 17.9103 2.83396 18.3879 2.83492 18.6501H0.849727C0.631624 18.6501 0.453885 18.4976 0.453885 18.3102ZM3.28857 18.6501C3.28776 18.4405 3.28761 18.0272 3.28889 17.2131C3.28937 16.8964 3.1595 16.5944 2.92394 16.3629C2.66789 16.1117 2.30566 15.9674 1.92999 15.9674H0.454193L0.453873 14.3722C0.453873 13.5766 1.08929 12.8944 1.96472 12.75L3.83366 12.4414C3.91228 12.4284 3.98771 12.4094 4.06169 12.3878C5.08831 13.3462 6.12116 13.83 7.15291 13.83C8.18499 13.83 9.21591 13.3463 10.2397 12.3878C10.3137 12.4096 10.3891 12.4286 10.4674 12.4414L12.3363 12.75C13.2115 12.8945 13.8472 13.5765 13.8472 14.3722L14.2765 15.7762L12.6867 15.9166C12.4784 15.9351 12.2913 16.052 12.1863 16.2298C12.0865 16.3989 12.0753 16.6034 12.1501 16.7834L12.1485 16.7838C12.1855 16.8998 12.124 17.0254 12.0085 17.0696L11.9397 17.0962C11.8955 16.8797 11.7132 16.7138 11.4871 16.6862V15.4807C11.4871 15.0127 11.0986 14.6322 10.6214 14.6322L4.79041 14.6319C4.3129 14.6319 3.92473 15.0127 3.92473 15.4804V18.6504H3.28866L3.28857 18.6501ZM10.6216 19.5551H4.79019C4.56296 19.5551 4.37799 19.3738 4.37799 19.1511V15.4804C4.37799 15.2577 4.56295 15.0764 4.79019 15.0764H10.6216C10.8489 15.0764 11.0338 15.2577 11.0338 15.4804V16.6793H10.2686C10.0268 16.6793 9.79794 16.7831 9.64163 16.9636C9.48534 17.1441 9.41761 17.382 9.45652 17.6158L9.61841 18.5878C9.68391 18.9798 10.0253 19.2641 10.4306 19.2641H11.0154C10.9656 19.4317 10.809 19.5551 10.6218 19.5551L10.6216 19.5551ZM11.497 18.7463C11.497 18.7865 11.4633 18.8196 11.4222 18.8196H10.4309C10.249 18.8196 10.0958 18.6922 10.0665 18.5161L9.90457 17.5441C9.88696 17.4391 9.91706 17.3326 9.98768 17.2514C10.0578 17.1701 10.1606 17.124 10.269 17.124H11.4225C11.4635 17.124 11.4973 17.1569 11.4973 17.1973V18.7463L11.497 18.7463ZM15.0015 18.5374C14.9472 18.609 14.8638 18.6501 14.7725 18.6501H11.9504V17.5689L12.1741 17.4829C12.5101 17.3539 12.6891 16.9887 12.582 16.6514L12.3655 16.7175L12.5713 16.6244C12.5447 16.5682 12.5477 16.5054 12.5791 16.4519C12.6108 16.3984 12.6648 16.3643 12.7276 16.3589L14.4096 16.2105L15.0455 18.2898C15.0719 18.3755 15.0561 18.4657 15.0015 18.5374Z" fill="#343A40"/>
</svg>
