<svg width="16" height="13" viewBox="0 0 16 13" fill="none" xmlns="http://www.w3.org/2000/svg">
<path d="M13.063 8.20007C13.9987 8.89913 14.8349 10.6592 14.8349 11.7437C14.8349 12.0816 14.5884 12.3555 14.2843 12.3555H13.949M10.4053 5.33468C11.0105 4.98456 11.4178 4.33015 11.4178 3.58063C11.4178 2.8311 11.0105 2.17669 10.4053 1.82657M1.21073 12.3555H10.9094C11.2135 12.3555 11.46 12.0816 11.46 11.7437C11.46 9.62001 9.6857 7.8984 6.06005 7.8984C2.43441 7.8984 0.660156 9.62001 0.660156 11.7437C0.660156 12.0816 0.906658 12.3555 1.21073 12.3555ZM8.08502 3.58063C8.08502 4.69898 7.17841 5.60559 6.06005 5.60559C4.9417 5.60559 4.03509 4.69898 4.03509 3.58063C4.03509 2.46227 4.9417 1.55566 6.06005 1.55566C7.17841 1.55566 8.08502 2.46227 8.08502 3.58063Z" stroke="black" stroke-width="1.18123" stroke-linecap="round"/>
</svg>
