<svg width="18" height="17" viewBox="0 0 18 17" fill="none" xmlns="http://www.w3.org/2000/svg">
<path d="M7.87544 0H0.529261C0.303793 0 0.121094 0.179064 0.121094 0.400046V5.59982C0.121094 5.70589 0.164139 5.80767 0.240661 5.88267C0.317184 5.95767 0.421035 5.99986 0.529261 5.99986H7.87544C7.98366 5.99986 8.08738 5.95767 8.16404 5.88267C8.24056 5.80767 8.28347 5.70589 8.28347 5.59982V0.400046C8.28347 0.293973 8.24056 0.192189 8.16404 0.117189C8.08738 0.0421885 7.98366 0 7.87544 0ZM7.46727 5.20011H0.937219V0.799886H7.46727V5.20011Z" fill="#343A40"/>
<path d="M7.87544 6.80078H0.529261C0.303793 6.80078 0.121094 6.97998 0.121094 7.20083V16.4007C0.121094 16.5068 0.164139 16.6086 0.240661 16.6836C0.317184 16.7586 0.421035 16.8008 0.529261 16.8008H7.87544C7.98366 16.8008 8.08738 16.7586 8.16404 16.6836C8.24056 16.6086 8.28347 16.5068 8.28347 16.4007V7.20083C8.28347 7.09475 8.24056 6.99297 8.16404 6.91797C8.08738 6.84297 7.98366 6.80078 7.87544 6.80078ZM7.46727 16.001H0.937219V7.60101H7.46727V16.001Z" fill="#343A40"/>
<path d="M16.8519 10.8008H9.50568C9.28035 10.8008 9.09766 10.9798 9.09766 11.2008V16.4006C9.09766 16.5067 9.14057 16.6085 9.21709 16.6835C9.29375 16.7585 9.39746 16.8006 9.50569 16.8006H16.8519C16.9601 16.8006 17.0639 16.7585 17.1405 16.6835C17.217 16.6085 17.26 16.5067 17.26 16.4006V11.2008C17.26 11.0948 17.217 10.993 17.1405 10.918C17.0639 10.843 16.9601 10.8008 16.8519 10.8008ZM16.4438 16.0009H9.91378V11.6007H16.4438V16.0009Z" fill="#343A40"/>
<path d="M16.8519 0H9.50568C9.28035 0 9.09766 0.179064 9.09766 0.400046V9.59993C9.09766 9.706 9.14057 9.80779 9.21709 9.88279C9.29375 9.95779 9.39746 9.99998 9.50569 9.99998H16.8519C16.9601 9.99998 17.0639 9.95779 17.1405 9.88279C17.217 9.80779 17.26 9.706 17.26 9.59993V0.400046C17.26 0.293973 17.217 0.192189 17.1405 0.117189C17.0639 0.0421885 16.9601 0 16.8519 0ZM16.4438 9.19989H9.91378V0.799886H16.4438V9.19989Z" fill="#343A40"/>
</svg>
