<svg width="16" height="16" viewBox="0 0 16 16" fill="none" xmlns="http://www.w3.org/2000/svg">
<path d="M14.0664 5.91655L8.46644 11.5332C8.39977 11.5999 8.32755 11.647 8.24977 11.6746C8.17199 11.7026 8.08866 11.7166 7.99977 11.7166C7.91088 11.7166 7.82755 11.7026 7.74977 11.6746C7.67199 11.647 7.59977 11.5999 7.5331 11.5332L1.91644 5.91655C1.76088 5.761 1.68311 5.56655 1.68311 5.33322C1.68311 5.09989 1.76644 4.89989 1.93311 4.73322C2.09977 4.56655 2.29422 4.48322 2.51644 4.48322C2.73866 4.48322 2.93311 4.56655 3.09977 4.73322L7.99977 9.63322L12.8998 4.73322C13.0553 4.57766 13.2469 4.49989 13.4744 4.49989C13.7024 4.49989 13.8998 4.58322 14.0664 4.74989C14.2331 4.91655 14.3164 5.111 14.3164 5.33322C14.3164 5.55544 14.2331 5.74989 14.0664 5.91655Z" fill="black"/>
</svg>
