<svg width="24" height="24" viewBox="0 0 24 24" fill="none" xmlns="http://www.w3.org/2000/svg">
<path d="M22.0676 17.9814H21.5635C21.3567 17.9814 21.1892 17.8138 21.1892 17.6071C21.1892 17.4004 21.3567 17.2328 21.5635 17.2328H22.0676C22.6934 17.2328 23.2026 16.7213 23.2026 16.0926L23.2024 1.88373C23.2024 1.25774 22.6932 0.748502 22.0674 0.748502H1.88983C1.26097 0.748502 0.749465 1.25769 0.749465 1.88373V16.0926C0.749465 16.7213 1.26097 17.2328 1.89001 17.2328H9.78123C9.98807 17.2328 10.1555 17.4004 10.1555 17.6071C10.1555 17.8138 9.98807 17.9814 9.78123 17.9814L1.89001 17.9815C0.848548 17.9815 0.000976562 17.1341 0.000976562 16.0926V1.88372C0.000976562 0.845072 0.848412 0 1.89001 0H22.0676C23.106 0 23.9511 0.845117 23.9511 1.88372V16.0926C23.9513 17.1341 23.1062 17.9815 22.0677 17.9815L22.0676 17.9814Z" fill="#343A40"/>
<path d="M23.5813 4.96373H0.37444C0.167778 4.96373 0.000177543 4.79613 0.000177543 4.58947L0 1.88372C0 0.845072 0.847435 0 1.88904 0H22.0666C23.108 0 23.9555 0.847253 23.9555 1.8889V4.58951C23.9555 4.79617 23.7881 4.96377 23.581 4.96377L23.5813 4.96373ZM0.748957 4.21501H23.2072V1.88883C23.2072 1.26015 22.6959 0.748643 22.0672 0.748643L1.88923 0.748465C1.26037 0.748465 0.748866 1.25765 0.748866 1.8837L0.748957 4.21501Z" fill="#343A40"/>
<path d="M2.91318 2.85546H2.71362C2.50696 2.85546 2.33936 2.68786 2.33936 2.4812C2.33936 2.27453 2.50696 2.10693 2.71362 2.10693H2.91318C3.11984 2.10693 3.28744 2.27453 3.28744 2.4812C3.28744 2.68786 3.12001 2.85546 2.91318 2.85546Z" fill="#343A40"/>
<path d="M4.88632 2.85546H4.68676C4.4801 2.85546 4.3125 2.68786 4.3125 2.4812C4.3125 2.27453 4.4801 2.10693 4.68676 2.10693H4.88632C5.09298 2.10693 5.2604 2.27453 5.2604 2.4812C5.2604 2.68786 5.09298 2.85546 4.88632 2.85546Z" fill="#343A40"/>
<path d="M6.85946 2.85546H6.65991C6.45307 2.85546 6.28564 2.68786 6.28564 2.4812C6.28564 2.27453 6.45307 2.10693 6.65991 2.10693H6.85946C7.0663 2.10693 7.23373 2.27453 7.23373 2.4812C7.23373 2.68786 7.06648 2.85546 6.85946 2.85546Z" fill="#343A40"/>
<path d="M21.0325 2.85582H14.8757C14.6689 2.85582 14.5015 2.68822 14.5015 2.48156C14.5015 2.2749 14.6689 2.1073 14.8757 2.1073H21.0325C21.2394 2.1073 21.4068 2.2749 21.4068 2.48156C21.4068 2.6884 21.2394 2.85582 21.0325 2.85582Z" fill="#343A40"/>
<path d="M16.1815 24H15.162C14.7902 24 14.4763 23.7314 14.416 23.3612L14.254 22.4103C13.9361 22.3133 13.6316 22.1848 13.344 22.0259L12.5793 22.5786C12.2727 22.7977 11.8613 22.7609 11.5982 22.4928L10.8781 21.7571C10.6205 21.4938 10.5864 21.0822 10.7973 20.7791L11.3427 19.9889C11.184 19.6902 11.0565 19.3747 10.9608 19.0461L10.0335 18.8833C9.66831 18.815 9.40625 18.4975 9.40625 18.1273V17.0885C9.40625 16.7134 9.67061 16.3952 10.0342 16.3322L10.9601 16.1699C11.054 15.8445 11.182 15.5288 11.3429 15.2268L10.7965 14.4355C10.5894 14.1324 10.6229 13.7222 10.8756 13.4589L11.5978 12.7206C11.864 12.4543 12.2744 12.4195 12.5775 12.6358L13.3425 13.1883C13.635 13.0281 13.9398 12.8992 14.2543 12.8032L14.4169 11.8517C14.4769 11.4831 14.7904 11.2133 15.1622 11.2133H16.1817C16.5534 11.2133 16.867 11.4829 16.9277 11.8545L17.0893 12.8031C17.4037 12.8992 17.7089 13.0281 18.001 13.1882L18.7649 12.637C19.0691 12.4196 19.4796 12.4541 19.7434 12.7183L20.4653 13.4558C20.7211 13.7221 20.7545 14.1326 20.5471 14.4348L20.0007 15.2268C20.1615 15.5286 20.2893 15.8441 20.3838 16.1699L21.31 16.3324C21.6729 16.395 21.9373 16.713 21.9373 17.0885V18.1273C21.9373 18.4975 21.6753 18.8151 21.3141 18.8826L20.3831 19.0461C20.2871 19.3749 20.1591 19.6904 20.0007 19.9888L20.5468 20.7803C20.7574 21.0822 20.7237 21.4937 20.465 21.7573L19.7456 22.4924C19.4828 22.7614 19.0707 22.7978 18.7656 22.5794L17.9998 22.0258C17.7122 22.1847 17.4073 22.3132 17.0892 22.4102L16.9269 23.3637C16.8674 23.7312 16.5534 23.9999 16.1816 23.9999L16.1815 24ZM13.323 21.2049C13.3917 21.2049 13.4608 21.2239 13.5218 21.2621C13.8743 21.483 14.2617 21.647 14.6736 21.75C14.8176 21.786 14.9269 21.9039 14.9518 22.0502L15.1544 23.2382L16.1815 23.2513L16.3913 22.0502C16.4162 21.9037 16.5255 21.7859 16.6695 21.75C17.0814 21.647 17.4694 21.483 17.8216 21.2621C17.9511 21.181 18.1162 21.1867 18.2397 21.2758L19.2029 21.9717L19.9299 21.2335L19.2515 20.2213C19.1686 20.1008 19.1631 19.9428 19.2384 19.8171C19.4555 19.4526 19.6171 19.0538 19.7183 18.6314C19.7531 18.4864 19.8708 18.3758 20.0176 18.35L21.1804 18.1458L21.1884 17.0884C21.1884 17.0767 21.1811 17.0699 21.1797 17.0692L20.0178 16.8657C19.8701 16.8398 19.7521 16.7283 19.7181 16.5824C19.6209 16.1676 19.4596 15.7694 19.2386 15.3983C19.1631 15.2728 19.1686 15.1146 19.2517 14.9942L19.9305 14.0105L19.2104 13.2445L18.242 13.9376C18.1195 14.0262 17.9555 14.0323 17.8268 13.9529C17.4635 13.729 17.0741 13.5643 16.6695 13.4634C16.5255 13.4274 16.4162 13.3096 16.3913 13.1632L16.1891 11.9777L15.162 11.9619L14.9518 13.1632C14.9269 13.3097 14.8176 13.4274 14.6736 13.4632C14.2693 13.5643 13.88 13.729 13.5167 13.9527C13.388 14.0321 13.2239 14.0261 13.1014 13.9375L12.1407 13.2438L11.413 13.9796L12.0916 14.9942C12.1745 15.1146 12.18 15.2728 12.1047 15.3985C11.8835 15.7697 11.7223 16.168 11.6255 16.582C11.5916 16.7283 11.4735 16.8396 11.3258 16.8657L10.1627 17.0697L10.1547 18.1273L11.3258 18.3502C11.4728 18.3759 11.5905 18.4867 11.6252 18.6317C11.726 19.0538 11.8872 19.4525 12.1047 19.8172C12.18 19.9429 12.1745 20.1009 12.0916 20.2215L11.4128 21.2054L12.1329 21.969L13.1037 21.2757C13.1692 21.2286 13.2459 21.2049 13.323 21.2049L13.323 21.2049Z" fill="#343A40"/>
<path d="M15.669 20.3953C14.133 20.3953 12.8833 19.1456 12.8833 17.6094C12.8833 16.0705 14.133 14.8187 15.669 14.8187C17.2079 14.8187 18.4597 16.0705 18.4597 17.6094C18.4597 19.1456 17.2079 20.3953 15.669 20.3953ZM15.669 15.567C14.5456 15.567 13.6318 16.4831 13.6318 17.6093C13.6318 18.7326 14.5456 19.6466 15.669 19.6466C16.7951 19.6466 17.7113 18.7326 17.7113 17.6093C17.7113 16.4832 16.7951 15.567 15.669 15.567Z" fill="#343A40"/>
<path d="M3.90538 14.7857C3.84217 14.7857 3.77808 14.7695 3.71913 14.736L1.99677 13.746C1.87941 13.6784 1.80768 13.5528 1.8091 13.4176C1.81052 13.2821 1.88492 13.158 2.00369 13.0932L3.72606 12.1503C3.90768 12.0508 4.13494 12.1178 4.23402 12.2989C4.33344 12.4801 4.26686 12.7076 4.08542 12.8068L2.94823 13.4295L4.09232 14.0869C4.27146 14.1901 4.33325 14.4187 4.23028 14.598C4.16104 14.7184 4.03498 14.7857 3.90538 14.7857Z" fill="#343A40"/>
<path d="M7.65316 14.7857C7.52337 14.7857 7.39767 14.7184 7.32825 14.598C7.2251 14.4187 7.28689 14.1899 7.46638 14.0869L8.61012 13.4295L7.47293 12.8068C7.29166 12.7076 7.22508 12.4801 7.3245 12.2989C7.42357 12.1178 7.65136 12.0508 7.83265 12.1503L9.55502 13.0932C9.67379 13.158 9.74801 13.2821 9.74942 13.4176C9.75084 13.5528 9.67894 13.6784 9.56158 13.746L7.83921 14.736C7.78027 14.7697 7.71637 14.7857 7.65316 14.7857Z" fill="#343A40"/>
<path d="M5.20338 16.2752C5.17498 16.2752 5.14639 16.272 5.11745 16.2652C4.9163 16.2178 4.79148 16.0165 4.83853 15.8153L5.99095 10.9034C6.03817 10.7021 6.23951 10.5776 6.44084 10.6245C6.64182 10.6719 6.76681 10.8732 6.71976 11.0744L5.56735 15.9863C5.52687 16.1589 5.37329 16.2752 5.20338 16.2752Z" fill="#343A40"/>
<path d="M5.8083 9.51112H3.41235C3.20569 9.51112 3.03809 9.34351 3.03809 9.13685V6.7409C3.03809 6.53424 3.20569 6.36664 3.41235 6.36664H5.8083C6.01514 6.36664 6.18256 6.53424 6.18256 6.7409V9.13685C6.18256 9.34369 6.01514 9.51112 5.8083 9.51112ZM3.78677 8.76258H5.43401V7.11534H3.78677V8.76258Z" fill="#343A40"/>
<path d="M10.7031 9.51112H8.30737C8.10053 9.51112 7.93311 9.34351 7.93311 9.13685V6.7409C7.93311 6.53424 8.10053 6.36664 8.30737 6.36664H10.7031C10.91 6.36664 11.0774 6.53424 11.0774 6.7409V9.13685C11.0774 9.34369 10.91 9.51112 10.7031 9.51112ZM8.68179 8.76258H10.3288V7.11534H8.68179V8.76258Z" fill="#343A40"/>
<path d="M15.1708 9.51112H12.7747C12.5678 9.51112 12.4004 9.34351 12.4004 9.13685V6.7409C12.4004 6.53424 12.5678 6.36664 12.7747 6.36664H15.1708C15.3776 6.36664 15.5451 6.53424 15.5451 6.7409V9.13685C15.5451 9.34369 15.3776 9.51112 15.1708 9.51112ZM13.1489 8.76258H14.7964V7.11534H13.1489V8.76258Z" fill="#343A40"/>
<path d="M20.0659 9.51112H17.6702C17.4633 9.51112 17.2959 9.34351 17.2959 9.13685V6.7409C17.2959 6.53424 17.4633 6.36664 17.6702 6.36664H20.0659C20.2728 6.36664 20.4402 6.53424 20.4402 6.7409V9.13685C20.4402 9.34369 20.2728 9.51112 20.0659 9.51112ZM18.0444 8.76258H19.6915V7.11534H18.0444V8.76258Z" fill="#343A40"/>
</svg>
