<svg width="24" height="24" viewBox="0 0 24 24" fill="none" xmlns="http://www.w3.org/2000/svg">
<path d="M12.2239 12.8441C12.295 12.9218 12.3955 12.9661 12.5008 12.9661C12.606 12.9661 12.7066 12.9218 12.7777 12.8439L18.8029 6.24495C18.9033 6.13522 18.9292 5.97675 18.8694 5.84065C18.8093 5.70454 18.6746 5.61695 18.526 5.61695H15.6801V0.37511C15.6801 0.167894 15.5122 0 15.305 0H9.69654C9.48932 0 9.32143 0.167894 9.32143 0.37511V5.61719H6.47527C6.32669 5.61719 6.19224 5.70502 6.13195 5.84089C6.07214 5.97675 6.09781 6.13546 6.19836 6.24519L12.2239 12.8441ZM9.69653 6.36695C9.90374 6.36695 10.0716 6.19906 10.0716 5.99184V0.750002H14.9299V5.99208C14.9299 6.1993 15.0978 6.36719 15.305 6.36719H17.6757L12.5008 12.0346L7.32577 6.36695H9.69653Z" fill="#343A40"/>
<path d="M12.2239 16.3109C12.295 16.3888 12.3955 16.4331 12.5008 16.4331C12.606 16.4331 12.7066 16.3888 12.7777 16.3109L18.8029 9.71193C18.9426 9.55911 18.932 9.32175 18.7789 9.18212C18.6256 9.04225 18.3885 9.05308 18.2491 9.20613L12.5008 15.5019L6.75247 9.20613C6.61307 9.05355 6.37595 9.04248 6.22265 9.18212C6.06983 9.32175 6.059 9.55911 6.19864 9.71193L12.2239 16.3109Z" fill="#343A40"/>
<path d="M12.2239 19.7776C12.295 19.8553 12.3955 19.8998 12.5008 19.8998C12.606 19.8998 12.7066 19.8556 12.7777 19.7776L18.8029 13.1787C18.9426 13.0259 18.932 12.7885 18.7789 12.6489C18.6256 12.509 18.3885 12.5203 18.2491 12.6729L12.5008 18.9686L6.75247 12.6729C6.61307 12.5203 6.37595 12.5092 6.22265 12.6489C6.06983 12.7885 6.059 13.0259 6.19864 13.1787L12.2239 19.7776Z" fill="#343A40"/>
<path d="M5.37511 23.0057H19.6249C19.8321 23.0057 20 22.8378 20 22.6306C20 22.4233 19.8321 22.2554 19.6249 22.2554H5.37511C5.16789 22.2554 5 22.4233 5 22.6306C5 22.8378 5.16789 23.0057 5.37511 23.0057Z" fill="#343A40"/>
</svg>
