<svg width="24" height="24" viewBox="0 0 24 24" fill="none" xmlns="http://www.w3.org/2000/svg">
<path d="M9.17304 17.8873H7.96193C7.45982 17.8873 7.01668 17.4737 7.01668 16.942V13.3677C7.01668 13.1905 6.89855 13.0723 6.72123 13.0723C6.54404 13.0723 6.42578 13.1904 6.42578 13.3677V16.942C6.42578 17.7691 7.10519 18.478 7.96182 18.478H9.17292C9.35011 18.478 9.46837 18.3599 9.46837 18.1826C9.46837 18.0054 9.32063 17.8873 9.17304 17.8873Z" fill="#343A40"/>
<path d="M15.7328 7.01851H16.9439C17.4461 7.01851 17.8892 7.43207 17.8892 7.96377V10.6813C17.8892 10.8585 18.0073 10.9768 18.1846 10.9768C18.3618 10.9768 18.4801 10.8586 18.4801 10.6813V7.96377C18.4801 7.13663 17.8007 6.42773 16.9441 6.42773H15.7329C15.5558 6.42773 15.4375 6.54586 15.4375 6.72318C15.4375 6.90037 15.5556 7.01851 15.7328 7.01851Z" fill="#343A40"/>
<path d="M21.6093 10.562C21.7865 10.562 21.9048 10.4439 21.9048 10.2666C21.9048 10.0894 21.7867 9.97113 21.6093 9.97113H19.6598V8.37606H21.6093C21.7865 8.37606 21.9048 8.25793 21.9048 8.08061C21.9048 7.90342 21.7867 7.78516 21.6093 7.78516H19.6598V7.1648C19.6598 6.10139 18.8032 5.27438 17.7693 5.27438H17.149V3.29545C17.149 3.11826 17.0309 3 16.8535 3C16.6763 3 16.5581 3.11812 16.5581 3.29545V5.24504H14.963L14.9631 3.29545C14.9631 3.11826 14.845 3 14.6677 3C14.4905 3 14.3723 3.11812 14.3723 3.29545V5.24504H12.7772L12.7773 3.29545C12.7773 3.11826 12.6592 3 12.4819 3C12.3047 3 12.1864 3.11812 12.1864 3.29545V5.24504H10.5913L10.5915 3.29545C10.5915 3.11826 10.4734 3 10.296 3C10.1188 3 10.0006 3.11812 10.0006 3.29545V5.24504H8.40551L8.40564 3.29545C8.40564 3.11826 8.28752 3 8.1102 3C7.93301 3 7.81475 3.11812 7.81475 3.29545V5.24504H7.19438C6.13098 5.24504 5.30397 6.10163 5.30397 7.13545V7.75581H3.29545C3.11826 7.75581 3 7.87394 3 8.05126C3 8.22845 3.11812 8.34671 3.29545 8.34671H5.24504V9.94178L3.29545 9.94165C3.11826 9.94165 3 10.0598 3 10.2371C3 10.4143 3.11812 10.5325 3.29545 10.5325H5.24504V12.1276L3.29545 12.1275C3.11826 12.1275 3 12.2456 3 12.4229C3 12.6001 3.11812 12.7184 3.29545 12.7184H5.24504V14.3134L3.29545 14.3133C3.11826 14.3133 3 14.4314 3 14.6088C3 14.786 3.11812 14.9042 3.29545 14.9042H5.24504V16.4993L3.29545 16.4992C3.11826 16.4992 3 16.6173 3 16.7946C3 16.9718 3.11812 17.09 3.29545 17.09H5.24504V17.7104C5.24504 18.7738 6.10163 19.6008 7.13545 19.6008H7.75581V21.5504C7.75581 21.7276 7.87394 21.8459 8.05126 21.8459C8.22845 21.8459 8.34671 21.7277 8.34671 21.5504V19.6008H9.94178V21.5504C9.94178 21.7276 10.0599 21.8459 10.2372 21.8459C10.4144 21.8459 10.5327 21.7277 10.5327 21.5504V19.6008H12.1277V21.5504C12.1277 21.7276 12.2459 21.8459 12.4232 21.8459C12.6004 21.8459 12.7186 21.7277 12.7186 21.5504V19.6008H14.3137V21.5504C14.3137 21.7276 14.4318 21.8459 14.6092 21.8459C14.7864 21.8459 14.9046 21.7277 14.9046 21.5504V19.6008H16.4997V21.5504C16.4997 21.7276 16.6178 21.8459 16.7951 21.8459C16.9723 21.8459 17.0906 21.7277 17.0906 21.5504V19.6008H17.7109C18.7744 19.6008 19.6014 18.7442 19.6014 17.7104V17.09H21.5509C21.7281 17.09 21.8464 16.9719 21.8464 16.7946C21.8464 16.6174 21.7283 16.4992 21.5509 16.4992H19.6014V14.9041H21.5509C21.7281 14.9041 21.8464 14.786 21.8464 14.6086C21.8464 14.4314 21.7283 14.3132 21.5509 14.3132H19.6014V12.7181H21.5509C21.7281 12.7181 21.8464 12.6 21.8464 12.4227C21.8464 12.2455 21.7283 12.1272 21.5509 12.1272H19.6014V10.5321L21.6093 10.5324L21.6093 10.562ZM19.069 17.7692C19.069 18.5077 18.4782 19.0689 17.7693 19.0689H7.13529C6.39681 19.0689 5.83565 18.4781 5.83565 17.7692V11.5663H7.90339L8.73053 12.3934H10.4438C10.5324 12.9841 11.0345 13.4568 11.6549 13.4568C12.3343 13.4568 12.8955 12.8955 12.8955 12.2162C12.8955 11.5368 12.3342 10.9756 11.6549 10.9756C11.1232 10.9756 10.6801 11.3301 10.5028 11.8028H8.96676L8.13962 10.9756H5.83565V9.94155H7.72607L9.67565 8.40552H12.5409C12.6886 8.93722 13.1613 9.35078 13.752 9.35078C14.4314 9.35078 14.9926 8.78949 14.9926 8.11018C14.9926 7.43078 14.4313 6.86959 13.752 6.86959C13.1613 6.86959 12.6886 7.28314 12.5409 7.81485L9.46884 7.81471L7.51939 9.35075H5.83565V7.13531C5.83565 6.39683 6.4264 5.83567 7.13529 5.83567H17.7395C18.478 5.83567 19.0392 6.42641 19.0392 7.13531V12.4818L15.8786 12.482L14.8152 13.5454C14.638 13.4272 14.4016 13.3682 14.1653 13.3682C13.4859 13.3682 12.9247 13.9295 12.9247 14.6088C12.9247 15.2882 13.486 15.8494 14.1653 15.8494C14.8447 15.8494 15.4059 15.2881 15.4059 14.6088C15.4059 14.3725 15.3469 14.1657 15.2287 13.9589L16.115 13.0727H19.0687V15.879L15.8491 15.8788L15.0516 16.6764H12.7476L11.8319 15.7607H10.9753C10.8276 15.229 10.355 14.8154 9.76421 14.8154C9.08481 14.8154 8.52362 15.3767 8.52362 16.056C8.52362 16.7354 9.08491 17.2966 9.76421 17.2966C10.355 17.2966 10.8276 16.8831 10.9753 16.3514H11.5661L12.4817 17.267H15.288L16.0855 16.4695H19.0689L19.069 17.7692ZM11.005 12.216C11.005 11.8615 11.3004 11.5661 11.6548 11.5661C12.0093 11.5661 12.3046 11.8616 12.3046 12.216C12.3046 12.5705 12.0092 12.8658 11.6548 12.8658C11.3003 12.8658 11.005 12.5703 11.005 12.216ZM13.1022 8.11025C13.1022 7.75574 13.3976 7.46043 13.752 7.46043C14.1065 7.46043 14.4018 7.75588 14.4018 8.11025C14.4018 8.46477 14.1064 8.76007 13.752 8.76007C13.3976 8.76007 13.1022 8.46462 13.1022 8.11025ZM14.845 14.6088C14.845 14.9633 14.5495 15.2586 14.1952 15.2586C13.8406 15.2586 13.5453 14.9631 13.5453 14.6088C13.5453 14.2543 13.8408 13.9589 14.1952 13.9589C14.5495 13.9589 14.845 14.2544 14.845 14.6088ZM10.4142 16.0563C10.4142 16.4108 10.1188 16.7061 9.76442 16.7061C9.40991 16.7061 9.1146 16.4106 9.1146 16.0563C9.1146 15.7018 9.41005 15.4065 9.76442 15.4065C10.1188 15.4063 10.4142 15.7018 10.4142 16.0563Z" fill="#343A40"/>
</svg>
