<svg xmlns="http://www.w3.org/2000/svg" width="15" height="15" viewBox="0 0 26 17" fill="none">
  <path d="M25.8228 6.84246C25.589 6.563 20.0155 0 12.9998 0C5.98449 0 0.410957 6.56322 0.177224 6.84246L0 7.05421L0.177224 7.26595C0.410957 7.54542 5.98449 14.1084 12.9998 14.1084C20.0155 14.1084 25.589 7.5452 25.8228 7.26595L26 7.05421L25.8228 6.84246ZM12.9998 13.4488C6.98539 13.4488 1.89361 8.18484 0.869848 7.05421C1.89361 5.92358 6.98539 0.659642 12.9998 0.659642C19.0144 0.659642 24.1064 5.9238 25.1302 7.05443C24.107 8.18528 19.0199 13.4488 12.9998 13.4488Z" fill="#343A40"/>
  <path d="M12.9999 2.92417C10.7226 2.92417 8.86963 4.77688 8.86963 7.05419C8.86963 9.33149 10.7226 11.1842 12.9999 11.1842C15.2772 11.1842 17.1299 9.33149 17.1299 7.05419C17.1299 4.77688 15.2772 2.92417 12.9999 2.92417ZM12.9999 10.5246C11.086 10.5246 9.52927 8.96781 9.52927 7.05419C9.52927 5.14056 11.086 3.58381 12.9999 3.58381C14.9135 3.58381 16.4702 5.14056 16.4702 7.05419C16.4702 8.96781 14.9135 10.5246 12.9999 10.5246Z" fill="#343A40"/>
</svg>