<svg width="15" height="16" viewBox="0 0 15 16" fill="none" xmlns="http://www.w3.org/2000/svg">
<path d="M11.875 12.375H5C4.65625 12.375 4.36188 12.2525 4.11688 12.0075C3.87188 11.7625 3.74958 11.4683 3.75 11.125V2.375C3.75 2.03125 3.8725 1.73688 4.1175 1.49188C4.3625 1.24688 4.65667 1.12458 5 1.125H9.375L13.125 4.875V11.125C13.125 11.4688 13.0025 11.7631 12.7575 12.0081C12.5125 12.2531 12.2183 12.3754 11.875 12.375ZM8.75 5.5V2.375H5V11.125H11.875V5.5H8.75ZM2.5 14.875C2.15625 14.875 1.86188 14.7525 1.61688 14.5075C1.37188 14.2625 1.24958 13.9683 1.25 13.625V4.875H2.5V13.625H9.375V14.875H2.5Z" fill="white"/>
</svg>
