<svg width="22" height="27" viewBox="0 0 22 27" fill="none" xmlns="http://www.w3.org/2000/svg">
<path d="M18.4738 0.527313C16.4744 0.188113 13.8201 0 11.0012 0C8.18234 0 5.52807 0.188107 3.52868 0.527313C0.602225 1.02769 0 1.65246 0 2.43813C0 2.73024 0.0824952 3.00221 0.341105 3.25077L8.1054 13.3257V21.7418C8.1054 21.9569 8.19058 22.1583 8.33638 22.2792L13.0532 26.2824C13.1439 26.3597 13.2511 26.4 13.3584 26.4C13.4436 26.4 13.5289 26.3766 13.6059 26.3262C13.782 26.2121 13.8946 25.9903 13.8946 25.7453V13.3231L21.6589 3.24824C21.9146 2.9997 22 2.72772 22 2.43559C22 1.64969 21.4005 1.02511 18.4713 0.524782L18.4738 0.527313ZM12.9677 12.6172C12.8743 12.7381 12.8219 12.8992 12.8219 13.0672V24.4956L9.17778 21.4027V13.0706C9.17778 12.9026 9.1256 12.7414 9.03197 12.6206L2.50238 4.15104C2.80761 4.22155 3.14601 4.28527 3.52551 4.3525C5.52495 4.69498 8.17917 4.87981 10.9981 4.87981C13.8171 4.87981 16.4712 4.69171 18.4706 4.3525C18.8501 4.28878 19.1885 4.22155 19.4938 4.15104L12.9642 12.6206L12.9677 12.6172ZM10.9984 3.56657C5.89357 3.56657 2.4036 2.9655 1.32262 2.43819C2.4035 1.91087 5.89092 1.3098 10.9984 1.3098C16.1057 1.3098 19.5932 1.91087 20.6742 2.43819C19.5933 2.9655 16.1059 3.56657 10.9984 3.56657Z" fill="#284E93"/>
</svg>
