<svg width="19" height="19" viewBox="0 0 19 19" fill="none" xmlns="http://www.w3.org/2000/svg">
<path d="M18.6093 7.56202C18.7865 7.56202 18.9048 7.4439 18.9048 7.26658C18.9048 7.08939 18.7867 6.97113 18.6093 6.97113H16.6598V5.37606H18.6093C18.7865 5.37606 18.9048 5.25793 18.9048 5.08061C18.9048 4.90342 18.7867 4.78516 18.6093 4.78516H16.6598V4.1648C16.6598 3.10139 15.8032 2.27438 14.7693 2.27438H14.149V0.295447C14.149 0.118258 14.0309 0 13.8535 0C13.6763 0 13.5581 0.118125 13.5581 0.295447V2.24504H11.963L11.9631 0.295447C11.9631 0.118258 11.845 0 11.6677 0C11.4905 0 11.3723 0.118125 11.3723 0.295447V2.24504H9.77718L9.77731 0.295447C9.77731 0.118258 9.65919 0 9.48186 0C9.30468 0 9.18642 0.118125 9.18642 0.295447V2.24504H7.59134L7.59148 0.295447C7.59148 0.118258 7.47335 0 7.29603 0C7.11884 0 7.00058 0.118125 7.00058 0.295447V2.24504H5.40551L5.40564 0.295447C5.40564 0.118258 5.28752 0 5.1102 0C4.93301 0 4.81475 0.118125 4.81475 0.295447V2.24504H4.19438C3.13098 2.24504 2.30397 3.10163 2.30397 4.13545V4.75581H0.295447C0.118258 4.75581 0 4.87394 0 5.05126C0 5.22845 0.118124 5.34671 0.295447 5.34671H2.24504V6.94178L0.295447 6.94165C0.118258 6.94165 0 7.05977 0 7.23709C0 7.41428 0.118124 7.53254 0.295447 7.53254H2.24504V9.12762L0.295447 9.12748C0.118258 9.12748 0 9.24561 0 9.42293C0 9.60012 0.118124 9.71838 0.295447 9.71838H2.24504V11.3134L0.295447 11.3133C0.118258 11.3133 0 11.4314 0 11.6088C0 11.786 0.118124 11.9042 0.295447 11.9042H2.24504V13.4993L0.295447 13.4992C0.118258 13.4992 0 13.6173 0 13.7946C0 13.9718 0.118124 14.09 0.295447 14.09H2.24504V14.7104C2.24504 15.7738 3.10163 16.6008 4.13545 16.6008H4.75581V18.5504C4.75581 18.7276 4.87394 18.8459 5.05126 18.8459C5.22845 18.8459 5.34671 18.7277 5.34671 18.5504V16.6008H6.94178V18.5504C6.94178 18.7276 7.05991 18.8459 7.23723 18.8459C7.41442 18.8459 7.53267 18.7277 7.53267 18.5504V16.6008H9.12775V18.5504C9.12775 18.7276 9.24587 18.8459 9.4232 18.8459C9.60038 18.8459 9.71864 18.7277 9.71864 18.5504V16.6008H11.3137V18.5504C11.3137 18.7276 11.4318 18.8459 11.6092 18.8459C11.7864 18.8459 11.9046 18.7277 11.9046 18.5504V16.6008H13.4997V18.5504C13.4997 18.7276 13.6178 18.8459 13.7951 18.8459C13.9723 18.8459 14.0906 18.7277 14.0906 18.5504V16.6008H14.7109C15.7744 16.6008 16.6014 15.7442 16.6014 14.7104V14.09H18.5509C18.7281 14.09 18.8464 13.9719 18.8464 13.7946C18.8464 13.6174 18.7283 13.4992 18.5509 13.4992H16.6014V11.9041H18.5509C18.7281 11.9041 18.8464 11.786 18.8464 11.6086C18.8464 11.4314 18.7283 11.3132 18.5509 11.3132H16.6014V9.71811H18.5509C18.7281 9.71811 18.8464 9.59998 18.8464 9.42266C18.8464 9.24547 18.7283 9.12721 18.5509 9.12721H16.6014V7.53214L18.6093 7.53241L18.6093 7.56202ZM16.069 14.7692C16.069 15.5077 15.4782 16.0689 14.7693 16.0689H4.13529C3.39681 16.0689 2.83565 15.4781 2.83565 14.7692V8.56625H4.90339L5.73053 9.39339H7.44376C7.53242 9.98414 8.0345 10.4568 8.65487 10.4568C9.33427 10.4568 9.89546 9.89551 9.89546 9.21621C9.89546 8.5368 9.33417 7.97561 8.65487 7.97561C8.12316 7.97561 7.68012 8.33013 7.5028 8.80276H5.96676L5.13962 7.97561H2.83565V6.94156H4.72607L6.67565 5.40552H9.54091C9.68864 5.93722 10.1613 6.35078 10.752 6.35078C11.4314 6.35078 11.9926 5.78949 11.9926 5.11018C11.9926 4.43078 11.4313 3.86959 10.752 3.86959C10.1613 3.86959 9.68861 4.28314 9.54091 4.81485L6.46884 4.81471L4.51939 6.35075H2.83565V4.13531C2.83565 3.39683 3.4264 2.83567 4.13529 2.83567H14.7395C15.478 2.83567 16.0392 3.42641 16.0392 4.13531V9.48182L12.8786 9.48196L11.8152 10.5454C11.638 10.4272 11.4016 10.3682 11.1653 10.3682C10.4859 10.3682 9.92474 10.9295 9.92474 11.6088C9.92474 12.2882 10.486 12.8494 11.1653 12.8494C11.8447 12.8494 12.4059 12.2881 12.4059 11.6088C12.4059 11.3725 12.3469 11.1657 12.2287 10.959L13.115 10.0727H16.0687V12.879L12.8491 12.8788L12.0516 13.6764H9.74759L8.83192 12.7607H7.97532C7.8276 12.229 7.35496 11.8154 6.76421 11.8154C6.08481 11.8154 5.52362 12.3767 5.52362 13.056C5.52362 13.7354 6.08491 14.2966 6.76421 14.2966C7.35496 14.2966 7.82762 13.8831 7.97532 13.3514H8.56607L9.48173 14.267H12.288L13.0855 13.4695H16.0689L16.069 14.7692ZM8.00498 9.21597C8.00498 8.86145 8.30043 8.56615 8.6548 8.56615C9.00931 8.56615 9.30461 8.8616 9.30461 9.21597C9.30461 9.57048 9.00917 9.86578 8.6548 9.86578C8.30028 9.86578 8.00498 9.57034 8.00498 9.21597ZM10.1022 5.11025C10.1022 4.75574 10.3976 4.46043 10.752 4.46043C11.1065 4.46043 11.4018 4.75588 11.4018 5.11025C11.4018 5.46477 11.1064 5.76007 10.752 5.76007C10.3976 5.76007 10.1022 5.46462 10.1022 5.11025ZM11.845 11.6088C11.845 11.9633 11.5495 12.2586 11.1952 12.2586C10.8406 12.2586 10.5453 11.9631 10.5453 11.6088C10.5453 11.2543 10.8408 10.959 11.1952 10.959C11.5495 10.959 11.845 11.2544 11.845 11.6088ZM7.41424 13.0563C7.41424 13.4108 7.11879 13.7061 6.76442 13.7061C6.40991 13.7061 6.1146 13.4106 6.1146 13.0563C6.1146 12.7018 6.41005 12.4065 6.76442 12.4065C7.1188 12.4063 7.41424 12.7018 7.41424 13.0563Z" fill="#343A40"/>
</svg>
