<svg width="24" height="24" viewBox="0 0 24 24" fill="none" xmlns="http://www.w3.org/2000/svg">
<path d="M21.7014 12.3435C21.8494 12.8247 22.2929 13.1779 22.8221 13.1779C23.4715 13.1779 24 12.6494 24 12C24 11.3506 23.4715 10.8221 22.8221 10.8221C22.2931 10.8221 21.8496 11.1753 21.7014 11.6565H17.9808V9.94204H19.8451C20.0348 9.94204 20.1887 9.78817 20.1887 9.59852V7.54055H21.7014C21.8494 8.02175 22.2929 8.3749 22.8221 8.3749C23.4715 8.3749 24 7.84642 24 7.19703C24 6.54764 23.4715 6.01917 22.8221 6.01917C22.2931 6.01917 21.8496 6.37229 21.7014 6.85331H19.8449C19.6553 6.85331 19.5014 7.00718 19.5014 7.19684V9.2548H17.9806V7.81629C17.9806 6.82525 17.1743 6.01921 16.1835 6.01921H14.745V4.4984H16.803C16.9926 4.4984 17.1465 4.34453 17.1465 4.15488V2.29865C17.6277 2.15061 17.9808 1.70706 17.9808 1.17787C17.9808 0.528472 17.4524 0 16.803 0C16.1536 0 15.6251 0.528472 15.6251 1.17787C15.6251 1.70692 15.9782 2.15044 16.4595 2.29865V3.81136H14.4015C14.2118 3.81136 14.058 3.96523 14.058 4.15488V6.01902H12.3435V2.29865C12.8247 2.15061 13.1779 1.70706 13.1779 1.17787C13.1779 0.528472 12.6494 0 12 0C11.3506 0 10.8221 0.528472 10.8221 1.17787C10.8221 1.70711 11.1753 2.15044 11.6565 2.29865V6.01921H9.94204V4.15488C9.94204 3.96523 9.78817 3.81136 9.59852 3.81136H7.54056V2.29865C8.02175 2.15061 8.3749 1.70706 8.3749 1.17787C8.3749 0.528472 7.84643 0 7.19703 0C6.54764 0 6.01917 0.528472 6.01917 1.17787C6.01917 1.70692 6.3723 2.15044 6.85351 2.29865V4.15488C6.85351 4.34453 7.00738 4.4984 7.19703 4.4984H9.25499V6.01921H7.81648C6.82545 6.01921 6.01941 6.82549 6.01941 7.81629V9.2548L4.4984 9.25499V7.19703C4.4984 7.00737 4.34453 6.8535 4.15488 6.8535H2.29845C2.15023 6.3723 1.70687 6.01935 1.17787 6.01935C0.528472 6.01917 0 6.54763 0 7.19703C0 7.84642 0.528472 8.37489 1.17787 8.37489C1.70711 8.37489 2.15044 8.02176 2.29865 7.54055H3.81136V9.59851C3.81136 9.78817 3.96523 9.94204 4.15488 9.94204H6.01921V11.6565H2.29865C2.15061 11.1753 1.70706 10.8221 1.17787 10.8221C0.528472 10.8221 0 11.3506 0 12C0 12.6494 0.528472 13.1779 1.17787 13.1779C1.70711 13.1779 2.15044 12.8247 2.29865 12.3435H6.01921V14.058H4.15488C3.96523 14.058 3.81136 14.2118 3.81136 14.4015V16.4594H2.29845C2.15042 15.9782 1.70687 15.6253 1.17767 15.6253C0.528473 15.6251 0 16.1536 0 16.803C0 17.4524 0.528472 17.9808 1.17787 17.9808C1.70711 17.9808 2.15044 17.6277 2.29865 17.1465H4.15507C4.34473 17.1465 4.4986 16.9926 4.4986 16.803V14.745H6.01941V16.1835C6.01941 17.1744 6.82569 17.9806 7.81648 17.9806H9.25499V19.5014H7.19703C7.00738 19.5014 6.85351 19.6553 6.85351 19.8449V21.7012C6.37231 21.8492 6.01917 22.2927 6.01917 22.8219C6.01917 23.4715 6.54764 24 7.19703 24C7.84643 24 8.3749 23.4715 8.3749 22.8221C8.3749 22.2931 8.02177 21.8496 7.54056 21.7014V20.1886H9.59852C9.78817 20.1886 9.94204 20.0348 9.94204 19.8451V17.9808H11.6565V21.7015C11.1753 21.8496 10.8221 22.2931 10.8221 22.8223C10.8221 23.4715 11.3506 24 12 24C12.6494 24 13.1779 23.4715 13.1779 22.8221C13.1779 22.2931 12.8247 21.8496 12.3435 21.7014V17.9808H14.058V19.8451C14.058 20.0348 14.2118 20.1886 14.4015 20.1886H16.4595V21.7014C15.9783 21.8494 15.6251 22.2929 15.6251 22.8221C15.6251 23.4715 16.1536 24 16.803 24C17.4524 24 17.9808 23.4715 17.9808 22.8221C17.9808 22.2929 17.6277 21.8496 17.1465 21.7014V19.8451C17.1465 19.6555 16.9926 19.5016 16.803 19.5016H14.745V17.9808H16.1835C17.1744 17.9808 17.9806 17.1745 17.9806 16.1837V14.7452H19.5014V16.8032C19.5014 16.9928 19.6553 17.1467 19.8449 17.1467H21.7012C21.8492 17.6279 22.2928 17.981 22.8219 17.981C23.4715 17.9808 24 17.4524 24 16.803C24 16.1536 23.4715 15.6251 22.8221 15.6251C22.2931 15.6251 21.8496 15.9782 21.7014 16.4593H20.1887V14.4013C20.1887 14.2116 20.0348 14.0578 19.8451 14.0578H17.9808V12.3433L21.7014 12.3435ZM22.8221 11.5092C23.0928 11.5092 23.313 11.7293 23.313 12C23.313 12.2707 23.0928 12.4908 22.8221 12.4908C22.5515 12.4908 22.3313 12.2707 22.3313 12C22.3313 11.7293 22.5515 11.5092 22.8221 11.5092ZM22.8221 6.70626C23.0928 6.70626 23.313 6.92643 23.313 7.19708C23.313 7.46772 23.0928 7.6879 22.8221 7.6879C22.5515 7.6879 22.3313 7.46773 22.3313 7.19708C22.3313 6.92644 22.5515 6.70626 22.8221 6.70626ZM16.3123 1.17806C16.3123 0.907419 16.5325 0.687241 16.8031 0.687241C17.0738 0.687241 17.2939 0.907405 17.2939 1.17806C17.2939 1.4487 17.0738 1.66888 16.8031 1.66888C16.5325 1.66888 16.3123 1.44871 16.3123 1.17806ZM11.5094 1.17806C11.5094 0.907419 11.7295 0.687241 12.0002 0.687241C12.2708 0.687241 12.491 0.907405 12.491 1.17806C12.491 1.4487 12.2708 1.66888 12.0002 1.66888C11.7295 1.66888 11.5094 1.44871 11.5094 1.17806ZM6.70645 1.17806C6.70645 0.907419 6.92662 0.687241 7.19727 0.687241C7.46791 0.687241 7.68809 0.907405 7.68809 1.17806C7.68809 1.4487 7.46793 1.66888 7.19727 1.66888C6.92663 1.66888 6.70645 1.44871 6.70645 1.17806ZM1.17825 7.6879C0.907612 7.6879 0.687434 7.46773 0.687434 7.19708C0.687434 6.92644 0.907598 6.70626 1.17825 6.70626C1.44889 6.70626 1.66907 6.92643 1.66907 7.19708C1.66907 7.46772 1.4489 7.6879 1.17825 7.6879ZM1.17825 12.4908C0.907612 12.4908 0.687434 12.2707 0.687434 12C0.687434 11.7293 0.907598 11.5092 1.17825 11.5092C1.44889 11.5092 1.66907 11.7293 1.66907 12C1.66907 12.2707 1.4489 12.4908 1.17825 12.4908ZM1.17825 17.2937C0.907612 17.2937 0.687434 17.0736 0.687434 16.8029C0.687434 16.5323 0.907598 16.3121 1.17825 16.3121C1.44889 16.3121 1.66907 16.5323 1.66907 16.8029C1.66907 17.0736 1.4489 17.2937 1.17825 17.2937ZM7.68809 22.8219C7.68809 23.0926 7.46793 23.3128 7.19727 23.3128C6.92663 23.3128 6.70645 23.0926 6.70645 22.8219C6.70645 22.5513 6.92662 22.3311 7.19727 22.3311C7.46791 22.3311 7.68809 22.5513 7.68809 22.8219ZM12.491 22.8219C12.491 23.0926 12.2708 23.3128 12.0002 23.3128C11.7295 23.3128 11.5094 23.0926 11.5094 22.8219C11.5094 22.5513 11.7295 22.3311 12.0002 22.3311C12.2708 22.3311 12.491 22.5513 12.491 22.8219ZM17.2939 22.8219C17.2939 23.0926 17.0738 23.3128 16.8031 23.3128C16.5325 23.3128 16.3123 23.0926 16.3123 22.8219C16.3123 22.5513 16.5325 22.3311 16.8031 22.3311C17.0738 22.3311 17.2939 22.5513 17.2939 22.8219ZM22.8221 16.3121C23.0928 16.3121 23.313 16.5323 23.313 16.8029C23.313 17.0736 23.0928 17.2937 22.8221 17.2937C22.5515 17.2937 22.3313 17.0736 22.3313 16.8029C22.3313 16.5323 22.5515 16.3121 22.8221 16.3121ZM17.2939 16.1837C17.2939 16.7957 16.796 17.2937 16.1839 17.2937H14.7454V14.7161C14.7454 14.5265 14.5915 14.3726 14.4019 14.3726H12.2494C12.1013 13.8914 11.6578 13.5383 11.1286 13.5383C10.4792 13.5383 9.95072 14.0667 9.95072 14.7161C9.95072 15.3655 10.4792 15.894 11.1286 15.894C11.6576 15.894 12.1012 15.5409 12.2494 15.0596H14.0584V17.2937H7.81658C7.2045 17.2937 6.70655 16.7957 6.70655 16.1837V12.3435H8.26314C8.41117 12.8247 8.85472 13.1779 9.38392 13.1779C10.0333 13.1779 10.5618 12.6494 10.5618 12C10.5618 11.3506 10.0333 10.8221 9.38392 10.8221C8.85487 10.8221 8.41135 11.1753 8.26314 11.6565H6.70636V7.81648C6.70636 7.2044 7.20431 6.70645 7.81639 6.70645H9.2549V9.06536C9.2549 9.25502 9.40877 9.40889 9.59842 9.40889H11.7509C11.899 9.89008 12.3425 10.2432 12.8717 10.2432C13.5211 10.2432 14.0496 9.71476 14.0496 9.06536C14.0496 8.41597 13.5211 7.8875 12.8717 7.8875C12.3427 7.8875 11.8991 8.24063 11.7509 8.72184H9.94194V6.70645H16.1837C16.7958 6.70645 17.2937 7.2044 17.2937 7.81648V11.6566H15.6722C15.5241 11.1754 15.0806 10.8223 14.5514 10.8223C13.902 10.8223 13.3735 11.3507 13.3735 12.0001C13.3735 12.6495 13.902 13.178 14.5514 13.178C15.0806 13.178 15.524 12.8249 15.6722 12.3437H17.2937L17.2939 16.1837ZM11.6192 14.716C11.6192 14.9866 11.399 15.2068 11.1283 15.2068C10.8577 15.2068 10.6375 14.9866 10.6375 14.716C10.6375 14.4453 10.8577 14.2252 11.1283 14.2252C11.399 14.2254 11.6192 14.4455 11.6192 14.716ZM8.893 12C8.893 11.7294 9.11317 11.5092 9.38382 11.5092C9.65447 11.5092 9.87464 11.7293 9.87464 12C9.87464 12.2707 9.65447 12.4908 9.38382 12.4908C9.11317 12.4908 8.893 12.2707 8.893 12ZM12.3812 9.06517C12.3812 8.79453 12.6013 8.57435 12.872 8.57435C13.1427 8.57435 13.3628 8.79452 13.3628 9.06517C13.3628 9.33581 13.1427 9.55599 12.872 9.55599C12.6013 9.55599 12.3812 9.33582 12.3812 9.06517ZM15.0423 12C15.0423 12.2706 14.8222 12.4908 14.5515 12.4908C14.2809 12.4908 14.0607 12.2707 14.0607 12C14.0607 11.7293 14.2809 11.5092 14.5515 11.5092C14.8222 11.5092 15.0423 11.7293 15.0423 12Z" fill="#343A40"/>
</svg>
