<svg width="20" height="20" viewBox="0 0 20 20" fill="none" xmlns="http://www.w3.org/2000/svg">
<path d="M12.1213 12.1216C10.9497 13.2931 9.05025 13.2931 7.87868 12.1216M12.1213 12.1216C13.2929 10.95 13.2929 9.05048 12.1213 7.87891M12.1213 12.1216L15.3033 15.3035M7.87868 12.1216C6.70711 10.95 6.70711 9.05048 7.87868 7.87891M7.87868 12.1216L4.6967 15.3035M7.87868 7.87891C9.05025 6.70734 10.9497 6.70734 12.1213 7.87891M7.87868 7.87891L4.6967 4.69693M12.1213 7.87891L15.3033 4.69693M15.6569 15.6571C12.5327 18.7813 7.46734 18.7813 4.34315 15.6571C1.21895 12.5329 1.21895 7.46757 4.34315 4.34338C7.46734 1.21918 12.5327 1.21918 15.6569 4.34338C18.781 7.46757 18.781 12.5329 15.6569 15.6571Z" stroke="white" stroke-width="2" stroke-linecap="round" stroke-linejoin="round"/>
</svg>
