<svg width="15" height="20" viewBox="0 0 15 20" fill="none" xmlns="http://www.w3.org/2000/svg">
<g id="Group 427319119">
<path id="Vector" d="M2.21255 19H11.3795C12.0487 19 12.592 18.4584 12.592 17.794V17.2311H13.1615C13.8307 17.2311 14.374 16.6895 14.374 16.0251C14.374 4.95345 14.3936 5.02873 14.3396 4.93709C14.302 4.87164 10.378 1 10.4484 1.06382C10.4107 1.02945 10.3649 1.00982 10.3142 1.00327L3.99455 1C3.32527 1 2.78036 1.54164 2.78036 2.206V2.76727H2.21418C1.54491 2.76727 1 3.30891 1 3.97491V17.794C1 18.4584 1.54491 19 2.21418 19H2.21255ZM10.5302 1.83455C13.528 4.80945 13.5493 4.81436 13.5313 4.81436H11.4482C10.9409 4.81436 10.5285 4.40527 10.5285 3.90291V1.83455H10.5302ZM3.26964 2.206C3.26964 1.81164 3.59364 1.49091 3.99291 1.49091H10.0376V3.90455C10.0376 4.67691 10.6709 5.30691 11.4482 5.30691H13.8815V16.0251C13.8815 16.4195 13.5575 16.7402 13.1598 16.7402H3.99455C3.59527 16.7402 3.27127 16.4195 3.27127 16.0251V2.206H3.26964ZM1.48764 3.97491C1.48764 3.57891 1.81164 3.25818 2.21091 3.25818H2.77709V16.0251C2.77709 16.6895 3.322 17.2311 3.99127 17.2311H12.0978V17.794C12.0978 18.1884 11.7738 18.5091 11.3762 18.5091H2.21255C1.81327 18.5091 1.48927 18.1884 1.48927 17.794V3.97491H1.48764Z" fill="#284E93" stroke="#284E93" stroke-width="0.5"/>
<path id="Vector_2" d="M5.52284 14.2136H11.6314C11.8212 14.2136 11.975 14.0614 11.975 13.8732C11.975 13.6851 11.8212 13.5329 11.6314 13.5329H5.52284C5.33302 13.5329 5.1792 13.6851 5.1792 13.8732C5.1792 14.0614 5.33302 14.2136 5.52284 14.2136Z" fill="#284E93"/>
<path id="Vector_3" d="M5.52284 11.836H11.6314C11.8212 11.836 11.975 11.6838 11.975 11.4956C11.975 11.3074 11.8212 11.1553 11.6314 11.1553H5.52284C5.33302 11.1553 5.1792 11.3074 5.1792 11.4956C5.1792 11.6838 5.33302 11.836 5.52284 11.836Z" fill="#284E93"/>
<path id="Vector_4" d="M5.52284 9.45671H11.6314C11.8212 9.45671 11.975 9.30453 11.975 9.11635C11.975 8.92817 11.8212 8.77599 11.6314 8.77599H5.52284C5.33302 8.77599 5.1792 8.92817 5.1792 9.11635C5.1792 9.30453 5.33302 9.45671 5.52284 9.45671Z" fill="#284E93"/>
<path id="Vector_5" d="M5.52284 7.07909H11.6314C11.8212 7.07909 11.975 6.92691 11.975 6.73872C11.975 6.55054 11.8212 6.39836 11.6314 6.39836H5.52284C5.33302 6.39836 5.1792 6.55054 5.1792 6.73872C5.1792 6.92691 5.33302 7.07909 5.52284 7.07909Z" fill="#284E93"/>
<path id="Vector_6" d="M5.52284 4.69982H7.9512C8.14102 4.69982 8.29484 4.54763 8.29484 4.35945C8.29484 4.17127 8.14102 4.01909 7.9512 4.01909H5.52284C5.33302 4.01909 5.1792 4.17127 5.1792 4.35945C5.1792 4.54763 5.33302 4.69982 5.52284 4.69982Z" fill="#284E93"/>
</g>
</svg>
