<svg width="18" height="19" viewBox="0 0 18 19" fill="none" xmlns="http://www.w3.org/2000/svg">
<g id="Group">
<path id="Vector" d="M12.7543 9.36896V1.64104C12.7543 1.28687 12.4674 1 12.1132 1H1.19781C0.843639 1 0.553223 1.28687 0.553223 1.64104V17.359C0.553223 17.7131 0.843639 18 1.19781 18H12.1132C12.2124 18 12.3045 17.9787 12.3859 17.9362" stroke="#E87B1E" stroke-width="0.708333" stroke-miterlimit="10" stroke-linecap="round" stroke-linejoin="round"/>
<path id="Vector_2" d="M2.09448 3.51412H11.2143" stroke="#E87B1E" stroke-width="0.708333" stroke-miterlimit="10" stroke-linecap="round" stroke-linejoin="round"/>
<path id="Vector_3" d="M2.09448 5.9718H11.2143" stroke="#E87B1E" stroke-width="0.708333" stroke-miterlimit="10" stroke-linecap="round" stroke-linejoin="round"/>
<path id="Vector_4" d="M2.09448 8.42948H11.2143" stroke="#E87B1E" stroke-width="0.708333" stroke-miterlimit="10" stroke-linecap="round" stroke-linejoin="round"/>
<path id="Vector_5" d="M7.24269 10.8883H2.09399" stroke="#E87B1E" stroke-width="0.708333" stroke-miterlimit="10" stroke-linecap="round" stroke-linejoin="round"/>
<path id="Vector_6" d="M13.1233 18C15.5113 18 17.4471 16.0642 17.4471 13.6762C17.4471 11.2882 15.5113 9.35242 13.1233 9.35242C10.7354 9.35242 8.79956 11.2882 8.79956 13.6762C8.79956 16.0642 10.7354 18 13.1233 18Z" stroke="#E87B1E" stroke-width="0.708333" stroke-miterlimit="10" stroke-linecap="round" stroke-linejoin="round"/>
<g id="Group_2">
<path id="Vector_7" d="M13.1232 14.5616C13.6122 14.5616 14.0086 14.1652 14.0086 13.6762C14.0086 13.1872 13.6122 12.7908 13.1232 12.7908C12.6342 12.7908 12.2378 13.1872 12.2378 13.6762C12.2378 14.1652 12.6342 14.5616 13.1232 14.5616Z" stroke="#E87B1E" stroke-width="0.708333" stroke-miterlimit="10" stroke-linecap="round" stroke-linejoin="round"/>
<path id="Vector_8" d="M13.1226 12.7902V10.8884" stroke="#E87B1E" stroke-width="0.708333" stroke-miterlimit="10" stroke-linecap="round" stroke-linejoin="round"/>
<path id="Vector_9" d="M12.2372 13.6756H10.8206" stroke="#E87B1E" stroke-width="0.708333" stroke-miterlimit="10" stroke-linecap="round" stroke-linejoin="round"/>
</g>
</g>
</svg>
