<svg width="16" height="16" viewBox="0 0 16 16" fill="none" xmlns="http://www.w3.org/2000/svg">
<path d="M0.65625 16H4C4.4375 16 4.65625 15.7812 4.65625 15.3438C4.65625 14.8854 4.4375 14.6562 4 14.6562H2.28125L6.46875 10.4688C6.73958 10.1562 6.73958 9.84375 6.46875 9.53125C6.15625 9.26042 5.84375 9.26042 5.53125 9.53125L1.34375 13.7188V12C1.34375 11.5625 1.11458 11.3438 0.65625 11.3438C0.21875 11.3438 0 11.5625 0 12V15.3438C0 15.5312 0.0625 15.6875 0.1875 15.8125C0.3125 15.9375 0.46875 16 0.65625 16ZM15.3438 11.3438C14.8854 11.3438 14.6562 11.5625 14.6562 12V13.7188L10.4688 9.53125C10.1562 9.26042 9.84375 9.26042 9.53125 9.53125C9.26042 9.84375 9.26042 10.1562 9.53125 10.4688L13.7188 14.6562H12C11.5625 14.6562 11.3438 14.8854 11.3438 15.3438C11.3438 15.7812 11.5625 16 12 16H15.3438C15.5312 16 15.6875 15.9375 15.8125 15.8125C15.9375 15.6875 16 15.5312 16 15.3438V12C16 11.5625 15.7812 11.3438 15.3438 11.3438ZM15.3438 0H12C11.5625 0 11.3438 0.21875 11.3438 0.65625C11.3438 1.11458 11.5625 1.34375 12 1.34375H13.7188L9.53125 5.53125C9.26042 5.84375 9.26042 6.15625 9.53125 6.46875C9.65625 6.59375 9.8125 6.65625 10 6.65625C10.1875 6.65625 10.3438 6.59375 10.4688 6.46875L14.6562 2.28125V4C14.6562 4.4375 14.8854 4.65625 15.3438 4.65625C15.7812 4.65625 16 4.4375 16 4V0.65625C16 0.46875 15.9375 0.3125 15.8125 0.1875C15.6875 0.0625 15.5312 0 15.3438 0ZM0.65625 4.65625C1.11458 4.65625 1.34375 4.4375 1.34375 4V2.28125L5.53125 6.46875C5.65625 6.59375 5.8125 6.65625 6 6.65625C6.1875 6.65625 6.34375 6.59375 6.46875 6.46875C6.73958 6.15625 6.73958 5.84375 6.46875 5.53125L2.28125 1.34375H4C4.4375 1.34375 4.65625 1.11458 4.65625 0.65625C4.65625 0.21875 4.4375 0 4 0H0.65625C0.46875 0 0.3125 0.0625 0.1875 0.1875C0.0625 0.3125 0 0.46875 0 0.65625V4C0 4.4375 0.21875 4.65625 0.65625 4.65625Z" fill="white"/>
</svg>
