<svg width="176" height="39" viewBox="0 0 176 39" fill="none" xmlns="http://www.w3.org/2000/svg">
<path fill-rule="evenodd" clip-rule="evenodd" d="M95.6755 0.123154H89.0358L77.3623 31.3114H83.145L91.4058 9.20085L92.3613 9.29411L102.981 38.9369H109.629L95.6755 0.123154Z" fill="#284E93"/>
<path fill-rule="evenodd" clip-rule="evenodd" d="M24.0727 0.164768L24.0439 28.1423L5.82996 0.14978H0.0128149L0 31.358H5.00741L4.98978 10.2916H5.81394L24.0855 38.9994H29.8915L29.8746 0.166434L24.0727 0.164768Z" fill="#284E93"/>
<path fill-rule="evenodd" clip-rule="evenodd" d="M44.0157 0.123154L32.3469 31.3114H38.128L46.3888 9.20085L47.3427 9.29411L57.971 38.9369H64.6099L50.6634 0.123154H44.0157Z" fill="#284E93"/>
<path fill-rule="evenodd" clip-rule="evenodd" d="M77.9945 0.123154L69.9243 17.8914H68.8831L61.2943 0.123154H55.5044L67.27 24.6468V38.9353H72.1132V24.5543L83.7788 0.123154H77.9945Z" fill="#284E93"/>
<path fill-rule="evenodd" clip-rule="evenodd" d="M135.975 0.123234H130.278L124.832 8.59559H120.341V10.1277H123.848L111.581 29.1865C111.321 29.6342 111.089 30.0983 110.886 30.5762C106.215 27.7252 94.761 25.9583 91.1881 25.9241C87.2635 25.8958 74.4439 27.2414 71.5437 31.1483C77.5963 29.3997 84.4627 27.935 90.8701 28.1124C97.4505 28.2906 104.253 29.8385 110.567 31.4306C108.484 37.5831 113.29 41.3517 118.879 37.3425C121.896 35.0401 124.385 32.3981 128.571 28.0275C128.531 32.5788 130.437 37.2159 132.735 38.0652C142.291 41.0437 148.644 29.7003 155.137 23.7742C153.61 26.1524 152.368 28.7147 151.437 31.4047C150.028 36.2342 152.725 40.838 158.838 37.1959C162.598 34.502 166.088 31.4205 169.254 27.9983L169.263 27.1698C165.405 30.4863 157.763 38.3025 154.353 36.7396C150.824 34.5064 166 17.436 175.925 0H171.068C163.257 12.5907 146.225 33.5322 138.343 36.6164C132.297 38.992 132.308 30.7294 133.605 30.5379C140.678 29.3181 145.309 26.7968 148.838 22.4753C151.017 17.7182 148.241 15.0362 142.198 15.7765C129.832 19.4835 121.494 36.1134 115.189 36.9211C113.131 37.1476 113.07 34.5422 114.43 32.8694L129.389 10.1327H139.249V8.60058H130.399L135.975 0.123234ZM134.086 28.9334C137.382 20.0031 145.439 15.361 146.314 18.3444C147.564 22.6643 141.159 26.5212 134.086 28.9359V28.9334Z" fill="#E87B1E"/>
</svg>
