<svg width="26" height="24" viewBox="0 0 26 24" fill="none" xmlns="http://www.w3.org/2000/svg">
<path d="M8.58984 14.4727H9.20612V16.6352H8.58984V14.4727Z" fill="#343A40"/>
<path d="M8.58984 18.0352H9.20612V18.6486H8.58984V18.0352Z" fill="#343A40"/>
<path d="M18.4669 11.7384V10.0695C18.4669 9.27682 17.8091 8.6318 17.0004 8.6318H16.8662V7.29853C17.2543 7.17023 17.536 6.81425 17.536 6.3913C17.536 5.86093 17.096 5.42996 16.5551 5.42996C16.0147 5.42996 15.5748 5.86121 15.5748 6.3913C15.5748 6.81637 15.8594 7.1737 16.2501 7.30028V8.6318H15.2585L15.2586 4.29877C15.6486 4.17181 15.9327 3.8149 15.9327 3.39061C15.9327 2.86025 15.4927 2.42927 14.9524 2.42927C14.4113 2.42927 13.9716 2.86052 13.9716 3.39061C13.9716 3.81383 14.254 4.16993 14.6425 4.29785V8.6319H13.6562V5.64102C14.0461 5.51379 14.3295 5.15715 14.3295 4.73286C14.3295 4.2025 13.8895 3.77153 13.3486 3.77153C12.8075 3.77153 12.3677 4.20277 12.3677 4.73286C12.3677 5.15674 12.6509 5.51314 13.0399 5.64075V8.63204H12.0541V3.8701C12.443 3.74246 12.7256 3.38609 12.7256 2.96231C12.7256 2.43195 12.2856 2.00098 11.7448 2.00098C11.2039 2.00098 10.7639 2.43222 10.7639 2.96231C10.7639 3.38687 11.0477 3.74379 11.438 3.87061V8.63153H10.4517V6.90774C10.8399 6.77971 11.1221 6.42346 11.1221 6.00037C11.1221 5.47042 10.6821 5.03917 10.1412 5.03917C9.60037 5.03917 9.16037 5.47042 9.16037 6.00037C9.16037 6.42534 9.44487 6.78239 9.83569 6.90908V8.63125H9.69658C8.88777 8.63125 8.22952 9.27613 8.22952 10.069V11.7379H6.9375V21.0941H7.55377V12.342H19.1432V21.0945H19.7595V11.7382L18.4669 11.7384ZM16.5552 6.03431C16.7562 6.03431 16.92 6.19476 16.92 6.39178C16.92 6.58879 16.7563 6.74924 16.5552 6.74924C16.3542 6.74924 16.1912 6.58879 16.1912 6.39178C16.1911 6.19463 16.3542 6.03431 16.5552 6.03431ZM14.952 3.03298C15.153 3.03298 15.316 3.19342 15.316 3.39044C15.316 3.58745 15.153 3.74749 14.952 3.74749C14.7509 3.74749 14.5872 3.58731 14.5872 3.39044C14.5872 3.19356 14.7509 3.03298 14.952 3.03298ZM13.3484 4.37547C13.5494 4.37547 13.7131 4.53591 13.7131 4.73293C13.7131 4.92994 13.5494 5.09039 13.3484 5.09039C13.1474 5.09039 12.9837 4.92995 12.9837 4.73293C12.9837 4.53592 13.1474 4.37547 13.3484 4.37547ZM11.7445 2.60519C11.9456 2.60519 12.1093 2.76564 12.1093 2.96266C12.1093 3.15967 11.9456 3.32012 11.7445 3.32012C11.5435 3.32012 11.3798 3.15967 11.3798 2.96266C11.3798 2.76578 11.5435 2.60519 11.7445 2.60519ZM10.1407 5.64377C10.3417 5.64377 10.5054 5.80394 10.5054 6.00082C10.5054 6.19783 10.3417 6.35828 10.1407 6.35828C9.93968 6.35828 9.77598 6.19783 9.77598 6.00082C9.77611 5.80394 9.93968 5.64377 10.1407 5.64377ZM8.84529 10.0697C8.84529 9.60994 9.22694 9.23602 9.69632 9.23602H17.0005C17.4694 9.23602 17.8509 9.61007 17.8509 10.0697V11.7386H8.84518L8.84529 10.0697Z" fill="#343A40"/>
</svg>
