<svg width="24" height="24" viewBox="0 0 24 24" fill="none" xmlns="http://www.w3.org/2000/svg">
<path d="M18.5875 15.7023C17.9155 15.5487 17.3779 15.0879 17.1284 14.4544L16.9747 9.50079C16.9747 7.46563 15.7268 5.64159 13.8451 4.89279C13.5763 4.10556 12.8467 3.54883 12.0018 3.54883C11.157 3.54883 10.4082 4.10556 10.1586 4.89279C8.27701 5.64159 7.04821 7.46556 7.04821 9.50079L6.91374 14.4736C6.6641 15.1072 6.10734 15.5681 5.43531 15.7215C4.97447 15.8176 4.62891 16.2591 4.62891 16.7391C4.62891 17.3152 5.10891 17.7952 5.68494 17.7952H9.73614C9.71712 17.9105 9.69797 18.0257 9.69797 18.1408C9.69797 19.4081 10.7347 20.4448 12.0019 20.4448C13.2692 20.4448 14.3059 19.4081 14.3059 18.1408C14.3059 18.0257 14.2867 17.8912 14.2675 17.776H18.3187C18.8947 17.776 19.3747 17.296 19.3747 16.72C19.3747 16.2401 19.0483 15.8177 18.5875 15.7024L18.5875 15.7023ZM13.5571 18.1408C13.5571 19.0047 12.8659 19.6959 12.002 19.6959C11.138 19.6959 10.4468 19.0047 10.4468 18.1408C10.4468 18.0256 10.4659 17.8911 10.4852 17.7759H13.5188C13.538 17.9104 13.5571 18.0256 13.5571 18.1408ZM18.6451 16.7392C18.6451 16.912 18.5107 17.0464 18.3379 17.0464H5.68509C5.51233 17.0464 5.37786 16.912 5.37786 16.7392C5.37786 16.5856 5.47389 16.4704 5.60822 16.432C6.52979 16.2208 7.29786 15.568 7.62426 14.6656C7.64341 14.6271 7.64341 14.5888 7.64341 14.5504L7.77787 9.50078C7.77787 7.71525 8.91064 6.12162 10.5811 5.52638C10.6963 5.48795 10.7924 5.37277 10.8115 5.25759C10.9267 4.70086 11.426 4.29759 11.9827 4.29759C12.5394 4.29759 13.0387 4.70086 13.1539 5.25759C13.1731 5.39206 13.2691 5.48795 13.3843 5.52638C15.0931 6.12169 16.2258 7.71532 16.2258 9.51998L16.3794 14.5504C16.3794 14.5888 16.3794 14.6271 16.3986 14.6656C16.725 15.5488 17.4738 16.2207 18.4146 16.432C18.5491 16.4513 18.6451 16.5856 18.6451 16.7392Z" fill="black"/>
</svg>
