<svg width="26" height="24" viewBox="0 0 26 24" fill="none" xmlns="http://www.w3.org/2000/svg">
<path d="M13.8257 11.9149C13.3291 11.9149 12.8528 11.7216 12.5016 11.3773C12.1505 11.0331 11.9531 10.5663 11.9531 10.0795C11.9531 9.5927 12.1505 9.12594 12.5016 8.78168C12.8528 8.43758 13.3291 8.24414 13.8257 8.24414C14.3224 8.24414 14.7987 8.43759 15.1499 8.78168C15.501 9.12595 15.6984 9.5927 15.6984 10.0795C15.6977 10.5661 15.5003 11.0326 15.1493 11.3767C14.7982 11.7208 14.3223 11.9143 13.8257 11.9149L13.8257 11.9149ZM13.8257 8.95681C13.5219 8.95681 13.2305 9.07516 13.0158 9.28564C12.8011 9.49627 12.6803 9.78184 12.6803 10.0795C12.6803 10.3773 12.8011 10.6628 13.0158 10.8733C13.2305 11.0839 13.5219 11.2021 13.8257 11.2021C14.1296 11.2021 14.421 11.0839 14.6357 10.8733C14.8504 10.6628 14.9712 10.3773 14.9712 10.0795C14.9709 9.78182 14.8501 9.49643 14.6354 9.28596C14.4206 9.07549 14.1294 8.95712 13.8257 8.95681Z" fill="#343A40"/>
<path d="M16.2945 16.1122H11.356C11.1552 16.1122 10.9924 15.9526 10.9924 15.7558V13.6342C10.9869 13.3239 11.1071 13.024 11.3267 12.8005C11.5465 12.5768 11.8476 12.4478 12.1643 12.4414H15.4862C15.8029 12.4478 16.104 12.5768 16.3238 12.8005C16.5434 13.024 16.6637 13.3239 16.6581 13.6342V15.7558C16.6581 15.9526 16.4953 16.1122 16.2945 16.1122ZM11.7195 15.3995H15.9309V13.6342C15.9425 13.3816 15.7438 13.1672 15.4862 13.1541H12.1642C11.9067 13.1672 11.708 13.3816 11.7195 13.6342L11.7195 15.3995Z" fill="#343A40"/>
<path d="M21.6447 5.34036C21.2168 5.34036 20.8063 5.1738 20.5037 4.87726C20.2012 4.58073 20.0312 4.1784 20.0312 3.75905C20.0312 3.33969 20.2012 2.93752 20.5037 2.64099C20.8063 2.3443 21.2168 2.17773 21.6447 2.17773C22.0725 2.17773 22.483 2.3443 22.7856 2.64099C23.0881 2.93753 23.2581 3.33969 23.2581 3.75905C23.2576 4.1784 23.0875 4.58025 22.7849 4.87661C22.4825 5.17315 22.0724 5.33987 21.6447 5.34036ZM21.6447 2.89044C21.4096 2.89044 21.1842 2.98192 21.018 3.14482C20.8518 3.30772 20.7584 3.5287 20.7584 3.75905C20.7584 3.98941 20.8518 4.21038 21.018 4.37328C21.1842 4.53619 21.4096 4.62766 21.6447 4.62766C21.8797 4.62766 22.1052 4.53619 22.2714 4.37328C22.4376 4.21038 22.5309 3.98941 22.5309 3.75905C22.5307 3.52885 22.4373 3.30805 22.271 3.14515C22.105 2.98224 21.8797 2.89076 21.6447 2.89044Z" fill="#343A40"/>
<path d="M23.6885 8.81303H19.5981C19.3973 8.81303 19.2345 8.65346 19.2345 8.45667V6.69942C19.23 6.42612 19.3361 6.16233 19.5298 5.96554C19.7234 5.76891 19.9888 5.65564 20.2677 5.65039H23.0191H23.0189C23.2978 5.65564 23.5632 5.76891 23.7568 5.96554C23.9505 6.16233 24.0566 6.42611 24.0521 6.69942V8.45667C24.0521 8.55117 24.0138 8.64185 23.9456 8.70867C23.8774 8.77548 23.7849 8.81303 23.6885 8.81303ZM19.9617 8.10032H23.3249V6.69942C23.3343 6.52411 23.1978 6.37393 23.0189 6.36312H20.2677C20.0888 6.37394 19.9523 6.52411 19.9617 6.69942L19.9617 8.10032Z" fill="#343A40"/>
<path d="M6.00404 5.34036C5.57617 5.34036 5.16567 5.1738 4.86312 4.87726C4.56058 4.58073 4.39062 4.1784 4.39062 3.75905C4.39062 3.33969 4.56057 2.93752 4.86312 2.64099C5.16568 2.3443 5.57617 2.17773 6.00404 2.17773C6.43191 2.17773 6.84241 2.3443 7.14496 2.64099C7.44751 2.93753 7.61746 3.33969 7.61746 3.75905C7.61697 4.1784 7.44686 4.58025 7.14429 4.87661C6.8419 5.17315 6.43175 5.33987 6.00404 5.34036ZM6.00404 2.89044C5.76901 2.89044 5.54355 2.98192 5.37734 3.14482C5.21113 3.30772 5.1178 3.5287 5.1178 3.75905C5.1178 3.98941 5.21113 4.21038 5.37734 4.37328C5.54355 4.53619 5.76901 4.62766 6.00404 4.62766C6.23907 4.62766 6.46453 4.53619 6.63074 4.37328C6.79695 4.21038 6.89029 3.98941 6.89029 3.75905C6.89012 3.52885 6.79663 3.30805 6.63042 3.14515C6.46437 2.98224 6.23906 2.89076 6.00404 2.89044Z" fill="#343A40"/>
<path d="M8.05568 8.81303H3.96529C3.76451 8.81303 3.6017 8.65346 3.6017 8.45667V6.69942C3.59716 6.42612 3.70331 6.16233 3.89696 5.96554C4.0906 5.76891 4.35599 5.65564 4.63485 5.65039H7.38628H7.38612C7.66497 5.65564 7.93038 5.76891 8.12401 5.96554C8.31766 6.16233 8.42381 6.42611 8.41927 6.69942V8.45667C8.41927 8.55117 8.38096 8.64185 8.31279 8.70867C8.24462 8.77548 8.15209 8.81303 8.05568 8.81303ZM4.32888 8.10032H7.69209V6.69942C7.7015 6.52411 7.56499 6.37393 7.38612 6.36312H4.63486C4.45599 6.37394 4.31948 6.52411 4.32889 6.69942L4.32888 8.10032Z" fill="#343A40"/>
<path d="M21.6447 18.7036C21.2168 18.7036 20.8063 18.5371 20.5037 18.2405C20.2012 17.944 20.0312 17.5417 20.0312 17.1223C20.0312 16.703 20.2012 16.3008 20.5037 16.0043C20.8063 15.7076 21.2168 15.541 21.6447 15.541C22.0725 15.541 22.483 15.7076 22.7856 16.0043C23.0881 16.3008 23.2581 16.703 23.2581 17.1223C23.2576 17.5417 23.0875 17.9435 22.7849 18.2399C22.4825 18.5364 22.0724 18.7031 21.6447 18.7036ZM21.6447 16.2537C21.4096 16.2537 21.1842 16.3452 21.018 16.5081C20.8518 16.671 20.7584 16.892 20.7584 17.1223C20.7584 17.3527 20.8518 17.5737 21.018 17.7366C21.1842 17.8995 21.4096 17.9909 21.6447 17.9909C21.8797 17.9909 22.1052 17.8995 22.2714 17.7366C22.4376 17.5737 22.5309 17.3527 22.5309 17.1223C22.5307 16.8921 22.4373 16.6713 22.271 16.5084C22.105 16.3455 21.8797 16.254 21.6447 16.2537Z" fill="#343A40"/>
<path d="M23.6885 22.1763H19.5981C19.3973 22.1763 19.2345 22.0167 19.2345 21.82V20.0627C19.23 19.7894 19.3361 19.5256 19.5298 19.3288C19.7234 19.1322 19.9888 19.0189 20.2677 19.0137H23.0191H23.0189C23.2978 19.0189 23.5632 19.1322 23.7568 19.3288C23.9505 19.5256 24.0566 19.7894 24.0521 20.0627V21.82C24.0521 21.9145 24.0138 22.0051 23.9456 22.0719C23.8774 22.1388 23.7849 22.1763 23.6885 22.1763ZM19.9617 21.4636H23.3249V20.0627C23.3343 19.8874 23.1978 19.7372 23.0189 19.7264H20.2677C20.0888 19.7372 19.9523 19.8874 19.9617 20.0627L19.9617 21.4636Z" fill="#343A40"/>
<path d="M6.00404 18.7036C5.57617 18.7036 5.16567 18.5371 4.86312 18.2405C4.56058 17.944 4.39062 17.5417 4.39062 17.1223C4.39062 16.703 4.56057 16.3008 4.86312 16.0043C5.16568 15.7076 5.57617 15.541 6.00404 15.541C6.43191 15.541 6.84241 15.7076 7.14496 16.0043C7.44751 16.3008 7.61746 16.703 7.61746 17.1223C7.61697 17.5417 7.44686 17.9435 7.14429 18.2399C6.8419 18.5364 6.43175 18.7031 6.00404 18.7036ZM6.00404 16.2537C5.76901 16.2537 5.54355 16.3452 5.37734 16.5081C5.21113 16.671 5.1178 16.892 5.1178 17.1223C5.1178 17.3527 5.21113 17.5737 5.37734 17.7366C5.54355 17.8995 5.76901 17.9909 6.00404 17.9909C6.23907 17.9909 6.46453 17.8995 6.63074 17.7366C6.79695 17.5737 6.89029 17.3527 6.89029 17.1223C6.89012 16.8921 6.79663 16.6713 6.63042 16.5084C6.46437 16.3455 6.23906 16.254 6.00404 16.2537Z" fill="#343A40"/>
<path d="M8.05568 22.1763H3.96529C3.76451 22.1763 3.6017 22.0167 3.6017 21.82V20.0627C3.59716 19.7894 3.70331 19.5256 3.89696 19.3288C4.0906 19.1322 4.35599 19.0189 4.63485 19.0137H7.38628H7.38612C7.66497 19.0189 7.93038 19.1322 8.12401 19.3288C8.31766 19.5256 8.42381 19.7894 8.41927 20.0627V21.82C8.41927 21.9145 8.38096 22.0051 8.31279 22.0719C8.24462 22.1388 8.15209 22.1763 8.05568 22.1763ZM4.32888 21.4636H7.69209V20.0627C7.7015 19.8874 7.56499 19.7372 7.38612 19.7264H4.63486C4.45599 19.7372 4.31948 19.8874 4.32889 20.0627L4.32888 21.4636Z" fill="#343A40"/>
<path d="M13.8206 7.17333C13.6198 7.17333 13.457 7.01377 13.457 6.81698V3.7587C13.457 3.56191 13.6198 3.40234 13.8206 3.40234H17.7595C17.9603 3.40234 18.1231 3.56191 18.1231 3.7587C18.1231 3.95549 17.9603 4.11505 17.7595 4.11505H14.1842V6.81698C14.1842 7.01377 14.0214 7.17333 13.8206 7.17333Z" fill="#343A40"/>
<path d="M21.6416 14.6291C21.4409 14.6291 21.278 14.4695 21.278 14.2728V12.532H18.098C17.8972 12.532 17.7344 12.3725 17.7344 12.1757C17.7344 11.9789 17.8972 11.8193 18.098 11.8193H21.6416C21.7381 11.8193 21.8306 11.8569 21.8987 11.9237C21.9669 11.9905 22.0052 12.0812 22.0052 12.1757V14.2728C22.0052 14.4695 21.8424 14.6291 21.6416 14.6291Z" fill="#343A40"/>
<path d="M13.8299 20.9527H9.89093C9.69015 20.9527 9.52734 20.7933 9.52734 20.5964C9.52734 20.3996 9.69015 20.24 9.89093 20.24H13.4663V17.5351C13.4663 17.3383 13.6291 17.1787 13.8299 17.1787C14.0306 17.1787 14.1934 17.3383 14.1934 17.5351V20.5964C14.1934 20.691 14.1551 20.7815 14.087 20.8484C14.0188 20.9152 13.9263 20.9527 13.8299 20.9527Z" fill="#343A40"/>
<path d="M9.55196 12.5329H6.00812C5.80734 12.5329 5.64453 12.3733 5.64453 12.1765V10.0087C5.64453 9.81191 5.80734 9.65234 6.00812 9.65234C6.2089 9.65234 6.37171 9.81191 6.37171 10.0087V11.8202H9.55196C9.7529 11.8202 9.91555 11.9798 9.91555 12.1765C9.91555 12.3733 9.7529 12.5329 9.55196 12.5329Z" fill="#343A40"/>
</svg>
