<svg width="25" height="24" viewBox="0 0 25 24" fill="none" xmlns="http://www.w3.org/2000/svg">
<path fill-rule="evenodd" clip-rule="evenodd" d="M13.9554 5.89997C13.9147 5.44394 13.9214 4.97988 13.9789 4.51394C13.9905 4.42059 14.046 4.33809 14.1285 4.29068L18.0601 2.04068C18.1554 1.98644 18.2734 1.98644 18.3687 2.04068L22.3006 4.29068C22.3833 4.33809 22.4386 4.42059 22.4503 4.51394C22.761 7.03274 21.591 9.49428 19.4389 10.9333V14.0487C21.0294 14.3058 22.2917 15.6015 22.4754 17.178C22.7285 19.3551 20.997 21.1997 18.8265 21.1997C17.5213 21.1997 16.3772 20.5316 15.7261 19.5254C15.5589 19.2665 15.2734 19.104 14.9614 19.0997H4.44061C3.59517 19.0997 2.91016 18.428 2.91016 17.5997V7.39966C2.91016 6.57132 3.59517 5.89966 4.44061 5.89966H13.955L13.9554 5.89997ZM19.2548 14.6284C17.9904 14.4608 16.8514 15.0511 16.24 16.0015C15.9603 16.4359 15.4736 16.6999 14.949 16.6999H12.7775L11.7539 17.2015C11.5819 17.2854 11.3799 17.2854 11.2079 17.2015L10.2566 16.7353L9.30522 17.2015C9.13318 17.2854 8.93123 17.2854 8.75919 17.2015L7.89941 16.7803L7.2719 17.5999L7.96063 18.4999H14.9489C15.4757 18.4999 15.9615 18.7682 16.2437 19.2044C16.786 20.0429 17.7393 20.5999 18.8267 20.5999C20.6361 20.5999 22.0784 19.0609 21.8674 17.2459C21.7114 15.9058 20.6189 14.809 19.2546 14.6284H19.2548ZM21.2759 17.5999C21.2759 16.9375 20.7271 16.3999 20.0516 16.3999C19.3757 16.3999 18.8272 16.9375 18.8272 17.5999C18.8272 18.2623 19.3757 18.7999 20.0516 18.7999C20.7271 18.7999 21.2759 18.2623 21.2759 17.5999ZM14.9879 8.8999H3.52266V17.5999C3.52266 18.097 3.9337 18.4999 4.44093 18.4999H7.19547L6.78226 17.9596C6.61938 17.747 6.61938 17.4538 6.78199 17.2402L7.40974 16.4203C7.58724 16.1878 7.90893 16.1137 8.17318 16.2436C8.17318 16.2436 9.03202 16.6645 9.03146 16.6642C9.03201 16.6644 9.03269 16.6644 9.03242 16.6644L9.9828 16.1985C10.1554 16.1138 10.3581 16.1138 10.5303 16.1985H10.5306C10.5306 16.1985 11.481 16.6644 11.4801 16.664C11.4806 16.6643 11.4813 16.6643 11.481 16.6643C11.481 16.6643 12.5037 16.163 12.5027 16.1636C12.5881 16.1212 12.6821 16.0997 12.7772 16.0997H14.949C15.2633 16.0997 15.5547 15.9412 15.7222 15.6809C16.372 14.671 17.5186 13.9991 18.8272 13.9997V11.3018L18.3668 11.5601C18.2726 11.6129 18.1568 11.6129 18.0625 11.5601L17.4739 11.2299C16.4359 10.6473 15.5917 9.84089 14.9878 8.89978L14.9879 8.8999ZM20.6637 17.5999C20.6637 17.9311 20.3892 18.1999 20.0516 18.1999C19.7136 18.1999 19.4394 17.9311 19.4394 17.5999C19.4394 17.2687 19.7136 16.9999 20.0516 16.9999C20.3892 16.9999 20.6637 17.2687 20.6637 17.5999ZM7.19575 14.8999H15.1541C16.3375 14.8999 17.2967 13.9597 17.2967 12.7999C17.2967 11.6401 16.3375 10.6999 15.1541 10.6999H7.19575C6.0121 10.6999 5.05311 11.6401 5.05311 12.7999C5.05311 13.9597 6.0121 14.8999 7.19575 14.8999ZM7.19575 14.2999C6.35031 14.2999 5.66529 13.6285 5.66529 12.7999C5.66529 11.9713 6.35031 11.2999 7.19575 11.2999H15.1541C15.9993 11.2999 16.6846 11.9713 16.6846 12.7999C16.6846 13.6285 15.9993 14.2999 15.1541 14.2999H7.19575ZM6.94199 12.7999L6.72554 12.5878C6.60611 12.4707 6.60611 12.2805 6.72554 12.1636C6.84498 12.0463 7.03901 12.0463 7.1583 12.1636L7.37475 12.3758L7.5912 12.1636C7.71091 12.0463 7.90467 12.0463 8.02438 12.1636C8.14382 12.2807 8.14382 12.4708 8.02438 12.5878L7.80793 12.7999L8.02397 13.012C8.14368 13.1291 8.14368 13.3193 8.02397 13.4362C7.90454 13.5533 7.71051 13.5533 7.59121 13.4362L7.37476 13.2241L7.15872 13.4362C7.03902 13.5533 6.84526 13.5533 6.72554 13.4362C6.60611 13.3191 6.60611 13.129 6.72554 13.012L6.94199 12.7999ZM14.5418 12.7999L14.3251 12.5878C14.2056 12.4707 14.2056 12.2805 14.3251 12.1636C14.4448 12.0463 14.6385 12.0463 14.7582 12.1636L14.9747 12.3758L15.1911 12.1636C15.3106 12.0463 15.5046 12.0463 15.6239 12.1636C15.7433 12.2807 15.7433 12.4708 15.6239 12.5878L15.4075 12.7999L15.6239 13.012C15.7433 13.1291 15.7433 13.3193 15.6239 13.4362C15.5042 13.5533 15.3104 13.5533 15.1907 13.4362L14.9747 13.2241L14.7582 13.4362C14.6388 13.5533 14.4448 13.5533 14.3255 13.4362C14.206 13.3191 14.206 13.129 14.3255 13.012L14.5419 12.7999H14.5418ZM9.49567 12.7999L9.27922 12.5878C9.15978 12.4707 9.15978 12.2805 9.27922 12.1636C9.39865 12.0463 9.59268 12.0463 9.71198 12.1636L9.92843 12.3758L10.1451 12.1636C10.2646 12.0463 10.4586 12.0463 10.5779 12.1636C10.6973 12.2807 10.6973 12.4708 10.5779 12.5878L10.3615 12.7999L10.5775 13.012C10.6972 13.1291 10.6972 13.3193 10.5775 13.4362C10.4581 13.5533 10.264 13.5533 10.1447 13.4362L9.92829 13.2241L9.71225 13.4362C9.59282 13.5533 9.39878 13.5533 9.27949 13.4362C9.15978 13.3191 9.15978 13.129 9.27949 13.012L9.49553 12.7999H9.49567ZM12.0932 12.7999L11.8765 12.5878C11.757 12.4707 11.757 12.2805 11.8765 12.1636C11.9962 12.0463 12.1899 12.0463 12.3097 12.1636L12.5261 12.3758L12.7426 12.1636C12.862 12.0463 13.056 12.0463 13.1753 12.1636C13.2948 12.2807 13.2948 12.4708 13.1753 12.5878L12.9589 12.7999L13.1753 13.012C13.2948 13.1291 13.2948 13.3193 13.1753 13.4362C13.0556 13.5533 12.8619 13.5533 12.7421 13.4362L12.5261 13.2241L12.3096 13.4362C12.1902 13.5533 11.9962 13.5533 11.8769 13.4362C11.7575 13.3191 11.7575 13.129 11.8769 13.012L12.0933 12.7999H12.0932ZM21.8591 4.73248L18.2147 2.64722L14.5706 4.73248C14.3331 7.14478 15.5807 9.47625 17.7781 10.7092L18.2146 10.9543L18.6513 10.7092C20.8487 9.47649 22.0963 7.14482 21.8588 4.73248H21.8591ZM16.9994 5.67091C16.9935 5.64814 16.9908 5.62444 16.9908 5.59979V4.99979C16.9908 4.33712 17.5387 3.79979 18.2152 3.79979C18.8913 3.79979 19.4395 4.33712 19.4395 4.99979V5.59979C19.4395 5.62444 19.4365 5.64814 19.4306 5.67091C19.9905 6.0498 20.3578 6.68313 20.3578 7.3998C20.3578 8.55869 19.3976 9.4998 18.2152 9.4998C17.0325 9.4998 16.0725 8.55869 16.0725 7.3998C16.0725 6.68316 16.4396 6.0498 16.9994 5.67091ZM16.6847 7.3998C16.6847 6.57187 17.3704 5.8998 18.2152 5.8998C19.0597 5.8998 19.7456 6.57187 19.7456 7.3998C19.7456 8.22773 19.0597 8.8998 18.2152 8.8998C17.3704 8.8998 16.6847 8.22773 16.6847 7.3998ZM14.0373 6.4998H4.44107C3.93384 6.4998 3.5228 6.90266 3.5228 7.3998V8.2998H14.6449C14.3578 7.73196 14.1524 7.12644 14.0374 6.4998H14.0373ZM17.9091 7.61971C17.726 7.51592 17.603 7.32212 17.603 7.0998C17.603 6.76833 17.877 6.4998 18.2152 6.4998C18.5534 6.4998 18.8273 6.76833 18.8273 7.0998C18.8273 7.32212 18.7039 7.51593 18.5212 7.61971V7.9998C18.5212 8.16534 18.3841 8.2998 18.2152 8.2998C18.0463 8.2998 17.9091 8.16534 17.9091 7.9998V7.61971ZM5.05325 7.3998C5.05325 7.56533 4.91606 7.6998 4.74716 7.6998C4.57827 7.6998 4.44107 7.56533 4.44107 7.3998C4.44107 7.23426 4.57827 7.0998 4.74716 7.0998C4.91606 7.0998 5.05325 7.23426 5.05325 7.3998ZM6.27762 7.3998C6.27762 7.56533 6.14042 7.6998 5.97153 7.6998C5.80263 7.6998 5.66544 7.56533 5.66544 7.3998C5.66544 7.23426 5.80263 7.0998 5.97153 7.0998C6.14042 7.0998 6.27762 7.23426 6.27762 7.3998ZM7.50198 7.3998C7.50198 7.56533 7.36478 7.6998 7.19589 7.6998C7.02699 7.6998 6.8898 7.56533 6.8898 7.3998C6.8898 7.23426 7.02699 7.0998 7.19589 7.0998C7.36478 7.0998 7.50198 7.23426 7.50198 7.3998ZM18.8273 5.38685V4.9998C18.8273 4.66832 18.5531 4.3998 18.2152 4.3998C17.877 4.3998 17.603 4.66832 17.603 4.9998V5.38685C17.7967 5.33047 18.0024 5.29979 18.2152 5.29979C18.4279 5.29979 18.6333 5.33033 18.8273 5.38685Z" fill="#343A40"/>
</svg>
