<svg width="25" height="24" viewBox="0 0 25 24" fill="none" xmlns="http://www.w3.org/2000/svg">
<g clip-path="url(#clip0_1652_8644)">
<path d="M10.8754 3H3.52926C3.30379 3 3.12109 3.17906 3.12109 3.40005V8.59982C3.12109 8.70589 3.16414 8.80767 3.24066 8.88267C3.31718 8.95767 3.42103 8.99986 3.52926 8.99986H10.8754C10.9837 8.99986 11.0874 8.95767 11.164 8.88267C11.2406 8.80767 11.2835 8.70589 11.2835 8.59982V3.40005C11.2835 3.29397 11.2406 3.19219 11.164 3.11719C11.0874 3.04219 10.9837 3 10.8754 3ZM10.4673 8.20011H3.93722V3.79989H10.4673V8.20011Z" fill="#343A40"/>
<path d="M10.8754 9.80078H3.52926C3.30379 9.80078 3.12109 9.97998 3.12109 10.2008V19.4007C3.12109 19.5068 3.16414 19.6086 3.24066 19.6836C3.31718 19.7586 3.42103 19.8008 3.52926 19.8008H10.8754C10.9837 19.8008 11.0874 19.7586 11.164 19.6836C11.2406 19.6086 11.2835 19.5068 11.2835 19.4007V10.2008C11.2835 10.0948 11.2406 9.99297 11.164 9.91797C11.0874 9.84297 10.9837 9.80078 10.8754 9.80078ZM10.4673 19.001H3.93722V10.601H10.4673V19.001Z" fill="#343A40"/>
<path d="M19.8519 13.8008H12.5057C12.2804 13.8008 12.0977 13.9798 12.0977 14.2008V19.4006C12.0977 19.5067 12.1406 19.6085 12.2171 19.6835C12.2937 19.7585 12.3975 19.8006 12.5057 19.8006H19.8519C19.9601 19.8006 20.0639 19.7585 20.1405 19.6835C20.217 19.6085 20.26 19.5067 20.26 19.4006V14.2008C20.26 14.0948 20.217 13.993 20.1405 13.918C20.0639 13.843 19.9601 13.8008 19.8519 13.8008ZM19.4438 19.0009H12.9138V14.6007H19.4438V19.0009Z" fill="#343A40"/>
<path d="M19.8519 3H12.5057C12.2804 3 12.0977 3.17906 12.0977 3.40005V12.5999C12.0977 12.706 12.1406 12.8078 12.2171 12.8828C12.2937 12.9578 12.3975 13 12.5057 13H19.8519C19.9601 13 20.0639 12.9578 20.1405 12.8828C20.217 12.8078 20.26 12.706 20.26 12.5999V3.40005C20.26 3.29397 20.217 3.19219 20.1405 3.11719C20.0639 3.04219 19.9601 3 19.8519 3ZM19.4438 12.1999H12.9138V3.79989H19.4438V12.1999Z" fill="#343A40"/>
</g>
<defs>
<clipPath id="clip0_1652_8644">
<rect width="24.4873" height="24" fill="white"/>
</clipPath>
</defs>
</svg>
