<svg width="24" height="24" viewBox="0 0 24 24" fill="none" xmlns="http://www.w3.org/2000/svg">
<path d="M21.8857 9.85558C21.8526 9.75394 21.7624 9.68177 21.656 9.67181L15.2486 9.06864L12.6953 3.1617C12.653 3.06355 12.5563 3 12.4494 3C12.3425 3 12.2458 3.06355 12.2036 3.1617L9.65018 9.06864L3.24279 9.67181C3.13642 9.68164 3.04608 9.75394 3.01309 9.85558C2.98011 9.95723 3.01067 10.0687 3.09091 10.1393L7.91973 14.3935L6.51306 20.6737C6.48977 20.7779 6.53057 20.8861 6.617 20.9488C6.70344 21.0117 6.81882 21.0171 6.91078 20.9627L12.4489 17.6848L17.9871 20.962V20.9621C18.079 21.0165 18.1944 21.011 18.2808 20.9482C18.3673 20.8855 18.4081 20.7774 18.3848 20.6732L16.9788 14.3937L21.8076 10.1394H21.8077C21.888 10.0688 21.9185 9.95723 21.8855 9.85572L21.8857 9.85558ZM16.5061 14.0964C16.4327 14.161 16.4004 14.2606 16.4218 14.356L17.7269 20.1867L12.5851 17.1433C12.5011 17.0935 12.3966 17.0935 12.3126 17.1433L7.17081 20.1863L8.47611 14.3556H8.47598C8.49738 14.2601 8.46494 14.1607 8.39156 14.096L3.90845 10.1468L9.85709 9.58709C9.9547 9.57807 10.0395 9.5164 10.0783 9.4262L12.4487 3.94217L14.8198 9.4262C14.8584 9.5164 14.9432 9.57806 15.041 9.58709L20.9893 10.1475L16.5061 14.0964Z" fill="black"/>
</svg>
