<svg width="25" height="24" viewBox="0 0 25 24" fill="none" xmlns="http://www.w3.org/2000/svg">
<path d="M20.9695 3.78516H4.48961C4.239 3.78824 3.99972 3.88788 3.82331 4.06239C3.6469 4.23689 3.54769 4.47248 3.54688 4.7181V21.1132C3.54688 21.1927 3.57912 21.2691 3.63652 21.3253C3.69391 21.3816 3.7718 21.4132 3.85297 21.4132H21.6062C21.6874 21.4132 21.7653 21.3816 21.8227 21.3253C21.8801 21.2691 21.9123 21.1927 21.9123 21.1132V4.7181C21.9115 4.47248 21.8123 4.2369 21.6359 4.06239C21.4595 3.88788 21.2202 3.78824 20.9696 3.78516H20.9695ZM4.48961 4.38516H20.9695C21.1536 4.38998 21.3001 4.5377 21.3001 4.7181V6.59912H4.159V4.7181C4.159 4.5377 4.30549 4.38998 4.48955 4.38516H4.48961ZM4.48961 20.8132C4.30555 20.8083 4.15906 20.6606 4.15906 20.4802V7.1993H21.3001V20.4802C21.3001 20.6641 21.148 20.8132 20.9604 20.8132H4.48961Z" fill="black"/>
<path d="M5.54616 5.48233C5.54616 5.66286 5.3968 5.80925 5.21246 5.80925C5.02826 5.80925 4.87891 5.66287 4.87891 5.48233C4.87891 5.30166 5.02826 5.15527 5.21246 5.15527C5.3968 5.15527 5.54616 5.30166 5.54616 5.48233Z" fill="black"/>
<path d="M6.85475 5.48233C6.85475 5.66286 6.7054 5.80925 6.52119 5.80925C6.33686 5.80925 6.1875 5.66287 6.1875 5.48233C6.1875 5.30166 6.33685 5.15527 6.52119 5.15527C6.70539 5.15527 6.85475 5.30166 6.85475 5.48233Z" fill="black"/>
<path d="M7.83038 5.80488C8.00146 5.7888 8.13209 5.64791 8.13209 5.47943C8.13209 5.31095 8.00146 5.17006 7.83038 5.15385C7.73677 5.14501 7.64372 5.17541 7.57416 5.23729C7.50447 5.2993 7.46484 5.38715 7.46484 5.47943C7.46484 5.57157 7.50447 5.65943 7.57416 5.72144C7.64372 5.78345 7.73677 5.81371 7.83038 5.80488Z" fill="black"/>
<path d="M9.29047 5.78066H20.1841C20.3532 5.78066 20.4902 5.64633 20.4902 5.48066C20.4902 5.315 20.3532 5.18066 20.1841 5.18066H9.29047C9.12143 5.18066 8.98438 5.315 8.98438 5.48066C8.98438 5.64633 9.12143 5.78066 9.29047 5.78066Z" fill="black"/>
<path d="M8.90925 9.76384C8.95558 9.85277 9.04918 9.90849 9.15098 9.90781C9.1958 9.90822 9.23981 9.8979 9.27957 9.87781C9.41389 9.8075 9.46568 9.64451 9.39586 9.51178L8.99794 8.77076V8.7709C8.96419 8.70768 8.90597 8.6604 8.83642 8.63965C8.76687 8.61875 8.69171 8.62599 8.62762 8.65987C8.49371 8.72898 8.44178 8.89103 8.51133 9.02282L8.90925 9.76384Z" fill="black"/>
<path d="M7.72364 10.4117L8.55925 10.5856H8.61746L8.61733 10.5858C8.75834 10.5859 8.87668 10.4817 8.89172 10.3444C8.90661 10.207 8.81342 10.0807 8.67554 10.0517L7.83381 9.89872C7.685 9.86724 7.53837 9.95992 7.50626 10.1058C7.47415 10.2515 7.56871 10.3952 7.71752 10.4267L7.72364 10.4117Z" fill="black"/>
<path d="M16.1786 9.87699C16.2184 9.89708 16.2624 9.90739 16.3072 9.90699C16.409 9.90766 16.5026 9.85194 16.5489 9.76301L16.9468 9.022C17.0164 8.89021 16.9645 8.72816 16.8305 8.65905C16.7667 8.62436 16.6912 8.61659 16.6213 8.63748C16.5515 8.65851 16.4933 8.70632 16.4602 8.77007L16.0623 9.51109V9.51096C15.9925 9.64368 16.0443 9.80667 16.1786 9.87699Z" fill="black"/>
<path d="M16.5771 10.3791C16.6033 10.5046 16.7158 10.5949 16.8465 10.5952H16.9047L17.7403 10.4212H17.7402C17.8877 10.3897 17.9818 10.2479 17.9515 10.1031C17.9166 9.96235 17.7755 9.87275 17.6301 9.89913L16.7945 10.0762C16.6515 10.1048 16.5563 10.2377 16.5771 10.3791Z" fill="black"/>
<path d="M9.27957 15.4218C9.14511 15.3537 8.97977 15.4046 8.90925 15.536L8.51133 16.277V16.2768C8.44178 16.4086 8.49371 16.5708 8.62762 16.6399C8.66602 16.661 8.7092 16.6722 8.75306 16.6729C8.85555 16.6727 8.94956 16.6174 8.99793 16.5289L9.39585 15.7879C9.46568 15.6553 9.41389 15.4922 9.27957 15.4218Z" fill="black"/>
<path d="M7.77974 15.4222H7.83796L8.67357 15.2452V15.2453C8.82743 15.2139 8.92609 15.0661 8.89398 14.9153C8.86187 14.7645 8.71114 14.6678 8.55728 14.6993L7.72167 14.8764C7.58379 14.9053 7.49046 15.0316 7.50549 15.169C7.52039 15.3064 7.63872 15.4105 7.77974 15.4103V15.4222Z" fill="black"/>
<path d="M16.4602 16.5289C16.5086 16.6174 16.6026 16.6727 16.7051 16.6729C16.749 16.6722 16.7922 16.661 16.8305 16.6399C16.9645 16.5708 17.0164 16.4086 16.9468 16.2768L16.5489 15.5358V15.536C16.4784 15.4046 16.3131 15.3537 16.1786 15.4218C16.0443 15.4922 15.9925 15.6553 16.0623 15.7879L16.4602 16.5289Z" fill="black"/>
<path d="M17.7397 14.8885L16.9041 14.6995C16.7554 14.668 16.6087 14.7607 16.5766 14.9066C16.5445 15.0523 16.639 15.196 16.7878 15.2274L17.6234 15.4045H17.6817C17.8227 15.4048 17.941 15.3006 17.9559 15.1632C17.9709 15.0257 17.8776 14.8995 17.7397 14.8705V14.8885Z" fill="black"/>
<path d="M13.1487 15.5237C13.2818 15.5238 13.4147 15.5148 13.5466 15.4966C13.6968 15.478 13.8033 15.344 13.7853 15.1966L13.7179 14.6327C14.3447 14.488 14.8811 14.0925 15.1966 13.5425C15.5123 12.9923 15.5783 12.3376 15.3788 11.7376C15.1791 11.1375 14.7323 10.647 14.1465 10.3847L14.1894 10.2526C14.2166 10.1835 14.2137 10.1065 14.1813 10.0396C14.1488 9.9726 14.0898 9.92171 14.0179 9.89867C13.7445 9.80961 13.4582 9.76407 13.1701 9.76367C12.267 9.76796 11.4275 10.2194 10.9387 10.9637L10.6968 10.8437C10.5622 10.7772 10.3981 10.8277 10.3265 10.9576C9.81475 11.9243 9.85424 13.0826 10.4308 14.0136C11.0074 14.9446 12.0375 15.5135 13.1487 15.5147L13.1487 15.5237ZM14.9393 12.4458C14.9356 12.8211 14.8077 13.1853 14.5747 13.4834C14.3418 13.7814 14.0164 13.9973 13.6476 14.0987L13.5098 12.9558L13.4516 12.4397L13.972 10.9068V10.9066C14.2607 11.0529 14.5034 11.2733 14.6738 11.5445C14.8442 11.8156 14.936 12.1272 14.9393 12.4457L14.9393 12.4458ZM13.1701 10.3158C13.3057 10.3164 13.441 10.3295 13.5741 10.3547L13.0108 12.0197L12.0069 11.5127L11.4283 11.2127H11.4284C11.8235 10.6515 12.4745 10.3163 13.1701 10.3158ZM10.7031 11.4618L10.9112 11.5697L11.7897 12.0137L12.91 12.5777L12.9589 12.9766L13.1302 14.4437C13.1298 14.4527 13.1298 14.4616 13.1302 14.4708L13.1915 14.9808C12.312 14.9998 11.4812 14.5859 10.9783 13.8785C10.4754 13.171 10.3675 12.2636 10.6908 11.4617L10.7031 11.4618Z" fill="black"/>
<path d="M20.0493 18.1826H5.4122C5.25997 18.1826 5.13672 18.3036 5.13672 18.4526C5.13672 18.6018 5.25997 18.7226 5.4122 18.7226H20.0493C20.2015 18.7226 20.3248 18.6018 20.3248 18.4526C20.3248 18.3036 20.2015 18.1826 20.0493 18.1826Z" fill="black"/>
<path d="M15.2573 19.4561H5.41344C5.2716 19.4708 5.16406 19.5878 5.16406 19.7277C5.16406 19.8673 5.2716 19.9845 5.41344 19.9991H15.2573C15.399 19.9845 15.5067 19.8673 15.5067 19.7277C15.5067 19.5878 15.399 19.4708 15.2573 19.4561Z" fill="black"/>
</svg>
