<svg width="18" height="19" viewBox="0 0 18 19" fill="none" xmlns="http://www.w3.org/2000/svg">
<path d="M16.9299 12.4993L14.4147 9.98412C14.2226 9.79206 13.9731 9.69617 13.7043 9.69617C13.4355 9.69617 13.1859 9.7922 12.994 9.98412L11.8419 11.1362C11.6498 11.1746 10.6707 11.0017 8.92346 9.25462C7.15706 7.48822 6.96502 6.50909 7.02262 6.29789L8.17469 5.14582C8.55866 4.76185 8.55866 4.10909 8.17469 3.72499L5.65939 1.20982C5.46733 1.01777 5.21782 0.921875 4.94902 0.921875C4.68022 0.921875 4.43059 1.0179 4.23866 1.20982L3.50902 1.93945C1.45456 3.99392 2.54902 7.16186 6.77299 11.3859C9.61456 14.2274 11.9762 15.6483 13.8386 15.6483C14.549 15.6483 15.1826 15.437 15.7586 15.0338C15.8353 15.4562 15.7777 15.8978 15.5665 16.301C15.2977 16.8578 14.7793 17.2419 14.1841 17.3762C11.9569 17.8754 9.63373 17.1265 8.07853 15.4754L6.06264 13.3057C5.2178 12.4033 3.98904 12.0961 2.8178 12.4993C1.66573 12.9026 0.878638 13.9202 0.801769 15.149L0.763331 15.5905C0.74418 15.8017 0.897796 15.9745 1.10886 15.9938C1.32007 16.0129 1.49283 15.8593 1.51213 15.6483L1.55057 15.2067C1.60816 14.2851 2.20333 13.5171 3.0866 13.1907C3.96987 12.8834 4.91057 13.1139 5.5442 13.8051L7.56024 15.9748C8.92351 17.4532 10.8435 18.2787 12.821 18.2787C13.3395 18.2787 13.8386 18.2211 14.3571 18.106C15.1826 17.9332 15.8738 17.3956 16.2579 16.6275C16.6034 15.9555 16.6419 15.1875 16.4115 14.4772L16.9683 13.9204C17.333 13.5169 17.333 12.8834 16.9298 12.4993L16.9299 12.4993ZM16.4114 13.4017L15.6818 14.1313C13.973 15.8401 11.1506 14.7458 7.29139 10.8865C3.41299 7.00808 2.31859 4.18568 4.02742 2.47688L4.75692 1.72808C4.81451 1.67049 4.8721 1.65134 4.94898 1.65134C5.02572 1.65134 5.08344 1.67049 5.14103 1.72808L7.6562 4.24325C7.75222 4.33928 7.75222 4.51204 7.6562 4.62721L6.485 5.79841C6.2162 6.06721 6.2162 6.60481 6.52343 7.27685C6.84982 8.00648 7.5026 8.87045 8.405 9.77288C10.421 11.7889 11.8418 12.1921 12.3602 11.6929L13.5314 10.5217C13.6274 10.4257 13.8002 10.4257 13.9154 10.5217L16.4305 13.0369C16.5074 13.1137 16.5074 13.2865 16.4114 13.4017H16.4114Z" fill="#343A40"/>
</svg>
