<svg width="24" height="24" viewBox="0 0 24 24" fill="none" xmlns="http://www.w3.org/2000/svg">
<path d="M21.8493 5.57021L16.5307 4.09046C15.6933 3.89968 14.8154 4.0128 14.0536 4.40956L1.77208 11.5878C1.41768 11.7943 1.1592 12.1322 1.05299 12.5284C0.946781 12.9244 1.00157 13.3465 1.20525 13.7024L5.50224 21.109V21.1088C5.71006 21.4623 6.0491 21.7194 6.44572 21.8236C6.84218 21.928 7.26394 21.8712 7.61867 21.6655L20.0982 14.4652C20.8165 14.0065 21.3519 13.3112 21.6122 12.4996L22.9514 7.46781C23.0528 7.07014 22.9942 6.64865 22.7882 6.2938C22.5822 5.93895 22.2452 5.67923 21.8495 5.57028L21.8493 5.57021ZM22.2866 7.29093L20.9474 12.3227C20.7353 12.958 20.3149 13.503 19.7544 13.8695L7.27482 21.0698H7.27498C7.07806 21.1849 6.84355 21.2174 6.62281 21.16C6.40209 21.1026 6.21299 20.9602 6.09712 20.7637L1.79974 13.3572C1.68708 13.1587 1.6573 12.9239 1.71701 12.7036C1.77671 12.4834 1.92114 12.2956 2.11885 12.1815L14.4004 5.00318C15.0011 4.69928 15.6881 4.61087 16.3463 4.75284L21.6648 6.23258C21.8865 6.29244 22.0757 6.43687 22.1919 6.6347C22.3081 6.83254 22.342 7.06813 22.2864 7.29084L22.2866 7.29093Z" fill="#343A40"/>
<path d="M20.1899 7.00384C19.8325 6.7489 19.375 6.67983 18.9583 6.81782C18.5416 6.95595 18.2159 7.28457 18.0816 7.70252C17.9473 8.12031 18.0205 8.57724 18.2787 8.93224C18.5368 9.28725 18.949 9.4977 19.3879 9.4986C19.4645 9.4986 19.5408 9.49231 19.6163 9.47972C19.9762 9.42002 20.2976 9.21957 20.5097 8.92272C20.7218 8.62588 20.8073 8.25691 20.7473 7.897C20.6873 7.53723 20.4868 7.21583 20.1898 7.00389L20.1899 7.00384ZM19.95 8.52335C19.8072 8.72318 19.5686 8.8317 19.324 8.80806C19.0794 8.78427 18.8662 8.63186 18.7644 8.40823C18.6628 8.1846 18.6882 7.92367 18.8309 7.72368L18.8311 7.72352C18.9368 7.5748 19.0977 7.47442 19.2778 7.44495C19.3158 7.4385 19.3541 7.43528 19.3925 7.43528C19.5351 7.43528 19.6741 7.4801 19.7899 7.56329C19.9383 7.6695 20.0385 7.8302 20.0684 8.01024C20.0985 8.19012 20.0559 8.37476 19.95 8.52335Z" fill="#343A40"/>
<path d="M15.5701 6.85014L15.3836 6.56112C15.3343 6.48408 15.2565 6.42974 15.1672 6.41025C15.0777 6.39076 14.9842 6.40764 14.9075 6.45722C14.8306 6.50679 14.7766 6.58492 14.7575 6.6744C14.7385 6.76388 14.7559 6.85719 14.8057 6.93379L14.9922 7.22265V7.2228C15.0413 7.29985 15.1193 7.35418 15.2086 7.37367C15.298 7.39317 15.3914 7.37628 15.4683 7.32671C15.5452 7.27713 15.5991 7.19901 15.6183 7.10953C15.6373 7.02005 15.62 6.92673 15.5701 6.85014Z" fill="#343A40"/>
<path d="M16.2206 7.86101L16.0343 7.57215H16.0341C15.9308 7.4136 15.7189 7.36832 15.5599 7.47101C15.4009 7.57354 15.3545 7.78534 15.4564 7.94483L15.6428 8.23369V8.23384C15.7461 8.39224 15.958 8.43752 16.117 8.33499C16.2762 8.23246 16.3224 8.02062 16.2206 7.86101Z" fill="#343A40"/>
<path d="M18.1776 10.8943L17.9913 10.6054C17.888 10.4468 17.6758 10.4016 17.5168 10.5041C17.3578 10.6066 17.3116 10.8184 17.4134 10.978L17.5997 11.2669C17.703 11.4254 17.9151 11.4707 18.0741 11.3682C18.2331 11.2655 18.2793 11.0537 18.1776 10.8943Z" fill="#343A40"/>
<path d="M16.8729 8.87277L16.6866 8.58391C16.5833 8.42536 16.3712 8.38008 16.2122 8.48261C16.0531 8.58529 16.0069 8.7971 16.1087 8.95655L16.295 9.24541C16.3983 9.40397 16.6104 9.44924 16.7694 9.34671C16.9285 9.24403 16.9747 9.03238 16.8729 8.87277Z" fill="#343A40"/>
<path d="M18.6435 11.6171C18.5402 11.4586 18.3283 11.4133 18.1693 11.5158C18.0101 11.6183 17.9639 11.8302 18.0658 11.9898L18.242 12.2631V12.263C18.3453 12.4215 18.5575 12.4668 18.7165 12.3643C18.8755 12.2616 18.9217 12.0498 18.8199 11.8903L18.6435 11.6171Z" fill="#343A40"/>
<path d="M17.5252 9.88254L17.3388 9.59368C17.2355 9.43513 17.0236 9.38985 16.8646 9.49238C16.7056 9.59506 16.6592 9.80687 16.7611 9.96632L16.9474 10.2552C17.0507 10.4137 17.2627 10.459 17.4217 10.3565C17.5809 10.2538 17.6271 10.042 17.5252 9.88254Z" fill="#343A40"/>
<path d="M6.86906 16.2438L6.68273 15.955C6.57928 15.7964 6.36732 15.7511 6.20831 15.8538C6.0493 15.9563 6.00295 16.1682 6.10487 16.3276L6.2912 16.6165V16.6167C6.39449 16.7752 6.60645 16.8203 6.76561 16.7178C6.92462 16.6153 6.97082 16.4034 6.86906 16.2438Z" fill="#343A40"/>
<path d="M5.56437 14.2205L5.37804 13.9316V13.9315C5.27459 13.7729 5.06263 13.7278 4.90362 13.8303C4.74462 13.9328 4.69826 14.1447 4.80018 14.3041L4.98651 14.593V14.5932C5.0898 14.7517 5.30176 14.7968 5.46092 14.6943C5.61993 14.5918 5.66613 14.38 5.56437 14.2205Z" fill="#343A40"/>
<path d="M6.21665 15.2321L6.03032 14.9432C5.92702 14.7847 5.71506 14.7394 5.5559 14.8421C5.39689 14.9446 5.35069 15.1564 5.45245 15.3159L5.63879 15.6048V15.6049C5.74223 15.7635 5.95419 15.8086 6.1132 15.7061C6.2722 15.6036 6.31856 15.3917 6.21665 15.2321Z" fill="#343A40"/>
<path d="M4.90993 13.2095L4.72345 12.9207V12.9205C4.67433 12.8435 4.59636 12.7891 4.50703 12.7696C4.41771 12.7501 4.32424 12.767 4.24734 12.8166C4.17044 12.8662 4.11657 12.9443 4.09738 13.0338C4.07835 13.1233 4.09569 13.2166 4.14558 13.2933L4.33206 13.5822C4.38133 13.6592 4.45915 13.7136 4.54848 13.733C4.63796 13.7525 4.73127 13.7357 4.80817 13.6861C4.88507 13.6365 4.93894 13.5584 4.95813 13.4689C4.97716 13.3794 4.95982 13.2861 4.90993 13.2095Z" fill="#343A40"/>
<path d="M7.52133 17.2556L7.335 16.9667C7.23171 16.8082 7.01959 16.7629 6.86059 16.8654C6.70158 16.9681 6.65538 17.1799 6.75714 17.3394L6.94347 17.6282C7.04692 17.7868 7.25888 17.8321 7.41789 17.7295C7.57689 17.627 7.6231 17.4152 7.52133 17.2556Z" fill="#343A40"/>
<path d="M7.98741 17.9765C7.88397 17.8179 7.672 17.7727 7.513 17.8752C7.35399 17.9779 7.30764 18.1897 7.40955 18.3491L7.58575 18.6225C7.68905 18.781 7.90116 18.8262 8.06017 18.7236C8.21918 18.6211 8.26538 18.4093 8.16362 18.2497L7.98741 17.9765Z" fill="#343A40"/>
<path d="M11.141 10.7014C11.141 10.3823 11.0142 10.0761 10.7886 9.85045C10.563 9.62483 10.2569 9.49805 9.93769 9.49805C9.61859 9.49805 9.31255 9.62483 9.08678 9.85045C8.86116 10.0761 8.73438 10.3823 8.73438 10.7014C8.73438 11.0205 8.86116 11.3267 9.08678 11.5523C9.31256 11.7779 9.6186 11.9047 9.93769 11.9047C10.2568 11.9044 10.5627 11.7774 10.7882 11.5518C11.0138 11.3262 11.1407 11.0205 11.141 10.7014ZM9.42197 10.7014C9.42197 10.4928 9.54767 10.3047 9.7403 10.2249C9.93308 10.1451 10.1549 10.1892 10.3024 10.3367C10.4499 10.4842 10.4941 10.706 10.4143 10.8988C10.3343 11.0914 10.1463 11.2171 9.93769 11.2171C9.65298 11.2168 9.42229 10.9861 9.42197 10.7014Z" fill="#343A40"/>
<path d="M12.6877 13.2793C12.3686 13.2793 12.0624 13.4061 11.8368 13.6317C11.6112 13.8574 11.4844 14.1634 11.4844 14.4826C11.4844 14.8017 11.6112 15.1078 11.8368 15.3335C12.0624 15.5592 12.3686 15.686 12.6877 15.686C13.0068 15.686 13.313 15.5592 13.5386 15.3335C13.7642 15.1078 13.891 14.8017 13.891 14.4826C13.8907 14.1635 13.7638 13.8577 13.5381 13.6322C13.3125 13.4065 13.0068 13.2796 12.6877 13.2793ZM12.6877 14.9984C12.4791 14.9984 12.2911 14.8727 12.2113 14.68C12.1315 14.4873 12.1755 14.2655 12.323 14.118C12.4705 13.9705 12.6923 13.9262 12.8851 14.0061C13.0777 14.086 13.2034 14.274 13.2034 14.4826C13.2031 14.7673 12.9724 14.998 12.6877 14.9984Z" fill="#343A40"/>
<path d="M13.2323 9.90575C13.0778 9.79555 12.8632 9.83131 12.7527 9.98572L9.31447 14.799C9.26121 14.8733 9.23972 14.9655 9.25461 15.0556C9.2695 15.1457 9.31969 15.2261 9.39397 15.2793C9.46841 15.3324 9.56066 15.3537 9.65076 15.3385C9.74085 15.3233 9.82112 15.273 9.87408 15.1985L13.3123 10.3852C13.4227 10.2307 13.3869 10.016 13.2323 9.9056L13.2323 9.90575Z" fill="#343A40"/>
</svg>
