<svg width="14" height="14" viewBox="0 0 14 14" fill="none" xmlns="http://www.w3.org/2000/svg">
<path d="M9.36632 8.25H8.77437L8.56456 8.0475C9.32426 7.16552 9.7418 6.03952 9.74097 4.875C9.74097 3.91082 9.45533 2.96829 8.92015 2.1666C8.38497 1.36491 7.62431 0.740067 6.73434 0.371089C5.84438 0.00211226 4.86509 -0.094429 3.9203 0.093674C2.97552 0.281777 2.10768 0.746076 1.42653 1.42786C0.745385 2.10964 0.281516 2.97828 0.0935872 3.92394C-0.0943416 4.86959 0.00211031 5.84979 0.370746 6.74058C0.739381 7.63137 1.36364 8.39274 2.16459 8.92842C2.96554 9.46409 3.9072 9.75 4.87049 9.75C6.07687 9.75 7.18584 9.3075 8.04005 8.5725L8.24236 8.7825V9.375L11.9889 13.1175L13.1054 12L9.36632 8.25V8.25ZM4.87049 8.25C3.00472 8.25 1.49861 6.7425 1.49861 4.875C1.49861 3.0075 3.00472 1.5 4.87049 1.5C6.73626 1.5 8.24236 3.0075 8.24236 4.875C8.24236 6.7425 6.73626 8.25 4.87049 8.25Z" fill="#84828A"/>
</svg>
