<svg width="13" height="14" viewBox="0 0 13 14" fill="none" xmlns="http://www.w3.org/2000/svg">
<path d="M9.29102 8.80503H8.70383L8.49571 8.58891C9.2493 7.64759 9.66348 6.44584 9.66266 5.20297C9.66266 4.17392 9.37931 3.16798 8.84844 2.31236C8.31756 1.45673 7.56301 0.789856 6.6802 0.396055C5.79739 0.00225437 4.82597 -0.100782 3.88879 0.099976C2.9516 0.300734 2.09074 0.796269 1.41507 1.52392C0.739392 2.25157 0.279253 3.17865 0.0928349 4.18792C-0.0935831 5.1972 0.00209334 6.24335 0.367765 7.19407C0.733437 8.14478 1.35268 8.95738 2.14719 9.52909C2.9417 10.1008 3.87579 10.4059 4.83133 10.4059C6.02802 10.4059 7.12807 9.93368 7.97541 9.14923L8.1761 9.37336V10.0057L11.8925 14L13 12.8073L9.29102 8.80503V8.80503ZM4.83133 8.80503C2.98056 8.80503 1.48657 7.19611 1.48657 5.20297C1.48657 3.20984 2.98056 1.60092 4.83133 1.60092C6.6821 1.60092 8.1761 3.20984 8.1761 5.20297C8.1761 7.19611 6.6821 8.80503 4.83133 8.80503Z" fill="#84828A"/>
</svg>
