<svg width="28" height="28" viewBox="0 0 28 28" fill="none" xmlns="http://www.w3.org/2000/svg">
<g id="solar:import-outline">
<g id="Group">
<path id="Vector" d="M16.7788 12.2788C16.856 12.1959 16.9492 12.1294 17.0527 12.0832C17.1562 12.0371 17.2679 12.0123 17.3812 12.0103C17.4945 12.0083 17.607 12.0292 17.7121 12.0716C17.8172 12.114 17.9126 12.1772 17.9927 12.2573C18.0728 12.3375 18.136 12.4329 18.1784 12.538C18.2209 12.643 18.2417 12.7555 18.2397 12.8688C18.2377 12.9821 18.2129 13.0939 18.1668 13.1974C18.1207 13.3009 18.0542 13.394 17.9713 13.4712L14.5963 16.8462C14.4381 17.0043 14.2236 17.093 14.0001 17.093C13.7765 17.093 13.562 17.0043 13.4038 16.8462L10.0288 13.4712C9.9459 13.394 9.87941 13.3009 9.8333 13.1974C9.78718 13.0939 9.76238 12.9821 9.76039 12.8688C9.75839 12.7555 9.77923 12.643 9.82166 12.538C9.8641 12.4329 9.92726 12.3375 10.0074 12.2573C10.0875 12.1772 10.1829 12.114 10.288 12.0716C10.3931 12.0292 10.5056 12.0083 10.6189 12.0103C10.7322 12.0123 10.8439 12.0371 10.9474 12.0832C11.0509 12.1294 11.1441 12.1959 11.2213 12.2788L13.1563 14.2137V5C13.1563 4.77622 13.2452 4.56161 13.4034 4.40338C13.5617 4.24514 13.7763 4.15625 14.0001 4.15625C14.2238 4.15625 14.4384 4.24514 14.5967 4.40338C14.7549 4.56161 14.8438 4.77622 14.8438 5V14.2137L16.7788 12.2788Z" fill="#284E93"/>
<path id="Vector_2" d="M23.8438 14C23.8438 13.7762 23.7549 13.5616 23.5966 13.4034C23.4384 13.2451 23.2238 13.1562 23 13.1562C22.7762 13.1562 22.5616 13.2451 22.4034 13.4034C22.2451 13.5616 22.1562 13.7762 22.1562 14C22.1562 15.0711 21.9453 16.1317 21.5354 17.1213C21.1255 18.1108 20.5247 19.01 19.7673 19.7673C19.01 20.5247 18.1108 21.1255 17.1213 21.5354C16.1317 21.9453 15.0711 22.1562 14 22.1562C12.9289 22.1562 11.8683 21.9453 10.8787 21.5354C9.88918 21.1255 8.99004 20.5247 8.23266 19.7673C7.47528 19.01 6.8745 18.1108 6.46461 17.1213C6.05472 16.1317 5.84375 15.0711 5.84375 14C5.84375 13.7762 5.75486 13.5616 5.59662 13.4034C5.43839 13.2451 5.22378 13.1562 5 13.1562C4.77622 13.1562 4.56161 13.2451 4.40338 13.4034C4.24514 13.5616 4.15625 13.7762 4.15625 14C4.15625 16.6107 5.19336 19.1145 7.03942 20.9606C8.88548 22.8066 11.3893 23.8438 14 23.8438C16.6107 23.8438 19.1145 22.8066 20.9606 20.9606C22.8066 19.1145 23.8438 16.6107 23.8438 14Z" fill="#284E93"/>
</g>
</g>
</svg>
