<svg width="15" height="15" viewBox="0 0 15 15" fill="none" xmlns="http://www.w3.org/2000/svg">
<path d="M14.6305 5.54297C14.5835 5.39332 14.4926 5.26121 14.3698 5.16368C14.2469 5.06614 14.0976 5.00766 13.9412 4.99578L9.99338 4.65445C9.94539 4.64998 9.89951 4.63255 9.86068 4.604C9.82184 4.57546 9.7915 4.53689 9.77291 4.49242L8.23029 0.816832C8.17002 0.672247 8.06831 0.548734 7.93796 0.461854C7.80762 0.374974 7.65448 0.328613 7.49783 0.328613C7.34119 0.328613 7.18805 0.374974 7.0577 0.461854C6.92736 0.548734 6.82564 0.672247 6.76537 0.816832L5.22475 4.49242C5.20616 4.53689 5.17582 4.57546 5.13698 4.604C5.09814 4.63255 5.05227 4.64998 5.00428 4.65445L1.05842 4.99578C0.901686 5.00863 0.752261 5.06756 0.628957 5.16517C0.505654 5.26277 0.413984 5.39467 0.365492 5.54426C0.317 5.69386 0.313854 5.85445 0.356449 6.00583C0.399044 6.15721 0.485476 6.2926 0.604862 6.39496L3.59978 9.00804C3.63718 9.04009 3.66494 9.0819 3.67995 9.1288C3.69496 9.17571 3.69663 9.22587 3.68478 9.27367L2.78498 13.1591C2.7479 13.3124 2.75763 13.4733 2.81291 13.621C2.86819 13.7688 2.96648 13.8965 3.0951 13.9878C3.22081 14.0807 3.37149 14.1337 3.52764 14.1399C3.68379 14.1462 3.83824 14.1055 3.971 14.023L7.36435 11.9644C7.40509 11.9394 7.45199 11.9261 7.49982 11.9261C7.54766 11.9261 7.59456 11.9394 7.63529 11.9644L11.0287 14.023C11.1628 14.1034 11.3176 14.1426 11.4739 14.1356C11.6301 14.1287 11.7808 14.0759 11.9073 13.9838C12.0337 13.8918 12.1303 13.7646 12.185 13.618C12.2396 13.4715 12.25 13.3121 12.2147 13.1598L11.3169 9.27234C11.305 9.22454 11.3067 9.17438 11.3217 9.12747C11.3367 9.08057 11.3645 9.03876 11.4019 9.00672L14.3968 6.39363C14.516 6.2912 14.6019 6.15553 14.6435 6.00399C14.6852 5.85244 14.6806 5.69192 14.6305 5.54297ZM14.0475 5.99453L11.0526 8.60761C10.9429 8.70274 10.8613 8.826 10.8166 8.9641C10.7719 9.10219 10.7658 9.24988 10.7989 9.39121L11.6967 13.2773C11.7092 13.3288 11.7061 13.3829 11.6876 13.4326C11.6692 13.4823 11.6362 13.5254 11.5931 13.5562C11.5517 13.5869 11.502 13.6044 11.4504 13.6065C11.3989 13.6085 11.3479 13.5949 11.3042 13.5675L7.91088 11.5089C7.78709 11.4333 7.64486 11.3934 7.49982 11.3934C7.35479 11.3934 7.21256 11.4333 7.08877 11.5089L3.69541 13.5675C3.65171 13.5949 3.60077 13.6085 3.54923 13.6065C3.4977 13.6044 3.44797 13.5869 3.40654 13.5562C3.36341 13.5254 3.33049 13.4823 3.31203 13.4326C3.29357 13.3829 3.29041 13.3288 3.30295 13.2773L4.20076 9.38988C4.23385 9.24855 4.22772 9.10087 4.18301 8.96277C4.1383 8.82467 4.05673 8.70141 3.94709 8.60629L0.952167 5.99453C0.911849 5.95993 0.882831 5.91404 0.868862 5.86278C0.854894 5.81152 0.856616 5.75726 0.873808 5.70699C0.889836 5.65753 0.920025 5.61387 0.960631 5.58141C1.00124 5.54895 1.05048 5.52912 1.10225 5.52437L5.0501 5.18304C5.19447 5.17017 5.33259 5.11817 5.4496 5.03264C5.56662 4.9471 5.65808 4.83127 5.71416 4.69761L7.25611 1.02136C7.2769 0.974228 7.31094 0.934153 7.35409 0.906019C7.39724 0.877885 7.44765 0.862906 7.49916 0.862906C7.55067 0.862906 7.60108 0.877885 7.64423 0.906019C7.68738 0.934153 7.72142 0.974228 7.74221 1.02136L9.28416 4.69761C9.34023 4.83127 9.4317 4.9471 9.54871 5.03264C9.66573 5.11817 9.80385 5.17017 9.94822 5.18304L13.8961 5.52437C13.9478 5.52912 13.9971 5.54895 14.0377 5.58141C14.0783 5.61387 14.1085 5.65753 14.1245 5.70699C14.1419 5.75713 14.1438 5.81131 14.1301 5.86256C14.1163 5.91381 14.0876 5.95977 14.0475 5.99453Z" fill="black" stroke="black" stroke-width="0.2"/>
</svg>
