<svg width="26" height="26" viewBox="0 0 26 26" fill="none" xmlns="http://www.w3.org/2000/svg">
<path fill-rule="evenodd" clip-rule="evenodd" d="M2.0625 13C2.0625 12.7928 2.14481 12.5941 2.29132 12.4476C2.43784 12.301 2.63655 12.2187 2.84375 12.2187L21.2703 12.2187L16.3531 7.30311C16.2064 7.15642 16.124 6.95745 16.124 6.74999C16.124 6.54253 16.2064 6.34356 16.3531 6.19686C16.4998 6.05017 16.6988 5.96775 16.9062 5.96775C17.1137 5.96775 17.3127 6.05017 17.4594 6.19686L23.7094 12.4469C23.7821 12.5194 23.8399 12.6056 23.8792 12.7006C23.9186 12.7955 23.9389 12.8972 23.9389 13C23.9389 13.1028 23.9186 13.2045 23.8792 13.2994C23.8399 13.3943 23.7821 13.4805 23.7094 13.5531L17.4594 19.8031C17.3127 19.9498 17.1137 20.0322 16.9062 20.0322C16.6988 20.0322 16.4998 19.9498 16.3531 19.8031C16.2064 19.6564 16.124 19.4575 16.124 19.25C16.124 19.0425 16.2064 18.8436 16.3531 18.6969L21.2703 13.7812L2.84375 13.7812C2.63655 13.7812 2.43784 13.6989 2.29132 13.5524C2.14481 13.4059 2.0625 13.2072 2.0625 13Z" fill="#284E93"/>
</svg>
