<svg width="14" height="19" viewBox="0 0 14 19" fill="none" xmlns="http://www.w3.org/2000/svg">
<path id="Vector" d="M10.7043 8.06711L9.52085 6.88536C9.2362 6.60112 8.741 6.60112 8.45636 6.88536L7.77984 7.56092L3.78899 11.5462C3.78899 11.5462 3.78314 11.5539 3.78119 11.5578C3.76755 11.5715 3.7578 11.587 3.74805 11.6026C3.74415 11.6084 3.74025 11.6143 3.7383 11.6221C3.7305 11.6377 3.72466 11.6552 3.71881 11.6708C3.71881 11.6746 3.71491 11.6785 3.71491 11.6824L3.12807 14.1024C3.10468 14.2017 3.13392 14.3049 3.20606 14.3769C3.26065 14.4314 3.33668 14.4625 3.41272 14.4625C3.43611 14.4625 3.45951 14.4606 3.48095 14.4548L5.90432 13.8688C5.90432 13.8688 5.92187 13.861 5.93161 13.859C5.93941 13.8571 5.94721 13.8532 5.95696 13.8493C5.98815 13.8357 6.0174 13.8162 6.04274 13.7928L10.7121 9.13009C10.8544 8.98797 10.9324 8.79913 10.9324 8.5986C10.9324 8.39808 10.8544 8.20923 10.7121 8.06711H10.7043ZM7.98455 8.18003L9.40582 9.59929L5.82829 13.1718L4.40702 11.7525L7.98455 8.18003ZM4.15357 12.3268L4.70336 12.8759L5.25315 13.4249L3.80264 13.7753L4.15357 12.3268ZM10.289 8.71736L9.81914 9.18655L8.39787 7.76729L8.86773 7.2981C8.93207 7.23385 9.04124 7.23385 9.10558 7.2981L10.289 8.47984C10.3202 8.51099 10.3377 8.55382 10.3377 8.5986C10.3377 8.64338 10.3202 8.68621 10.289 8.71736ZM9.86983 1H0.5V18H13.5V4.62116L9.87373 1H9.86983ZM10.0414 1.99679L12.4979 4.44984H10.0414V1.99679ZM1.08488 17.4159V1.58406H9.45846V5.0339H12.9132V17.4159H1.08488Z" fill="#065F46" stroke="#065F46" stroke-width="0.3"/>
</svg>
