<svg width="16" height="16" viewBox="0 0 16 16" fill="none" xmlns="http://www.w3.org/2000/svg">
<path d="M4.875 13.6246V5.4996L8.625 1.78085C8.78125 1.6246 8.96625 1.53356 9.18 1.50773C9.39375 1.48189 9.59938 1.52085 9.79688 1.6246C9.99479 1.72877 10.1406 1.8746 10.2344 2.0621C10.3281 2.2496 10.349 2.44231 10.2969 2.64023L9.59375 5.4996H13.625C13.9583 5.4996 14.25 5.6246 14.5 5.8746C14.75 6.1246 14.875 6.41627 14.875 6.7496V7.9996C14.875 8.07252 14.8646 8.15064 14.8438 8.23397C14.8229 8.31731 14.8021 8.39543 14.7813 8.46835L12.9063 12.8746C12.8125 13.0829 12.6563 13.26 12.4375 13.4059C12.2188 13.5517 11.9896 13.6246 11.75 13.6246H4.875ZM6.125 6.03085V12.3746H11.75L13.625 7.9996V6.7496H8L8.84375 3.3121L6.125 6.03085ZM3 13.6246C2.65625 13.6246 2.36188 13.5021 2.11688 13.2571C1.87188 13.0121 1.74958 12.7179 1.75 12.3746V6.7496C1.75 6.40585 1.8725 6.11147 2.1175 5.86648C2.3625 5.62148 2.65667 5.49918 3 5.4996H4.875V6.7496H3V12.3746H4.875V13.6246H3Z" fill="#374151"/>
</svg>
