<svg width="17" height="16" viewBox="0 0 17 16" fill="none" xmlns="http://www.w3.org/2000/svg">
<path d="M8.28734 4.18663H9.95556C9.95556 3.96541 9.86768 3.75325 9.71126 3.59683C9.55483 3.4404 9.34267 3.35252 9.12145 3.35252C8.90023 3.35252 8.68807 3.4404 8.53164 3.59683C8.37522 3.75325 8.28734 3.96541 8.28734 4.18663ZM7.73126 4.18663C7.73126 3.81793 7.87773 3.46433 8.13844 3.20362C8.39915 2.94291 8.75275 2.79645 9.12145 2.79645C9.49015 2.79645 9.84375 2.94291 10.1045 3.20362C10.3652 3.46433 10.5116 3.81793 10.5116 4.18663H13.292C13.3658 4.18663 13.4365 4.21593 13.4886 4.26807C13.5408 4.32021 13.57 4.39093 13.57 4.46467C13.57 4.53841 13.5408 4.60913 13.4886 4.66127C13.4365 4.71342 13.3658 4.74271 13.292 4.74271H12.7059L12.042 10.4947C11.995 10.9013 11.8003 11.2765 11.4947 11.5488C11.1892 11.8212 10.7941 11.9717 10.3849 11.9717H7.85805C7.44875 11.9717 7.05375 11.8212 6.7482 11.5488C6.44265 11.2765 6.24788 10.9013 6.20095 10.4947L5.53699 4.74271H4.95089C4.87715 4.74271 4.80643 4.71342 4.75429 4.66127C4.70214 4.60913 4.67285 4.53841 4.67285 4.46467C4.67285 4.39093 4.70214 4.32021 4.75429 4.26807C4.80643 4.21593 4.87715 4.18663 4.95089 4.18663H7.73126ZM6.75313 10.4314C6.7845 10.7024 6.91441 10.9524 7.11814 11.1339C7.32187 11.3154 7.58521 11.4156 7.85805 11.4156H10.3849C10.6577 11.4156 10.921 11.3154 11.1248 11.1339C11.3285 10.9524 11.4584 10.7024 11.4898 10.4314L12.1459 4.74271H6.09696L6.75313 10.4314ZM8.28734 6.1329C8.36108 6.1329 8.4318 6.16219 8.48394 6.21433C8.53608 6.26647 8.56537 6.33719 8.56537 6.41093V9.74738C8.56537 9.82112 8.53608 9.89184 8.48394 9.94399C8.4318 9.99613 8.36108 10.0254 8.28734 10.0254C8.2136 10.0254 8.14288 9.99613 8.09074 9.94399C8.03859 9.89184 8.0093 9.82112 8.0093 9.74738V6.41093C8.0093 6.33719 8.03859 6.26647 8.09074 6.21433C8.14288 6.16219 8.2136 6.1329 8.28734 6.1329ZM10.2336 6.41093C10.2336 6.33719 10.2043 6.26647 10.1522 6.21433C10.1 6.16219 10.0293 6.1329 9.95556 6.1329C9.88182 6.1329 9.8111 6.16219 9.75896 6.21433C9.70682 6.26647 9.67752 6.33719 9.67752 6.41093V9.74738C9.67752 9.82112 9.70682 9.89184 9.75896 9.94399C9.8111 9.99613 9.88182 10.0254 9.95556 10.0254C10.0293 10.0254 10.1 9.99613 10.1522 9.94399C10.2043 9.89184 10.2336 9.82112 10.2336 9.74738V6.41093Z" fill="#DE0F0F"/>
</svg>
