<svg width="14" height="8" viewBox="0 0 14 8" fill="none" xmlns="http://www.w3.org/2000/svg">
<path d="M13.0664 1.91655L7.46644 7.53322C7.39977 7.59989 7.32755 7.647 7.24977 7.67455C7.17199 7.70255 7.08866 7.71655 6.99977 7.71655C6.91088 7.71655 6.82755 7.70255 6.74977 7.67455C6.67199 7.647 6.59977 7.59989 6.5331 7.53322L0.916438 1.91655C0.760883 1.761 0.683105 1.56655 0.683105 1.33322C0.683105 1.09989 0.766438 0.899887 0.933105 0.73322C1.09977 0.566554 1.29422 0.48322 1.51644 0.48322C1.73866 0.48322 1.93311 0.566554 2.09977 0.73322L6.99977 5.63322L11.8998 0.73322C12.0553 0.577664 12.2469 0.499886 12.4744 0.499886C12.7024 0.499886 12.8998 0.583219 13.0664 0.749886C13.2331 0.916553 13.3164 1.111 13.3164 1.33322C13.3164 1.55544 13.2331 1.74989 13.0664 1.91655Z" fill="white"/>
</svg>
