<svg width="22" height="15" viewBox="0 0 22 15" fill="none" xmlns="http://www.w3.org/2000/svg">
<path d="M14.8086 0.271589C14.6678 0.108569 14.4625 0.010284 14.2429 0.000781998C14.0234 -0.00886861 13.8096 0.0711575 13.6542 0.221259C13.4989 0.37136 13.4159 0.577584 13.4258 0.789592C13.4358 1.00175 13.5376 1.19996 13.7065 1.33581L19.3298 6.77171H0.743241C0.473085 6.78566 0.229365 6.9328 0.0983666 7.16129C-0.0327889 7.38963 -0.0327889 7.66714 0.0983666 7.8956C0.229369 8.1241 0.473077 8.27123 0.743241 8.28503H19.3298L13.6978 13.7149C13.556 13.8583 13.477 14.0488 13.477 14.247C13.477 14.4452 13.556 14.6358 13.6978 14.7791C13.8439 14.9206 14.0421 15 14.2489 15C14.4557 15 14.654 14.9206 14.7999 14.7791L21.7655 8.05319V8.05333C21.9153 7.91407 22 7.72195 22 7.52122C22 7.32034 21.9153 7.12822 21.7655 6.98911L14.8086 0.271589Z" fill="#564ED1"/>
</svg>
