<svg width="20" height="10" viewBox="0 0 40 24" fill="none" xmlns="http://www.w3.org/2000/svg">
<path d="M12.1987 12C12.1987 16.2005 15.6161 19.6178 19.8166 19.6178C24.017 19.6178 27.4344 16.2005 27.4344 12C27.4344 7.79953 24.017 4.38217 19.8166 4.38217C15.6161 4.38217 12.1987 7.79953 12.1987 12ZM25.6999 12C25.6999 15.2439 23.0605 17.8834 19.8166 17.8834C16.5727 17.8834 13.9332 15.2439 13.9332 12C13.9332 8.7561 16.5727 6.11665 19.8166 6.11665C23.0605 6.11665 25.6999 8.7561 25.6999 12Z" fill="#343A40"/>
<path d="M39.3961 11.167C38.9646 10.7108 28.7216 0 19.8168 0C10.9116 0 0.669017 10.7113 0.237566 11.167C-0.0742071 11.4961 -0.0798439 12.01 0.224991 12.346C0.656443 12.8217 10.9007 24 19.8168 24C28.7325 24 38.9767 12.8217 39.4086 12.3456C39.7135 12.01 39.7078 11.4961 39.3961 11.167ZM19.8168 22.2655C12.7796 22.2655 4.31663 14.0788 2.07568 11.7758C4.33484 9.55135 12.7766 1.73448 19.8168 1.73448C26.8493 1.73448 35.2966 9.55178 37.5575 11.7763C35.3157 14.0796 26.8532 22.2655 19.8168 22.2655Z" fill="#343A40"/>
</svg>
