<svg width="24" height="24" viewBox="0 0 24 24" fill="none" xmlns="http://www.w3.org/2000/svg">
<path d="M21.8493 5.57021L16.5307 4.09046C15.6933 3.89968 14.8154 4.0128 14.0536 4.40956L1.77208 11.5878C1.41768 11.7943 1.1592 12.1322 1.05299 12.5284C0.946781 12.9244 1.00157 13.3465 1.20525 13.7024L5.50224 21.109V21.1088C5.71006 21.4623 6.0491 21.7194 6.44572 21.8236C6.84218 21.928 7.26394 21.8712 7.61867 21.6655L20.0982 14.4652C20.8165 14.0065 21.3519 13.3112 21.6122 12.4996L22.9514 7.46781C23.0528 7.07014 22.9942 6.64865 22.7882 6.2938C22.5822 5.93895 22.2452 5.67923 21.8495 5.57028L21.8493 5.57021ZM22.2866 7.29093L20.9474 12.3227C20.7353 12.958 20.3149 13.503 19.7544 13.8695L7.27482 21.0698H7.27498C7.07806 21.1849 6.84355 21.2174 6.62281 21.16C6.40209 21.1026 6.21299 20.9602 6.09712 20.7637L1.79974 13.3572C1.68708 13.1587 1.6573 12.9239 1.71701 12.7036C1.77671 12.4834 1.92114 12.2956 2.11885 12.1815L14.4004 5.00318C15.0011 4.69928 15.6881 4.61087 16.3463 4.75284L21.6648 6.23258C21.8865 6.29244 22.0757 6.43687 22.1919 6.6347C22.3081 6.83254 22.342 7.06813 22.2864 7.29084L22.2866 7.29093Z" fill="black"/>
<path d="M20.1916 7.00305C19.8343 6.74811 19.3767 6.67904 18.96 6.81702C18.5433 6.95516 18.2176 7.28377 18.0833 7.70172C17.949 8.11952 18.0222 8.57645 18.2804 8.93145C18.5385 9.28646 18.9507 9.4969 19.3896 9.49781C19.4662 9.49781 19.5425 9.49152 19.618 9.47893C19.9779 9.41922 20.2993 9.21877 20.5114 8.92192C20.7235 8.62508 20.809 8.25612 20.749 7.8962C20.689 7.53644 20.4885 7.21503 20.1915 7.00309L20.1916 7.00305ZM19.9517 8.52255C19.8089 8.72239 19.5703 8.83091 19.3257 8.80727C19.0811 8.78348 18.8679 8.63107 18.7661 8.40743C18.6645 8.1838 18.6899 7.92288 18.8326 7.72288L18.8328 7.72273C18.9385 7.574 19.0994 7.47363 19.2795 7.44416C19.3175 7.43771 19.3558 7.43449 19.3942 7.43449C19.5368 7.43449 19.6758 7.4793 19.7916 7.56249C19.94 7.6687 20.0402 7.82941 20.0701 8.00944C20.1002 8.18933 20.0576 8.37396 19.9517 8.52255Z" fill="black"/>
<path d="M15.5701 6.84983L15.3836 6.56082C15.3343 6.48377 15.2565 6.42943 15.1672 6.40994C15.0777 6.39045 14.9842 6.40734 14.9075 6.45691C14.8306 6.50649 14.7766 6.58461 14.7575 6.67409C14.7385 6.76357 14.7559 6.85689 14.8057 6.93348L14.9922 7.22234V7.22249C15.0413 7.29954 15.1193 7.35388 15.2086 7.37337C15.298 7.39286 15.3914 7.37598 15.4683 7.3264C15.5452 7.27683 15.5991 7.1987 15.6183 7.10922C15.6373 7.01974 15.62 6.92642 15.5701 6.84983Z" fill="black"/>
<path d="M16.2223 7.86083L16.036 7.57197H16.0358C15.9325 7.41342 15.7206 7.36814 15.5616 7.47082C15.4026 7.57335 15.3562 7.78516 15.4581 7.94465L15.6445 8.23351V8.23366C15.7478 8.39206 15.9597 8.43734 16.1187 8.33481C16.2779 8.23228 16.3241 8.02043 16.2223 7.86083Z" fill="black"/>
<path d="M18.1795 10.8946L17.9932 10.6057C17.8899 10.4471 17.6778 10.4019 17.5188 10.5044C17.3598 10.6069 17.3136 10.8187 17.4153 10.9783L17.6017 11.2672C17.705 11.4258 17.9171 11.471 18.0761 11.3685C18.2351 11.2658 18.2813 11.054 18.1795 10.8946Z" fill="black"/>
<path d="M16.8744 8.87179L16.688 8.58293C16.5847 8.42438 16.3726 8.37911 16.2136 8.48164C16.0546 8.58432 16.0084 8.79613 16.1102 8.95558L16.2965 9.24444C16.3998 9.40299 16.6119 9.44827 16.7709 9.34574C16.9299 9.24305 16.9761 9.0314 16.8744 8.87179Z" fill="black"/>
<path d="M18.6453 11.6167C18.542 11.4582 18.33 11.4129 18.171 11.5154C18.0118 11.618 17.9656 11.8298 18.0675 11.9894L18.2438 12.2627V12.2626C18.347 12.4211 18.5592 12.4664 18.7182 12.3639C18.8772 12.2612 18.9234 12.0494 18.8216 11.8899L18.6453 11.6167Z" fill="black"/>
<path d="M17.5269 9.88315L17.3405 9.59429C17.2372 9.43574 17.0253 9.39046 16.8663 9.49299C16.7073 9.59567 16.6609 9.80748 16.7628 9.96693L16.9492 10.2558C17.0525 10.4143 17.2644 10.4596 17.4234 10.3571C17.5826 10.2544 17.6288 10.0426 17.5269 9.88315Z" fill="black"/>
<path d="M6.86857 16.2438L6.68224 15.955C6.57879 15.7964 6.36683 15.7511 6.20783 15.8538C6.04881 15.9563 6.00246 16.1682 6.10438 16.3276L6.29071 16.6165V16.6167C6.394 16.7752 6.60596 16.8203 6.76512 16.7178C6.92413 16.6153 6.97033 16.4034 6.86857 16.2438Z" fill="black"/>
<path d="M5.56388 14.2214L5.37755 13.9325V13.9324C5.2741 13.7738 5.06214 13.7287 4.90314 13.8312C4.74413 13.9338 4.69777 14.1456 4.79969 14.3051L4.98602 14.5939V14.5941C5.08931 14.7526 5.30128 14.7977 5.46043 14.6952C5.61944 14.5927 5.66564 14.3809 5.56388 14.2214Z" fill="black"/>
<path d="M6.21616 15.2324L6.02983 14.9436C5.92653 14.785 5.71457 14.7397 5.55541 14.8424C5.3964 14.9449 5.3502 15.1567 5.45197 15.3162L5.6383 15.6051V15.6052C5.74175 15.7638 5.95371 15.8089 6.11271 15.7064C6.27171 15.6039 6.31807 15.392 6.21616 15.2324Z" fill="black"/>
<path d="M4.91164 13.2104L4.72516 12.9216V12.9214C4.67604 12.8444 4.59807 12.79 4.50874 12.7705C4.41942 12.751 4.32594 12.7679 4.24905 12.8175C4.17215 12.8671 4.11828 12.9452 4.09909 13.0347C4.08006 13.1242 4.0974 13.2175 4.14729 13.2942L4.33377 13.5831C4.38304 13.6601 4.46086 13.7145 4.55018 13.734C4.63966 13.7535 4.73298 13.7366 4.80988 13.687C4.88678 13.6374 4.94065 13.5593 4.95984 13.4698C4.97887 13.3803 4.96152 13.287 4.91164 13.2104Z" fill="black"/>
<path d="M7.52109 17.2552L7.33476 16.9663C7.23146 16.8077 7.01935 16.7625 6.86035 16.865C6.70133 16.9677 6.65513 17.1795 6.7569 17.3389L6.94323 17.6278C7.04668 17.7864 7.25864 17.8316 7.41764 17.7291C7.57665 17.6266 7.62285 17.4148 7.52109 17.2552Z" fill="black"/>
<path d="M7.98693 17.9774C7.88348 17.8189 7.67152 17.7736 7.51251 17.8761C7.3535 17.9788 7.30715 18.1906 7.40906 18.35L7.58527 18.6234C7.68856 18.782 7.90068 18.8271 8.05968 18.7245C8.21869 18.622 8.26489 18.4102 8.16313 18.2506L7.98693 17.9774Z" fill="black"/>
<path d="M11.1405 10.7009C11.1405 10.3818 11.0137 10.0756 10.7881 9.84996C10.5625 9.62434 10.2564 9.49756 9.9372 9.49756C9.61811 9.49756 9.31206 9.62434 9.08629 9.84996C8.86067 10.0756 8.73389 10.3818 8.73389 10.7009C8.73389 11.02 8.86067 11.3262 9.08629 11.5518C9.31207 11.7774 9.61811 11.9042 9.9372 11.9042C10.2563 11.9039 10.5622 11.7769 10.7877 11.5513C11.0133 11.3257 11.1402 11.02 11.1405 10.7009ZM9.42148 10.7009C9.42148 10.4923 9.54719 10.3043 9.73981 10.2245C9.93259 10.1446 10.1544 10.1887 10.3019 10.3362C10.4494 10.4837 10.4936 10.7055 10.4138 10.8983C10.3338 11.0909 10.1458 11.2166 9.9372 11.2166C9.65249 11.2163 9.4218 10.9856 9.42148 10.7009Z" fill="black"/>
<path d="M12.6879 13.2796C12.3688 13.2796 12.0626 13.4063 11.837 13.632C11.6114 13.8576 11.4846 14.1636 11.4846 14.4829C11.4846 14.802 11.6114 15.108 11.837 15.3338C12.0626 15.5594 12.3688 15.6862 12.6879 15.6862C13.007 15.6862 13.3132 15.5594 13.5388 15.3338C13.7645 15.108 13.8912 14.802 13.8912 14.4829C13.8909 14.1638 13.764 13.8579 13.5384 13.6324C13.3128 13.4068 13.0071 13.2799 12.6879 13.2796ZM12.6879 14.9986C12.4793 14.9986 12.2913 14.8729 12.2115 14.6803C12.1317 14.4875 12.1758 14.2657 12.3233 14.1182C12.4708 13.9707 12.6925 13.9265 12.8853 14.0063C13.078 14.0863 13.2037 14.2743 13.2037 14.4829C13.2034 14.7676 12.9726 14.9983 12.6879 14.9986Z" fill="black"/>
<path d="M13.2313 9.90557C13.0768 9.79537 12.8622 9.83113 12.7517 9.98554L9.31349 14.7988C9.26023 14.8731 9.23875 14.9654 9.25363 15.0554C9.26852 15.1455 9.31871 15.226 9.393 15.2791C9.46744 15.3322 9.55968 15.3535 9.64978 15.3383C9.73988 15.3231 9.82015 15.2728 9.8731 15.1983L13.3113 10.3851C13.4217 10.2305 13.3859 10.0158 13.2314 9.90542L13.2313 9.90557Z" fill="black"/>
</svg>
